<svg width="200" height="200" viewBox="0 0 200 200" fill="none" xmlns="http://www.w3.org/2000/svg">
<g filter="url(#filter0_d_186_79)">
<circle cx="97" cy="93" r="92" fill="white"/>
</g>
<path d="M109.26 129.048C111.74 129.237 114.151 127.79 116.51 125.87C117.957 124.69 118.181 120.013 121.789 123.708C124.622 126.619 127.98 129.401 124.63 133.819C122.753 136.299 120.325 138.358 118.129 140.614C114.926 143.93 114.125 146.643 119.851 147.943C123.296 148.719 125.629 150.811 125.276 154.506C125.184 156.111 124.529 157.633 123.427 158.803C122.324 159.973 120.845 160.718 119.249 160.905C115.133 161.568 113.014 158.976 112.222 155.376C111.068 150.14 108.64 150.501 105.264 153.412C94.9314 162.309 94.9314 162.326 83.987 153.249C80.3188 150.191 77.8561 150.837 76.9175 155.505C76.177 159.166 74.1534 161.267 70.5196 160.923C68.9221 160.847 67.403 160.207 66.2319 159.118C65.0608 158.028 64.3133 156.559 64.1218 154.971C63.476 150.906 65.8439 148.676 69.5379 147.866C75.3847 146.591 74.3773 143.827 71.3377 140.476C71.1939 140.324 71.0415 140.181 70.8813 140.046C59.6872 130.253 62.434 128.324 70.7693 120.427C75.3245 116.12 74.8508 114.484 68.9954 112.529C65.8266 111.478 63.829 109.635 64.1218 106.216C64.4145 102.797 66.4897 100.377 70.0288 99.8942C73.5679 99.4119 75.7636 101.203 76.8572 104.795C78.5793 110.307 80.3016 110.694 84.5381 106.888C86.0881 105.492 87.5174 103.951 89.0416 102.512C93.967 97.8962 98.9958 98.7057 102.423 104.433C104.24 107.447 101.088 107.387 100.081 108.36C96.0939 112.184 95.1811 116.697 97.2564 121.503C99.3316 126.309 103.12 129.048 109.26 129.048Z" fill="#373737"/>
<path d="M107.813 83.8665C110.982 89.4991 115.356 92.3411 121.513 90.9287C123.801 90.4775 125.902 89.3539 127.548 87.7015C129.194 86.0491 130.31 83.9431 130.752 81.653C132.095 75.5123 129.254 71.1373 123.743 68.4243C130.632 59.8118 132.629 59.6567 140.009 66.9945C141.051 68.028 142.058 69.096 143.143 70.0865C146.269 72.9544 148.775 72.8511 149.817 68.364C150.678 64.6262 152.598 62.0078 156.585 62.4126C158.187 62.5029 159.703 63.1702 160.852 64.2909C162.001 65.4117 162.706 66.9104 162.836 68.5103C163.336 72.6271 160.959 74.41 157.153 75.3229C152.184 76.5115 152.581 79.2157 155.526 82.5315C164.662 92.8665 164.645 92.8664 155.526 103.331C152.667 106.612 152.021 109.153 157.248 110.427C160.839 111.289 163.499 113.149 162.896 117.317C162.752 118.914 162.05 120.408 160.912 121.538C159.775 122.667 158.276 123.359 156.679 123.493C152.693 123.915 150.652 121.331 149.842 117.619C148.645 112.408 146.054 113.089 142.781 115.965C132.371 125.095 132.311 125.095 121.866 115.965C118.12 112.693 115.623 112.77 114.546 118.153C113.823 121.727 111.55 123.846 107.916 123.32C104.868 122.916 102.44 121.055 101.888 117.722C101.277 114.036 103.077 111.9 106.504 110.6C112.6 108.274 112.807 106.982 108.226 102.203C107.796 101.746 107.365 101.341 106.9 100.859C98.7799 92.7546 98.7972 92.1 107.813 83.8665Z" fill="#373737"/>
<path d="M69.9001 63.739C61.7026 56.5992 61.6337 55.3506 69.039 47.9783C69.7796 47.2376 70.5459 46.5141 71.2606 45.7562C75.566 41.1485 75.3939 40.2096 69.306 37.9101C66.2922 36.7646 64.0447 34.8958 64.4322 31.4938C64.5492 30.01 65.1435 28.6042 66.126 27.4864C67.1086 26.3685 68.4266 25.5989 69.8829 25.2929C74.3002 24.2766 76.4443 26.7312 77.4174 30.6929C78.6315 35.5934 81.0598 35.5848 84.53 32.579C95.1816 23.3378 95.2591 23.3206 105.351 32.3809C109.14 35.7829 111.611 35.4297 112.808 30.3569C113.669 26.7741 115.779 24.6813 119.395 25.0431C120.989 25.1415 122.497 25.8006 123.653 26.9039C124.808 28.0072 125.535 29.4836 125.707 31.0718C126.293 35.1886 123.563 37.2126 119.99 38.0308C114.823 39.2021 114.952 41.5877 118.069 44.9208C118.342 45.2218 118.629 45.5093 118.93 45.782C128.084 54.1362 129.263 55.7208 118.827 65.3496C114.246 69.5611 114.789 71.2233 120.842 73.2472C124.071 74.3324 126.008 76.2789 125.638 79.5947C125.529 81.1829 124.866 82.6821 123.764 83.8312C122.662 84.9802 121.192 85.7059 119.611 85.8817C116.27 86.364 114.229 84.6157 113.023 81.4118C110.492 74.6855 109.527 74.5219 104.326 79.5775C102.819 81.0244 101.407 82.5745 99.8487 83.9783C98.893 84.87 97.7325 85.5126 96.4695 85.8491C95.2066 86.1856 93.8802 86.2057 92.6077 85.9078C91.3351 85.6098 90.1555 85.0029 89.1732 84.1407C88.1909 83.2784 87.436 82.1873 86.9754 80.964C86.4501 79.5946 87.3027 79.2416 88.0088 78.5095C94.6994 71.4731 95.0783 65.0394 89.1626 59.8289C83.3847 54.7475 77.0127 55.9706 70.5287 63.4032C70.3479 63.5926 70.0895 63.6528 69.9001 63.739Z" fill="#373737"/>
<path d="M58.9369 107.189C58.7474 109.876 60.0735 112.357 62.1401 114.639C63.5437 116.163 67.4272 116.809 63.9742 120.151C61.124 122.898 58.3169 125.654 54.2354 122.795C51.8674 121.133 49.9988 118.781 47.8719 116.766C43.2996 112.417 42.1543 112.641 39.9326 118.489C38.8649 121.296 37.0739 123.389 34.0859 123.38C32.5974 123.409 31.1408 122.946 29.9432 122.061C28.7456 121.176 27.874 119.92 27.4641 118.489C26.0003 114.182 28.1014 111.599 32.1313 110.548C37.2461 109.247 37.7369 107.025 34.3442 103.184C25.4578 93.0989 25.4664 93.0215 34.5681 82.342C37.6077 78.785 37.2289 76.3131 32.5618 75.1418C28.6955 74.1858 26.6547 72.093 27.2661 68.0279C27.4222 66.5444 28.0922 65.1624 29.16 64.1211C30.2279 63.0798 31.6263 62.445 33.1129 62.3265C37.1945 61.8098 39.1405 64.471 40.0618 68.071C41.3276 73.1524 43.8506 72.894 47.0883 69.7935C47.5447 69.3542 47.9494 68.9322 48.4316 68.4671C57.6021 59.5446 57.6022 59.5532 66.8072 68.4671C72.0599 73.5485 72.8348 73.4107 75.4697 66.7446C76.6924 63.6011 78.9141 61.87 82.2207 62.4901C85.2948 63.0671 87.5594 65.0739 87.9986 68.3294C88.4377 71.5849 86.7413 73.7122 83.5639 74.9437C77.0025 77.4844 76.8302 78.6385 81.8418 83.7888C83.6833 85.4983 85.4365 87.3007 87.0944 89.1889C89.9101 92.7544 87.1547 100.239 82.8493 100.919C80.7052 101.264 80.3952 99.0329 79.293 97.9563C75.5559 94.3046 71.2073 93.7363 66.5316 95.4846C61.8559 97.233 58.9024 101.918 58.9369 107.189Z" fill="#3F92C8"/>
<defs>
<filter id="filter0_d_186_79" x="0" y="0" width="200" height="200" filterUnits="userSpaceOnUse" color-interpolation-filters="sRGB">
<feFlood flood-opacity="0" result="BackgroundImageFix"/>
<feColorMatrix in="SourceAlpha" type="matrix" values="0 0 0 0 0 0 0 0 0 0 0 0 0 0 0 0 0 0 127 0" result="hardAlpha"/>
<feMorphology radius="2" operator="erode" in="SourceAlpha" result="effect1_dropShadow_186_79"/>
<feOffset dx="3" dy="7"/>
<feGaussianBlur stdDeviation="5"/>
<feComposite in2="hardAlpha" operator="out"/>
<feColorMatrix type="matrix" values="0 0 0 0 0 0 0 0 0 0 0 0 0 0 0 0 0 0 0.25 0"/>
<feBlend mode="normal" in2="BackgroundImageFix" result="effect1_dropShadow_186_79"/>
<feBlend mode="normal" in="SourceGraphic" in2="effect1_dropShadow_186_79" result="shape"/>
</filter>
</defs>
</svg>
