<svg width="234" height="89" viewBox="0 0 234 89" fill="none" xmlns="http://www.w3.org/2000/svg">
<path d="M74.7124 0H13.5125C6.11245 0 0.112549 6.2 0.112549 13.8V74.4C0.112549 81.9 6.0125 88.1 13.3125 88.2H74.6125C82.0126 88.2 88.1125 82 88.1125 74.4V13.8C88.2125 6.1 82.2124 0 74.7124 0ZM20.8125 81H17.5125C13.5125 81 10.2124 77.7 10.2124 73.6V73V17.1V14.1C10.4124 10.1 13.4125 6.9 17.3125 6.9H24.1125C30.3125 6.9 35.2124 12.2 35.2124 18.5C35.2124 21.6 34.0125 24.5 32.0125 26.5L14.7124 44.1L30.9126 60.6C33.0126 62.8 34.2124 65.6 34.2124 68.7C34.3124 75.6 28.3125 81 20.8125 81ZM70.7124 81H40.4126C40.4126 81 43.9126 73.4 43.9126 68.8C43.9126 63.1 42.0125 58 39.0125 54.6L28.7124 44.1L39.2124 33.2C42.4124 30.2 44.4126 25 44.4126 19C44.4126 14.3 43.1124 10.1 41.0125 7H48.3125C54.5125 7 59.4126 12.3 59.4126 18.6C59.4126 21.7 58.2124 24.6 56.2124 26.6L39.2124 44L74.5125 80C73.5125 80.7 72.1124 81 70.7124 81ZM78.1125 69.8L52.8125 44L64.8125 31.8C67.3125 28.7 68.8125 24.1 68.8125 19C68.8125 14.2 67.5125 9.9 65.3125 6.9L70.7124 7.1C74.7124 7.1 78.0125 10.4 78.0125 14.5L78.1125 69.8Z" fill="#FDFFFF"/>
<path d="M142.413 39.8999C142.913 39.3999 143.513 38.7999 144.113 37.9999C144.813 37.1999 145.412 36.2999 146.012 35.2999C146.612 34.1999 147.112 33.0999 147.512 31.7999C147.912 30.4999 148.113 29.0999 148.113 27.5999C148.113 24.6999 147.613 21.9999 146.613 19.4999C145.613 16.9999 144.113 14.7999 142.113 12.8999C140.113 10.9999 137.513 9.5999 134.413 8.4999C131.313 7.3999 127.812 6.8999 123.712 6.8999H123.613H111.913H108.812H96.8125V20.3999V66.9999V80.8999H126.413C130.713 80.8999 134.412 80.2999 137.712 79.1999C140.912 77.9999 143.612 76.3999 145.712 74.3999C147.812 72.3999 149.413 69.9999 150.413 67.2999C151.413 64.5999 151.913 61.6999 151.913 58.5999C151.913 54.3999 150.912 50.6999 149.012 47.4999C147.212 44.1999 144.913 41.6999 142.413 39.8999ZM129.312 20.4999C130.312 20.8999 131.112 21.3999 131.812 21.9999C133.513 23.5999 134.312 25.4999 134.312 27.7999C134.312 29.7999 133.912 31.4999 133.212 32.8999C132.512 34.1999 131.813 35.2999 131.113 35.9999H110.512V19.5999H123.312C125.812 19.5999 127.812 19.8999 129.312 20.4999ZM127.212 48.6999C130.912 48.6999 133.712 49.6999 135.512 51.5999C137.212 53.4999 138.012 55.6999 138.012 58.2999C138.012 60.9999 137.013 63.1999 135.113 65.0999C133.213 66.9999 130.013 67.8999 125.613 67.8999H123.913H110.613V48.5999H127.212V48.6999Z" fill="#FDFFFF"/>
<path d="M202.113 49C204.313 47.5 206.213 45.7001 207.613 43.7001C209.113 41.7001 210.213 39.5 210.913 37C211.613 34.6 212.012 32.1 212.012 29.5C212.012 26.2 211.513 23.1 210.413 20.4C209.313 17.6 207.712 15.2001 205.512 13.2001C203.312 11.2001 200.612 9.60005 197.312 8.50005C194.013 7.40005 190.213 6.80005 185.913 6.80005H185.512H157.012H156.712V80.8H170.712V53.3H178.512L197.812 80.8H214.212L194.212 52.4C197.312 51.7 199.913 50.6 202.113 49ZM186.012 19.6001C186.912 19.6001 187.712 19.7 188.512 19.8C191.012 20.2 193.013 21.1 194.613 22.5C196.713 24.4 197.812 26.8001 197.812 29.6001C197.812 31.0001 197.613 32.4001 197.113 33.7001C196.613 35 195.913 36.2001 194.913 37.2001C193.913 38.2001 192.713 39 191.113 39.7001C189.613 40.3 187.712 40.6001 185.512 40.6001H170.812V19.6001H186.012Z" fill="#FDFFFF"/>
<path d="M219.212 6.90005C219.112 6.90005 218.912 6.90005 218.812 6.90005H218.712V34V53.4V80.8H233.012V6.80005H219.212V6.90005Z" fill="#FDFFFF"/>
</svg>
