<svg width="381" height="70" viewBox="0 0 381 70" fill="none" xmlns="http://www.w3.org/2000/svg">
<path d="M25.6125 1.59991C33.6125 1.59991 41.7125 1.29991 49.7125 1.69991C60.3125 2.09991 68.8125 12.4999 67.6125 23.0999C67.1125 27.3999 65.6125 31.0999 62.8125 34.2999C62.2125 34.9999 62.4125 35.3999 62.9125 35.9999C72.8125 47.7999 66.7125 65.1999 51.6125 68.2999C50.3125 68.5999 49.1125 68.6999 47.8125 68.6999C32.4125 68.6999 16.9125 68.6999 1.5125 68.6999C0.4125 68.6999 0.0125061 68.4999 0.112506 67.2999C0.212506 64.1999 0.212506 61.1999 0.112506 58.0999C0.112506 56.9999 0.312506 56.5999 1.61251 56.5999C17.0125 56.6999 32.5125 56.5999 47.9125 56.5999C52.0125 56.5999 55.3125 53.6999 55.7125 49.4999C56.1125 45.6999 53.5125 42.0999 49.6125 41.1999C49.0125 40.9999 48.3125 41.0999 47.7125 41.0999C32.3125 41.0999 16.9125 41.0999 1.5125 41.0999C0.3125 41.0999 0.0125 40.7999 0.0125 39.5999C0.1125 36.4999 0.1125 33.4999 0.0125 30.3999C0.0125 29.2999 0.212509 28.9999 1.41251 28.9999C16.9125 28.9999 32.4125 28.9999 47.9125 28.9999C51.9125 28.9999 55.0125 26.2999 55.6125 22.2999C56.2125 18.6999 53.8125 14.9999 50.3125 13.8999C49.4125 13.5999 48.5125 13.4999 47.6125 13.4999C32.2125 13.4999 16.9125 13.4999 1.5125 13.4999C0.4125 13.4999 -0.0875 13.2999 0.0125 11.9999C0.1125 8.8999 0.1125 5.79991 0.0125 2.69991C0.0125 1.69991 0.312503 1.3999 1.3125 1.3999C9.4125 1.4999 17.5125 1.49991 25.6125 1.59991C25.6125 1.49991 25.6125 1.59991 25.6125 1.59991Z" fill="#FDFFFF"/>
<path d="M120.512 43.3999C120.512 35.8999 120.512 28.3999 120.512 20.9999C120.512 9.99992 128.712 1.39992 139.712 0.899918C144.712 0.699918 149.212 2.29992 153.012 5.49992C153.812 6.19992 154.312 6.29992 155.212 5.49992C161.212 0.599916 167.912 -0.600079 175.112 2.19992C182.212 4.99992 186.412 10.4999 187.512 18.0999C187.712 19.1999 187.712 20.2999 187.712 21.3999C187.712 36.5999 187.712 51.7999 187.712 66.8999C187.712 68.0999 187.412 68.3999 186.212 68.3999C183.212 68.2999 180.212 68.2999 177.212 68.3999C175.912 68.3999 175.712 67.9999 175.712 66.7999C175.712 51.4999 175.712 36.1999 175.712 20.8999C175.712 16.3999 172.412 12.8999 168.012 12.8999C163.612 12.8999 160.212 16.3999 160.212 20.9999C160.212 36.2999 160.212 51.5999 160.212 66.8999C160.212 68.1999 159.812 68.4999 158.612 68.4999C155.612 68.3999 152.712 68.3999 149.712 68.4999C148.512 68.4999 148.212 68.1999 148.212 66.9999C148.212 51.5999 148.212 36.2999 148.212 20.8999C148.212 17.5999 146.712 15.1999 143.812 13.6999C138.712 11.0999 132.612 14.7999 132.612 20.5999C132.612 36.0999 132.612 51.4999 132.612 66.9999C132.612 68.1999 132.312 68.5999 131.112 68.4999C128.012 68.3999 124.912 68.3999 121.812 68.4999C120.812 68.4999 120.512 68.1999 120.512 67.1999C120.512 59.2999 120.512 51.2999 120.512 43.3999Z" fill="#FDFFFF"/>
<path d="M73.9125 26.3998C73.9125 18.5998 73.9125 10.6998 73.9125 2.89981C73.9125 1.69981 74.2125 1.4998 75.4125 1.4998C78.5125 1.5998 81.6125 1.5998 84.7125 1.4998C85.8125 1.4998 86.0125 1.89981 86.0125 2.89981C86.0125 18.2998 86.0125 33.6998 86.0125 49.0998C86.0125 53.5998 89.4125 57.0998 93.8125 57.0998C98.2125 57.0998 101.612 53.5998 101.612 49.0998C101.612 33.6998 101.612 18.3998 101.612 2.9998C101.612 1.8998 101.812 1.3998 103.112 1.4998C106.212 1.5998 109.312 1.5998 112.412 1.4998C113.312 1.4998 113.712 1.69981 113.712 2.69981C113.712 18.2998 113.712 33.8998 113.712 49.4998C113.712 59.9998 105.812 68.1998 95.1125 69.0998C85.4125 69.8998 76.3125 62.6998 74.5125 52.7998C74.3125 51.5998 74.2125 50.3998 74.2125 49.0998C73.9125 41.4998 73.9125 33.9998 73.9125 26.3998Z" fill="#FDFFFF"/>
<path d="M194.313 43.5999C194.313 36.0999 194.313 28.5999 194.313 20.9999C194.313 11.0999 200.913 3.09987 210.713 1.19987C221.713 -0.900133 232.913 7.49987 233.713 18.6999C233.813 19.9999 233.813 21.1999 233.813 22.4999C233.813 37.2999 233.813 52.0999 233.813 66.8999C233.813 68.1999 233.513 68.4999 232.213 68.4999C229.213 68.3999 226.213 68.3999 223.213 68.4999C222.113 68.4999 221.813 68.1999 221.813 67.0999C221.813 51.6999 221.813 36.2999 221.813 20.8999C221.813 16.6999 218.913 13.4999 214.613 12.9999C210.913 12.5999 207.213 15.2999 206.313 19.0999C206.213 19.6999 206.213 20.3999 206.213 20.9999C206.213 36.2999 206.213 51.5999 206.213 66.9999C206.213 68.1999 205.913 68.5999 204.613 68.5999C201.513 68.4999 198.513 68.4999 195.413 68.5999C194.313 68.5999 194.013 68.2999 194.113 67.1999C194.313 59.2999 194.313 51.3999 194.313 43.5999Z" fill="#FDFFFF"/>
<path d="M276.713 36.2999C276.713 32.9999 276.813 29.6999 276.713 26.4999C276.713 25.0999 277.513 25.3999 278.313 25.3999C279.213 25.2999 279.713 25.3999 279.713 26.5999C279.613 30.9999 279.713 35.3999 279.613 39.8999C279.613 40.4999 280.013 41.3999 279.313 41.5999C278.413 41.7999 277.413 41.7999 276.713 40.9999C275.113 39.0999 273.413 37.1999 271.813 35.2999C270.513 33.7999 269.213 32.2999 267.913 30.6999C267.513 30.9999 267.713 31.3999 267.713 31.6999C267.713 34.6999 267.613 37.6999 267.713 40.6999C267.713 41.7999 267.113 41.7999 266.413 41.6999C265.813 41.5999 264.813 42.1999 264.813 40.7999C264.813 35.9999 264.813 31.1999 264.813 26.3999C264.813 26.0999 264.613 25.4999 265.213 25.4999C266.013 25.4999 266.913 25.1999 267.613 25.7999C267.913 26.0999 268.213 26.3999 268.413 26.6999C270.913 29.5999 273.313 32.3999 275.813 35.2999C275.913 35.5999 276.213 36.0999 276.713 36.2999Z" fill="#FDFFFF"/>
<path d="M314.113 57.0999C314.113 60.6999 314.013 63.9999 314.113 67.1999C314.113 68.5999 313.313 68.2999 312.513 68.2999C311.713 68.2999 311.013 68.3999 311.113 67.1999C311.213 62.7999 311.113 58.3999 311.213 53.8999C311.213 53.2999 310.813 52.3999 311.513 52.1999C312.513 51.9999 313.513 51.8999 314.313 52.8999C316.413 55.4999 318.713 57.9999 320.913 60.5999C321.613 61.3999 322.313 62.1999 323.013 62.9999C323.513 62.7999 323.213 62.3999 323.213 62.0999C323.213 59.0999 323.313 56.1999 323.213 53.1999C323.213 51.8999 324.013 52.1999 324.713 52.1999C325.413 52.1999 326.213 51.8999 326.213 53.1999C326.113 57.6999 326.213 62.1999 326.213 66.6999C326.213 67.1999 326.613 67.9999 325.813 68.1999C325.013 68.3999 324.113 68.4999 323.513 67.8999C323.113 67.5999 322.813 67.1999 322.513 66.7999C319.713 63.6999 317.013 60.4999 314.113 57.0999Z" fill="#FDFFFF"/>
<path d="M299.013 68.5C295.713 68.4 292.712 67.2 291.112 63.8C289.712 60.7 290.012 57.7 292.112 55.1C294.412 52.2 299.113 51.2 303.013 52.7C308.113 54.6 309.912 60.8999 306.712 65.1999C304.812 67.5999 302.313 68.4 299.013 68.5ZM304.812 60.2C304.812 56.7 302.612 54.5 299.212 54.5C295.812 54.5 293.612 56.7 293.612 60.2C293.612 63.7 295.812 65.9 299.312 65.9C302.812 65.9 304.812 63.7 304.812 60.2Z" fill="#FDFFFF"/>
<path d="M272.613 60.2C272.613 57.9 272.613 55.6 272.613 53.2C272.613 52.3 272.913 52.1 273.813 52.1C275.813 52.2 277.813 52.1 279.813 52.1C284.813 52.2 288.313 55.4 288.413 59.8C288.513 64.6 285.313 67.9 280.213 68.2C278.013 68.3 275.713 68.2 273.513 68.3C272.713 68.3 272.713 67.9 272.713 67.3C272.613 65 272.613 62.6 272.613 60.2ZM275.913 60.2C275.913 60.8 275.913 61.5 275.913 62.1C275.913 66.2 275.913 66.2 280.113 65.8C283.013 65.5 284.913 63.4 285.013 60.4C285.113 57.2 283.413 55 280.413 54.6C279.213 54.5 278.013 54.5 276.813 54.5C276.113 54.5 275.813 54.7 275.913 55.4C276.013 57 275.913 58.6 275.913 60.2Z" fill="#FDFFFF"/>
<path d="M256.613 57.1C256.613 60.7 256.513 63.9999 256.613 67.2999C256.613 68.5999 255.913 68.4 255.113 68.4C254.313 68.4 253.613 68.5999 253.613 67.2999C253.713 62.7999 253.613 58.2999 253.713 53.7999C253.713 53.2999 253.313 52.3999 254.113 52.2999C254.913 52.1999 255.813 51.8999 256.513 52.6999C257.313 53.5999 258.113 54.5999 258.913 55.4999C261.113 58.0999 263.313 60.6 265.713 63.4C265.713 60.7 265.713 58.2999 265.713 55.7999C265.713 54.9999 265.813 54.1999 265.713 53.4999C265.613 52.3999 266.013 52.1999 267.113 52.1999C268.413 52.0999 268.713 52.4999 268.713 53.7999C268.613 58.0999 268.713 62.4999 268.713 66.7999C268.713 67.2999 269.113 68.2 268.413 68.4C267.613 68.6 266.613 68.7 265.813 67.9C265.213 67.2 264.613 66.4999 264.013 65.7999C261.613 62.8999 259.213 60.1 256.613 57.1Z" fill="#FDFFFF"/>
<path d="M331.713 41.4999C331.013 41.4999 330.713 41.4999 330.513 41.4999C328.713 41.6999 327.413 41.1999 326.313 39.5999C325.313 38.0999 323.913 36.6999 322.713 35.2999C322.513 35.0999 322.313 34.7999 322.013 34.5999C321.413 34.1999 320.713 34.1999 320.213 34.3999C319.613 34.5999 319.913 35.2999 319.913 35.6999C319.913 37.2999 319.913 38.8999 319.913 40.4999C319.913 41.1999 319.813 41.4999 319.013 41.4999C316.613 41.5999 316.613 41.5999 316.613 39.1999C316.613 34.9999 316.613 30.6999 316.613 26.4999C316.613 25.5999 316.813 25.1999 317.813 25.2999C318.213 25.3999 318.513 25.3999 318.913 25.2999C319.813 25.1999 320.013 25.4999 320.013 26.3999C319.913 27.8999 319.913 29.2999 320.013 30.7999C320.013 31.1999 319.613 31.8999 320.313 32.0999C320.913 32.1999 321.613 32.1999 322.113 31.5999C322.913 30.5999 323.813 29.6999 324.613 28.6999C325.013 28.2999 325.413 27.8999 325.713 27.4999C326.913 25.3999 328.813 25.0999 331.213 25.5999C328.913 28.0999 326.713 30.5999 324.613 32.9999C327.013 35.4999 329.113 38.4999 331.713 41.4999Z" fill="#FDFFFF"/>
<path d="M312.812 30.9998C312.812 32.3998 312.812 33.6998 312.812 35.0998C312.812 35.8998 312.712 36.5998 312.412 37.3998C311.312 40.4998 308.012 42.0998 303.912 41.5998C300.612 41.1998 298.312 38.7998 298.112 35.4998C298.012 32.3998 298.112 29.2998 298.012 26.1998C298.012 25.4998 298.212 25.3998 298.912 25.2998C301.412 25.1998 301.412 25.1998 301.412 27.5998C301.412 30.0998 301.412 32.4998 301.412 34.9998C301.412 37.5998 303.012 39.0998 305.512 39.0998C308.012 39.0998 309.512 37.5998 309.512 34.8998C309.512 32.0998 309.512 29.2998 309.512 26.5998C309.512 25.6998 309.712 25.1998 310.712 25.3998C311.012 25.3998 311.312 25.3998 311.712 25.3998C312.712 25.2998 313.012 25.5998 312.912 26.5998C312.712 27.9998 312.812 29.4998 312.812 30.9998Z" fill="#FDFFFF"/>
<path d="M260.913 30.7998C260.913 32.2998 260.913 33.6998 260.913 35.1998C260.813 37.9998 259.313 40.1998 256.613 41.0998C254.613 41.7998 252.513 41.7998 250.413 41.0998C247.613 40.0998 246.213 37.9998 246.113 35.1998C246.013 32.1998 246.113 29.1998 246.113 26.1998C246.113 25.3998 246.413 25.2998 247.113 25.2998C249.413 25.1998 249.413 25.1998 249.413 27.4998C249.413 29.9998 249.413 32.3998 249.413 34.8998C249.513 37.9998 251.813 39.6998 254.813 38.7998C256.513 38.2998 257.513 36.9998 257.513 34.9998C257.513 32.0998 257.613 29.2998 257.513 26.3998C257.513 25.4998 257.813 25.1998 258.713 25.2998H258.813C260.813 25.2998 260.813 25.2998 260.813 27.2998C260.913 28.4998 260.913 29.6998 260.913 30.7998Z" fill="#FDFFFF"/>
<path d="M380.212 68.2999C379.912 68.2999 379.712 68.3999 379.612 68.3999C376.912 68.3999 376.812 68.4999 375.912 65.8999C375.512 64.6999 374.812 64.1999 373.512 64.2999C372.012 64.3999 370.412 64.3999 368.812 64.2999C368.012 64.2999 367.612 64.4999 367.412 65.2999C367.412 65.3999 367.312 65.5999 367.212 65.6999C366.012 68.4999 366.812 68.4999 362.912 68.3999C362.812 67.9999 363.112 67.5999 363.212 67.2999C365.212 62.5999 367.312 57.9999 369.212 53.2999C369.812 51.8999 370.812 52.4999 371.712 52.3999C372.512 52.2999 373.112 52.3999 373.512 53.3999C375.812 58.1999 378.012 63.0999 380.212 68.2999ZM371.512 55.1999C370.612 57.2999 369.812 59.2999 369.012 61.2999C368.712 61.9999 368.912 62.1999 369.612 62.1999C370.912 62.1999 372.112 62.1999 373.412 62.1999C374.012 62.1999 374.212 61.9999 374.012 61.3999C373.212 59.3999 372.412 57.2999 371.512 55.1999Z" fill="#FDFFFF"/>
<path d="M330.113 60.2C330.113 57.9 330.113 55.5999 330.113 53.3999C330.113 52.5999 330.213 52.2 331.213 52.2C334.213 52.3 337.213 52.3 340.213 52.2C341.213 52.2 341.313 52.4999 341.313 53.3999C341.313 54.2999 341.113 54.7 340.113 54.6C338.213 54.5 336.413 54.6 334.513 54.6C333.613 54.6 333.413 54.8999 333.413 55.7999C333.413 59.1999 333.313 59.2 336.713 59.2C337.213 59.2 337.813 59.3 338.313 59.2C339.413 59 339.713 59.4999 339.613 60.4999C339.613 61.2999 339.313 61.4999 338.613 61.4999C337.213 61.3999 335.813 61.4999 334.413 61.4999C333.613 61.4999 333.413 61.7999 333.413 62.4999C333.313 66.0999 333.313 66.1 336.913 66.1C338.113 66.1 339.413 66.2 340.613 66.1C341.513 66 341.413 66.6 341.313 67.1C341.213 67.6 341.813 68.4999 340.613 68.4999C337.413 68.4999 334.113 68.4999 330.913 68.4999C330.213 68.4999 330.113 68.1 330.113 67.6C330.113 65 330.113 62.6 330.113 60.2Z" fill="#FDFFFF"/>
<path d="M348.812 68.4999C346.912 68.4999 345.212 68.0999 343.812 67.0999C343.412 66.7999 342.512 66.6999 343.212 65.7999C343.712 65.0999 344.112 63.9999 345.312 64.7999C346.612 65.6999 348.012 66.0999 349.612 65.8999C350.412 65.7999 351.012 65.4999 351.412 64.8999C352.112 63.7999 351.812 62.5999 350.612 61.9999C349.512 61.3999 348.312 61.2999 347.212 60.8999C344.612 60.0999 343.412 58.5999 343.512 56.3999C343.612 54.1999 345.212 52.5999 347.712 51.9999C349.712 51.5999 351.712 51.8999 353.512 52.8999C354.012 53.1999 354.712 53.3999 354.112 54.1999C353.612 54.7999 353.412 55.7999 352.312 55.1999C351.312 54.5999 350.212 54.1999 348.912 54.2999C348.212 54.3999 347.512 54.5999 347.012 55.1999C346.312 56.0999 346.612 57.1999 347.612 57.6999C348.612 58.1999 349.612 58.4999 350.712 58.7999C354.012 59.8999 355.012 61.1999 354.812 63.6999C354.512 66.2999 352.512 67.9999 349.512 68.1999C349.212 68.4999 348.912 68.4999 348.812 68.4999Z" fill="#FDFFFF"/>
<path d="M289.013 25.2998C291.113 25.2998 293.113 25.2998 295.213 25.2998C296.313 25.2998 296.113 25.8998 296.113 26.4998C296.113 27.0998 296.413 27.7998 295.213 27.7998C294.113 27.6998 292.913 27.7998 291.813 27.7998C290.913 27.6998 290.713 28.0998 290.713 28.9998C290.713 32.6998 290.713 36.4998 290.713 40.1998C290.713 41.2998 290.513 41.6998 289.413 41.4998C289.113 41.3998 288.813 41.4998 288.413 41.4998C287.513 41.5998 287.313 41.1998 287.313 40.3998C287.313 36.5998 287.313 32.7998 287.313 29.0998C287.313 28.0998 287.113 27.6998 286.013 27.7998C284.913 27.8998 283.813 27.7998 282.713 27.7998C281.613 27.7998 282.013 26.9998 281.913 26.4998C281.913 25.8998 281.713 25.2998 282.713 25.2998C284.813 25.3998 286.913 25.2998 289.013 25.2998Z" fill="#FDFFFF"/>
<path d="M249.712 60.1999C249.712 62.5999 249.712 64.8999 249.712 67.2999C249.712 68.0999 249.612 68.3999 248.712 68.3999C246.412 68.3999 246.412 68.3999 246.412 66.0999C246.412 61.8999 246.412 57.5999 246.412 53.3999C246.412 52.4999 246.612 51.9999 247.612 52.1999C247.912 52.1999 248.212 52.1999 248.412 52.1999C249.412 51.9999 249.812 52.3999 249.812 53.4999C249.612 55.6999 249.712 57.8999 249.712 60.1999Z" fill="#FDFFFF"/>
<path d="M361.013 60.2999C361.013 62.5999 361.013 64.9 361.013 67.2999C361.013 68.1999 360.713 68.4 359.913 68.4C357.713 68.4 357.713 68.4 357.713 66.2999C357.713 61.9999 357.713 57.6999 357.713 53.4999C357.713 52.3999 358.013 52.2 359.013 52.2C361.013 52.3 361.013 52.1999 361.013 54.2999C361.013 56.2999 361.013 58.2999 361.013 60.2999Z" fill="#FDFFFF"/>
</svg>
