<svg width="279" height="319" viewBox="0 0 279 319" fill="none" xmlns="http://www.w3.org/2000/svg">
<path d="M279 232.739V85.3135C279 83.2763 278.462 81.2752 277.442 79.5112C276.421 77.7472 274.953 76.2826 273.186 75.2646L145.31 1.55552C143.544 0.536478 141.54 0 139.5 0C137.46 0 135.456 0.536478 133.69 1.55552L5.81394 75.2646C4.04658 76.2826 2.57884 77.7472 1.55826 79.5112C0.53768 81.2752 0.000201565 83.2763 0 85.3135V232.739C0.000403459 234.777 0.537856 236.779 1.55835 238.545C2.57884 240.31 4.04651 241.776 5.81394 242.795L133.69 316.504C135.456 317.523 137.46 318.06 139.5 318.06C141.54 318.06 143.544 317.523 145.31 316.504L273.186 242.795C274.953 241.776 276.421 240.31 277.442 238.545C278.462 236.779 279 234.777 279 232.739V232.739Z" fill="url(#paint0_linear_430_36)"/>
<path d="M266.724 106.963V212.184C266.724 218.593 265.044 224.888 261.852 230.439C258.66 235.991 254.069 240.602 248.539 243.812L157.686 296.422C152.159 299.63 145.886 301.319 139.5 301.319C133.115 301.319 126.842 299.63 121.315 296.422L30.4618 243.812C24.932 240.602 20.341 235.991 17.1491 230.439C13.9572 224.888 12.2767 218.593 12.2764 212.184V106.963C12.2737 100.558 13.9531 94.2654 17.1455 88.7184C20.338 83.1714 24.9308 78.5659 30.4618 75.3654L121.315 22.7249C126.848 19.5345 133.118 17.8555 139.5 17.8555C145.882 17.8555 152.153 19.5345 157.686 22.7249L248.539 75.3654C254.07 78.5659 258.663 83.1714 261.855 88.7184C265.048 94.2654 266.727 100.558 266.724 106.963V106.963Z" fill="url(#paint1_linear_430_36)"/>
<path d="M38.8098 156.51C37.0815 156.51 35.478 156.241 33.9996 155.703C32.5419 155.145 31.2717 154.359 30.1888 153.345C29.1268 152.331 28.2939 151.142 27.69 149.777C27.0861 148.391 26.7842 146.871 26.7842 145.216C26.7842 143.561 27.0861 142.051 27.69 140.686C28.2939 139.3 29.1268 138.1 30.1888 137.087C31.2717 136.073 32.5419 135.297 33.9996 134.76C35.478 134.201 37.0815 133.922 38.8098 133.922C40.8297 133.922 42.631 134.274 44.2136 134.977C45.817 135.68 47.1497 136.694 48.2117 138.017L44.276 141.555C43.568 140.727 42.7871 140.096 41.9334 139.662C41.1004 139.228 40.1634 139.01 39.1222 139.01C38.2268 139.01 37.4042 139.155 36.6546 139.445C35.9049 139.734 35.2594 140.158 34.718 140.717C34.1974 141.255 33.7809 141.906 33.4686 142.672C33.177 143.437 33.0313 144.285 33.0313 145.216C33.0313 146.147 33.177 146.995 33.4686 147.76C33.7809 148.525 34.1974 149.187 34.718 149.746C35.2594 150.284 35.9049 150.697 36.6546 150.987C37.4042 151.277 38.2268 151.421 39.1222 151.421C40.1634 151.421 41.1004 151.204 41.9334 150.77C42.7871 150.335 43.568 149.704 44.276 148.877L48.2117 152.414C47.1497 153.717 45.817 154.731 44.2136 155.455C42.631 156.158 40.8297 156.51 38.8098 156.51Z" fill="#4C4C4C"/>
<path d="M61.5378 156.51C59.7886 156.51 58.1747 156.231 56.6963 155.672C55.2178 155.114 53.9267 154.328 52.8231 153.314C51.7402 152.28 50.8969 151.08 50.293 149.715C49.6891 148.35 49.3872 146.85 49.3872 145.216C49.3872 143.582 49.6891 142.082 50.293 140.717C50.8969 139.352 51.7402 138.162 52.8231 137.149C53.9267 136.114 55.2178 135.318 56.6963 134.76C58.1747 134.201 59.7886 133.922 61.5378 133.922C63.3078 133.922 64.9216 134.201 66.3793 134.76C67.8577 135.318 69.1384 136.114 70.2212 137.149C71.304 138.162 72.1474 139.352 72.7513 140.717C73.376 142.082 73.6884 143.582 73.6884 145.216C73.6884 146.85 73.376 148.36 72.7513 149.746C72.1474 151.111 71.304 152.3 70.2212 153.314C69.1384 154.328 67.8577 155.114 66.3793 155.672C64.9216 156.231 63.3078 156.51 61.5378 156.51ZM61.5378 151.421C62.3707 151.421 63.1412 151.277 63.8492 150.987C64.578 150.697 65.2027 150.284 65.7233 149.746C66.2647 149.187 66.6812 148.525 66.9727 147.76C67.2851 146.995 67.4413 146.147 67.4413 145.216C67.4413 144.264 67.2851 143.416 66.9727 142.672C66.6812 141.906 66.2647 141.255 65.7233 140.717C65.2027 140.158 64.578 139.734 63.8492 139.445C63.1412 139.155 62.3707 139.01 61.5378 139.01C60.7048 139.01 59.9239 139.155 59.1951 139.445C58.4871 139.734 57.8624 140.158 57.321 140.717C56.8004 141.255 56.3839 141.906 56.0716 142.672C55.78 143.416 55.6343 144.264 55.6343 145.216C55.6343 146.147 55.78 146.995 56.0716 147.76C56.3839 148.525 56.8004 149.187 57.321 149.746C57.8624 150.284 58.4871 150.697 59.1951 150.987C59.9239 151.277 60.7048 151.421 61.5378 151.421Z" fill="#4C4C4C"/>
<path d="M85.3304 149.498V144.968H94.4511V149.498H85.3304Z" fill="#4C4C4C"/>
<path d="M107.217 156.075V134.356H117.213C119.212 134.356 120.93 134.677 122.367 135.318C123.824 135.959 124.949 136.89 125.74 138.111C126.531 139.31 126.927 140.738 126.927 142.392C126.927 144.026 126.531 145.443 125.74 146.643C124.949 147.843 123.824 148.774 122.367 149.436C120.93 150.077 119.212 150.397 117.213 150.397H110.653L113.402 147.729V156.075H107.217ZM113.402 148.381L110.653 145.557H116.838C118.129 145.557 119.087 145.278 119.712 144.719C120.357 144.161 120.68 143.385 120.68 142.392C120.68 141.379 120.357 140.593 119.712 140.034C119.087 139.476 118.129 139.197 116.838 139.197H110.653L113.402 136.373V148.381Z" fill="#4C4C4C"/>
<path d="M129.942 156.075V134.356H139.938C141.937 134.356 143.655 134.677 145.092 135.318C146.549 135.959 147.674 136.89 148.465 138.111C149.256 139.31 149.652 140.738 149.652 142.392C149.652 144.026 149.256 145.443 148.465 146.643C147.674 147.822 146.549 148.732 145.092 149.374C143.655 149.994 141.937 150.304 139.938 150.304H133.378L136.127 147.729V156.075H129.942ZM143.467 156.075L138.032 148.163H144.623L150.089 156.075H143.467ZM136.127 148.381L133.378 145.557H139.563C140.854 145.557 141.812 145.278 142.437 144.719C143.082 144.161 143.405 143.385 143.405 142.392C143.405 141.379 143.082 140.593 142.437 140.034C141.812 139.476 140.854 139.197 139.563 139.197H133.378L136.127 136.373V148.381Z" fill="#4C4C4C"/>
<path d="M164.09 156.51C162.341 156.51 160.727 156.231 159.249 155.672C157.77 155.114 156.479 154.328 155.375 153.314C154.293 152.28 153.449 151.08 152.845 149.715C152.241 148.35 151.939 146.85 151.939 145.216C151.939 143.582 152.241 142.082 152.845 140.717C153.449 139.352 154.293 138.162 155.375 137.149C156.479 136.114 157.77 135.318 159.249 134.76C160.727 134.201 162.341 133.922 164.09 133.922C165.86 133.922 167.474 134.201 168.932 134.76C170.41 135.318 171.691 136.114 172.774 137.149C173.856 138.162 174.7 139.352 175.304 140.717C175.928 142.082 176.241 143.582 176.241 145.216C176.241 146.85 175.928 148.36 175.304 149.746C174.7 151.111 173.856 152.3 172.774 153.314C171.691 154.328 170.41 155.114 168.932 155.672C167.474 156.231 165.86 156.51 164.09 156.51ZM164.09 151.421C164.923 151.421 165.693 151.277 166.401 150.987C167.13 150.697 167.755 150.284 168.276 149.746C168.817 149.187 169.234 148.525 169.525 147.76C169.837 146.995 169.994 146.147 169.994 145.216C169.994 144.264 169.837 143.416 169.525 142.672C169.234 141.906 168.817 141.255 168.276 140.717C167.755 140.158 167.13 139.734 166.401 139.445C165.693 139.155 164.923 139.01 164.09 139.01C163.257 139.01 162.476 139.155 161.747 139.445C161.039 139.734 160.415 140.158 159.873 140.717C159.353 141.255 158.936 141.906 158.624 142.672C158.332 143.416 158.187 144.264 158.187 145.216C158.187 146.147 158.332 146.995 158.624 147.76C158.936 148.525 159.353 149.187 159.873 149.746C160.415 150.284 161.039 150.697 161.747 150.987C162.476 151.277 163.257 151.421 164.09 151.421Z" fill="#4C4C4C"/>
<path d="M183.801 156.51C182.198 156.51 180.74 156.241 179.428 155.703C178.137 155.145 177.065 154.348 176.211 153.314L179.585 149.342C180.168 150.087 180.772 150.656 181.396 151.049C182.021 151.421 182.677 151.607 183.364 151.607C185.197 151.607 186.113 150.553 186.113 148.443V139.103H178.554V134.356H192.235V148.07C192.235 150.904 191.517 153.024 190.08 154.431C188.643 155.817 186.55 156.51 183.801 156.51Z" fill="#4C4C4C"/>
<path d="M202.094 142.765H212.246V147.357H202.094V142.765ZM202.531 151.328H213.964V156.075H196.409V134.356H213.558V139.103H202.531V151.328Z" fill="#4C4C4C"/>
<path d="M228.297 156.51C226.568 156.51 224.965 156.241 223.486 155.703C222.029 155.145 220.759 154.359 219.676 153.345C218.614 152.331 217.781 151.142 217.177 149.777C216.573 148.391 216.271 146.871 216.271 145.216C216.271 143.561 216.573 142.051 217.177 140.686C217.781 139.3 218.614 138.1 219.676 137.087C220.759 136.073 222.029 135.297 223.486 134.76C224.965 134.201 226.568 133.922 228.297 133.922C230.317 133.922 232.118 134.274 233.7 134.977C235.304 135.68 236.637 136.694 237.699 138.017L233.763 141.555C233.055 140.727 232.274 140.096 231.42 139.662C230.587 139.228 229.65 139.01 228.609 139.01C227.714 139.01 226.891 139.155 226.141 139.445C225.392 139.734 224.746 140.158 224.205 140.717C223.684 141.255 223.268 141.906 222.955 142.672C222.664 143.437 222.518 144.285 222.518 145.216C222.518 146.147 222.664 146.995 222.955 147.76C223.268 148.525 223.684 149.187 224.205 149.746C224.746 150.284 225.392 150.697 226.141 150.987C226.891 151.277 227.714 151.421 228.609 151.421C229.65 151.421 230.587 151.204 231.42 150.77C232.274 150.335 233.055 149.704 233.763 148.877L237.699 152.414C236.637 153.717 235.304 154.731 233.7 155.455C232.118 156.158 230.317 156.51 228.297 156.51Z" fill="#4C4C4C"/>
<path d="M244.927 156.075V139.228H238.212V134.356H257.796V139.228H251.112V156.075H244.927Z" fill="#4C4C4C"/>
<path d="M62.591 193.751V172.032H67.6824L76.7406 186.801H74.0544L82.8628 172.032H87.9542L88.0166 193.751H82.3318L82.2693 180.627H83.2376L76.6469 191.611H73.8982L67.1201 180.627H68.3071V193.751H62.591Z" fill="#4C4C4C"/>
<path d="M89.769 193.751L99.4207 172.032H105.512L115.195 193.751H108.76L101.201 175.042H103.638L96.0786 193.751H89.769ZM95.0478 189.532L96.6408 185.002H107.323L108.916 189.532H95.0478Z" fill="#4C4C4C"/>
<path d="M116.948 193.751V172.032H122.039L134.096 186.491H131.691V172.032H137.751V193.751H132.659L120.603 179.293H123.008V193.751H116.948Z" fill="#4C4C4C"/>
<path d="M139.489 193.751L149.141 172.032H155.232L164.915 193.751H158.481L150.922 175.042H153.358L145.799 193.751H139.489ZM144.768 189.532L146.361 185.002H157.044L158.637 189.532H144.768Z" fill="#4C4C4C"/>
<path d="M177.296 194.186C175.567 194.186 173.964 193.917 172.486 193.379C171.007 192.821 169.726 192.035 168.644 191.021C167.582 190.008 166.749 188.818 166.145 187.453C165.541 186.067 165.239 184.547 165.239 182.892C165.239 181.237 165.541 179.727 166.145 178.362C166.749 176.976 167.592 175.776 168.675 174.763C169.758 173.749 171.038 172.974 172.517 172.436C174.016 171.877 175.651 171.598 177.421 171.598C179.482 171.598 181.325 171.939 182.949 172.622C184.574 173.304 185.917 174.287 186.979 175.569L183.043 179.107C182.294 178.3 181.481 177.7 180.607 177.307C179.753 176.893 178.795 176.686 177.733 176.686C176.796 176.686 175.942 176.831 175.172 177.121C174.401 177.41 173.745 177.834 173.204 178.393C172.663 178.931 172.236 179.582 171.923 180.348C171.632 181.092 171.486 181.94 171.486 182.892C171.486 183.802 171.632 184.64 171.923 185.405C172.236 186.17 172.663 186.832 173.204 187.391C173.745 187.929 174.391 188.353 175.141 188.663C175.911 188.953 176.754 189.097 177.671 189.097C178.587 189.097 179.482 188.953 180.357 188.663C181.232 188.353 182.117 187.836 183.012 187.112L186.479 191.424C185.23 192.314 183.782 192.996 182.137 193.472C180.492 193.948 178.878 194.186 177.296 194.186ZM181.013 190.618V182.427H186.479V191.424L181.013 190.618Z" fill="#4C4C4C"/>
<path d="M196.085 180.441H206.236V185.033H196.085V180.441ZM196.522 189.004H207.954V193.751H190.4V172.032H207.548V176.78H196.522V189.004Z" fill="#4C4C4C"/>
<path d="M211.386 193.751V172.032H221.382C223.381 172.032 225.099 172.353 226.536 172.994C227.993 173.635 229.118 174.566 229.909 175.787C230.7 176.986 231.096 178.414 231.096 180.068C231.096 181.703 230.7 183.119 229.909 184.319C229.118 185.498 227.993 186.408 226.536 187.05C225.099 187.67 223.381 187.98 221.382 187.98H214.822L217.571 185.405V193.751H211.386ZM224.911 193.751L219.476 185.84H226.067L231.533 193.751H224.911ZM217.571 186.057L214.822 183.233H221.007C222.298 183.233 223.256 182.954 223.881 182.395C224.526 181.837 224.849 181.061 224.849 180.068C224.849 179.055 224.526 178.269 223.881 177.71C223.256 177.152 222.298 176.873 221.007 176.873H214.822L217.571 174.049V186.057Z" fill="#4C4C4C"/>
<defs>
<linearGradient id="paint0_linear_430_36" x1="137.248" y1="53.1155" x2="141.545" y2="255.847" gradientUnits="userSpaceOnUse">
<stop stop-color="white"/>
<stop offset="0.11" stop-color="#FEFBF8"/>
<stop offset="0.27" stop-color="#F9EFE3"/>
<stop offset="0.46" stop-color="#F3DCC2"/>
<stop offset="0.68" stop-color="#EAC294"/>
<stop offset="0.91" stop-color="#DEA159"/>
<stop offset="1" stop-color="#D99341"/>
</linearGradient>
<linearGradient id="paint1_linear_430_36" x1="213.56" y1="287.406" x2="79.7805" y2="57.9894" gradientUnits="userSpaceOnUse">
<stop stop-color="white"/>
<stop offset="0.45" stop-color="#FCFDFD"/>
<stop offset="0.81" stop-color="#F2F5F6"/>
<stop offset="1" stop-color="#E9EEF0"/>
</linearGradient>
</defs>
</svg>
