<svg width="288" height="330" viewBox="0 0 288 330" fill="none" xmlns="http://www.w3.org/2000/svg">
<path d="M288 241.476V88.5161C288 86.4025 287.445 84.3262 286.392 82.496C285.338 80.6658 283.823 79.1462 281.999 78.0901L149.998 1.61391C148.174 0.556618 146.106 0 144 0C141.894 0 139.826 0.556618 138.002 1.61391L6.00149 78.0901C4.17712 79.1462 2.66203 80.6658 1.60853 82.496C0.555024 84.3262 0.000208067 86.4025 0 88.5161V241.476C0.000416474 243.591 0.555206 245.668 1.60862 247.5C2.66203 249.331 4.17704 250.852 6.00149 251.91L138.002 328.386C139.826 329.443 141.894 330 144 330C146.106 330 148.174 329.443 149.998 328.386L281.999 251.91C283.823 250.852 285.338 249.331 286.391 247.5C287.445 245.668 288 243.591 288 241.476V241.476Z" fill="url(#paint0_linear_430_37)"/>
<path d="M276 109.791V218.181C276 224.782 274.256 231.267 270.944 236.986C267.633 242.704 262.869 247.455 257.132 250.761L162.868 304.956C157.134 308.26 150.625 310 144 310C137.375 310 130.866 308.26 125.132 304.956L30.8681 250.761C25.1308 247.455 20.3674 242.704 17.0556 236.986C13.7439 231.267 12.0004 224.782 12 218.181V109.791C11.9972 103.193 13.7396 96.7109 17.052 90.9969C20.3643 85.2828 25.1295 80.5386 30.8681 77.2417L125.132 23.016C130.873 19.7296 137.378 18 144 18C150.622 18 157.127 19.7296 162.868 23.016L257.132 77.2417C262.87 80.5386 267.636 85.2828 270.948 90.9969C274.26 96.7109 276.003 103.193 276 109.791V109.791Z" fill="url(#paint1_linear_430_37)"/>
<path d="M31.3651 163.023H42.5385V168.277H31.3651V163.023ZM31.8494 176.519H25V152.481H43.9914V157.735H31.8494V176.519Z" fill="#4C4C4C"/>
<path d="M58.3683 177C54.7937 177 52.0032 176.027 49.9968 174.081C47.9904 172.135 46.9872 169.376 46.9872 165.805V152.481H53.8366V165.599C53.8366 167.659 54.2402 169.136 55.0474 170.029C55.8776 170.922 57.0076 171.368 58.4375 171.368C59.8673 171.368 60.9858 170.922 61.7929 170.029C62.6001 169.136 63.0037 167.659 63.0037 165.599V152.481H69.7493V165.805C69.7493 169.376 68.7461 172.135 66.7397 174.081C64.7333 176.027 61.9429 177 58.3683 177Z" fill="#4C4C4C"/>
<path d="M74.3893 176.519V152.481H80.0279L93.3808 168.484H90.7171V152.481H97.4281V176.519H91.7895L78.4367 160.516H81.1003V176.519H74.3893Z" fill="#4C4C4C"/>
<path d="M114.332 177C112.418 177 110.642 176.702 109.005 176.107C107.391 175.489 105.984 174.619 104.785 173.497C103.609 172.375 102.686 171.059 102.017 169.548C101.349 168.014 101.014 166.332 101.014 164.5C101.014 162.668 101.349 160.997 102.017 159.486C102.686 157.952 103.609 156.625 104.785 155.503C105.984 154.381 107.391 153.522 109.005 152.927C110.642 152.309 112.418 152 114.332 152C116.569 152 118.564 152.389 120.317 153.168C122.093 153.946 123.569 155.068 124.745 156.533L120.386 160.448C119.602 159.532 118.737 158.834 117.792 158.353C116.869 157.872 115.831 157.632 114.678 157.632C113.687 157.632 112.776 157.792 111.945 158.113C111.115 158.433 110.4 158.902 109.801 159.521C109.224 160.116 108.763 160.837 108.417 161.684C108.094 162.531 107.933 163.47 107.933 164.5C107.933 165.53 108.094 166.469 108.417 167.316C108.763 168.163 109.224 168.896 109.801 169.514C110.4 170.109 111.115 170.567 111.945 170.887C112.776 171.208 113.687 171.368 114.678 171.368C115.831 171.368 116.869 171.128 117.792 170.647C118.737 170.166 119.602 169.468 120.386 168.552L124.745 172.467C123.569 173.909 122.093 175.031 120.317 175.832C118.564 176.611 116.569 177 114.332 177Z" fill="#4C4C4C"/>
<path d="M132.75 176.519V157.872H125.313V152.481H147.003V157.872H139.6V176.519H132.75Z" fill="#4C4C4C"/>
<path d="M149.554 176.519V152.481H156.404V176.519H149.554Z" fill="#4C4C4C"/>
<path d="M173.488 177C171.551 177 169.763 176.691 168.126 176.073C166.489 175.455 165.059 174.585 163.837 173.463C162.637 172.318 161.703 170.99 161.035 169.479C160.366 167.968 160.031 166.309 160.031 164.5C160.031 162.691 160.366 161.032 161.035 159.521C161.703 158.01 162.637 156.693 163.837 155.571C165.059 154.427 166.489 153.545 168.126 152.927C169.763 152.309 171.551 152 173.488 152C175.448 152 177.236 152.309 178.85 152.927C180.487 153.545 181.906 154.427 183.105 155.571C184.304 156.693 185.238 158.01 185.907 159.521C186.599 161.032 186.945 162.691 186.945 164.5C186.945 166.309 186.599 167.98 185.907 169.514C185.238 171.025 184.304 172.341 183.105 173.463C181.906 174.585 180.487 175.455 178.85 176.073C177.236 176.691 175.448 177 173.488 177ZM173.488 171.368C174.41 171.368 175.264 171.208 176.048 170.887C176.855 170.567 177.547 170.109 178.123 169.514C178.723 168.896 179.184 168.163 179.507 167.316C179.853 166.469 180.026 165.53 180.026 164.5C180.026 163.447 179.853 162.508 179.507 161.684C179.184 160.837 178.723 160.116 178.123 159.521C177.547 158.902 176.855 158.433 176.048 158.113C175.264 157.792 174.41 157.632 173.488 157.632C172.565 157.632 171.701 157.792 170.894 158.113C170.109 158.433 169.418 158.902 168.818 159.521C168.241 160.116 167.78 160.837 167.434 161.684C167.111 162.508 166.95 163.447 166.95 164.5C166.95 165.53 167.111 166.469 167.434 167.316C167.78 168.163 168.241 168.896 168.818 169.514C169.418 170.109 170.109 170.567 170.894 170.887C171.701 171.208 172.565 171.368 173.488 171.368Z" fill="#4C4C4C"/>
<path d="M190.532 176.519V152.481H196.171L209.523 168.484H206.86V152.481H213.571V176.519H207.932L194.579 160.516H197.243V176.519H190.532Z" fill="#4C4C4C"/>
<path d="M215.496 176.519L226.185 152.481H232.931L243.655 176.519H236.529L228.157 155.812H230.856L222.484 176.519H215.496ZM221.343 171.849L223.107 166.835H234.937L236.702 171.849H221.343Z" fill="#4C4C4C"/>
<path d="M245.597 176.519V152.481H252.446V171.128H264V176.519H245.597Z" fill="#4C4C4C"/>
<defs>
<linearGradient id="paint0_linear_430_37" x1="141.676" y1="55.1094" x2="146.156" y2="265.451" gradientUnits="userSpaceOnUse">
<stop stop-color="white"/>
<stop offset="0.11" stop-color="#FEFBF8"/>
<stop offset="0.27" stop-color="#F9EFE3"/>
<stop offset="0.46" stop-color="#F3DCC2"/>
<stop offset="0.68" stop-color="#EAC294"/>
<stop offset="0.91" stop-color="#DEA159"/>
<stop offset="1" stop-color="#D99341"/>
</linearGradient>
<linearGradient id="paint1_linear_430_37" x1="220.84" y1="295.668" x2="83.5212" y2="58.4839" gradientUnits="userSpaceOnUse">
<stop stop-color="white"/>
<stop offset="0.45" stop-color="#FCFDFD"/>
<stop offset="0.81" stop-color="#F2F5F6"/>
<stop offset="1" stop-color="#E9EEF0"/>
</linearGradient>
</defs>
</svg>
