<svg width="297" height="284" viewBox="0 0 297 284" fill="none" xmlns="http://www.w3.org/2000/svg">
<path d="M141.225 2.26122L4.9455 101.261C2.89649 102.75 1.3712 104.849 0.588029 107.258C-0.195143 109.667 -0.19603 112.262 0.585496 114.671L52.6355 274.901C53.4205 277.309 54.9469 279.406 56.9964 280.893C59.0459 282.381 61.5133 283.181 64.0455 283.181H232.495C235.028 283.181 237.495 282.381 239.545 280.893C241.594 279.406 243.121 277.309 243.906 274.901L295.906 114.691C296.688 112.283 296.689 109.689 295.907 107.28C295.126 104.871 293.603 102.772 291.556 101.281L155.275 2.28122C153.233 0.801797 150.776 0.00360243 148.254 1.21649e-05C145.732 -0.0035781 143.272 0.787618 141.225 2.26122Z" fill="url(#paint0_linear_425_4)"/>
<path d="M143.476 27.2715L28.0256 111.152C26.6258 112.159 25.5814 113.585 25.0424 115.224C24.5034 116.862 24.4975 118.629 25.0256 120.272L69.1656 255.992C69.6978 257.631 70.7352 259.059 72.1292 260.072C73.5233 261.085 75.2023 261.631 76.9256 261.632H219.626C221.355 261.637 223.042 261.094 224.443 260.08C225.844 259.067 226.889 257.635 227.426 255.992L271.516 120.272C272.047 118.63 272.042 116.861 271.503 115.222C270.964 113.583 269.918 112.157 268.516 111.152L153.066 27.2715C151.671 26.2621 149.993 25.7188 148.271 25.7188C146.549 25.7188 144.871 26.2621 143.476 27.2715V27.2715Z" fill="url(#paint1_linear_425_4)"/>
<path d="M144.226 32.1209L32.4258 113.361C31.2498 114.216 30.3747 115.422 29.9256 116.805C29.4766 118.188 29.4766 119.678 29.9258 121.061L72.6158 252.511C73.0672 253.892 73.9437 255.096 75.1201 255.949C76.2965 256.802 77.7126 257.261 79.1658 257.261H217.426C218.879 257.263 220.296 256.804 221.473 255.951C222.65 255.097 223.526 253.893 223.976 252.511L266.686 121.061C267.135 119.678 267.135 118.188 266.686 116.805C266.237 115.422 265.362 114.216 264.186 113.361L152.316 32.1209C151.14 31.2679 149.724 30.8086 148.271 30.8086C146.818 30.8086 145.402 31.2679 144.226 32.1209V32.1209Z" fill="url(#paint2_linear_425_4)"/>
<path d="M81.9752 119.448C80.2045 119.448 78.5618 119.171 77.0472 118.616C75.5325 118.04 74.2205 117.229 73.1112 116.184C72.0232 115.139 71.1698 113.912 70.5512 112.504C69.9325 111.075 69.6232 109.507 69.6232 107.8C69.6232 106.093 69.9325 104.536 70.5512 103.128C71.1698 101.699 72.0338 100.461 73.1432 99.416C74.2525 98.3707 75.5645 97.5707 77.0792 97.016C78.6152 96.44 80.2898 96.152 82.1032 96.152C84.2152 96.152 86.1032 96.504 87.7672 97.208C89.4312 97.912 90.8072 98.9253 91.8952 100.248L87.8632 103.896C87.0952 103.064 86.2632 102.445 85.3672 102.04C84.4925 101.613 83.5112 101.4 82.4232 101.4C81.4632 101.4 80.5885 101.549 79.7992 101.848C79.0098 102.147 78.3378 102.584 77.7832 103.16C77.2285 103.715 76.7912 104.387 76.4712 105.176C76.1725 105.944 76.0232 106.819 76.0232 107.8C76.0232 108.739 76.1725 109.603 76.4712 110.392C76.7912 111.181 77.2285 111.864 77.7832 112.44C78.3378 112.995 78.9992 113.432 79.7672 113.752C80.5565 114.051 81.4205 114.2 82.3592 114.2C83.2978 114.2 84.2152 114.051 85.1112 113.752C86.0072 113.432 86.9138 112.899 87.8312 112.152L91.3832 116.6C90.1032 117.517 88.6205 118.221 86.9352 118.712C85.2498 119.203 83.5965 119.448 81.9752 119.448ZM85.7832 115.768V107.32H91.3832V116.6L85.7832 115.768ZM101.224 105.272H111.624V110.008H101.224V105.272ZM101.672 114.104H113.384V119H95.4002V96.6H112.968V101.496H101.672V114.104ZM116.9 119V96.6H122.116L134.468 111.512H132.004V96.6H138.212V119H132.996L120.644 104.088H123.108V119H116.9ZM148.505 105.272H158.905V110.008H148.505V105.272ZM148.953 114.104H160.665V119H142.681V96.6H160.249V101.496H148.953V114.104ZM164.181 119V96.6H174.421C176.469 96.6 178.229 96.9307 179.701 97.592C181.195 98.2533 182.347 99.2133 183.157 100.472C183.968 101.709 184.373 103.181 184.373 104.888C184.373 106.573 183.968 108.035 183.157 109.272C182.347 110.488 181.195 111.427 179.701 112.088C178.229 112.728 176.469 113.048 174.421 113.048H167.701L170.517 110.392V119H164.181ZM178.037 119L172.469 110.84H179.221L184.821 119H178.037ZM170.517 111.064L167.701 108.152H174.037C175.36 108.152 176.341 107.864 176.981 107.288C177.643 106.712 177.973 105.912 177.973 104.888C177.973 103.843 177.643 103.032 176.981 102.456C176.341 101.88 175.36 101.592 174.037 101.592H167.701L170.517 98.68V111.064ZM185.181 119L195.069 96.6H201.309L211.229 119H204.637L196.893 99.704H199.389L191.645 119H185.181ZM190.589 114.648L192.221 109.976H203.165L204.797 114.648H190.589ZM213.025 119V96.6H219.361V113.976H230.049V119H213.025ZM83.0252 159V136.6H89.3612V153.976H100.049V159H83.0252ZM108.38 145.272H118.78V150.008H108.38V145.272ZM108.828 154.104H120.54V159H102.556V136.6H120.124V141.496H108.828V154.104ZM124.056 159V136.6H134.648C137.123 136.6 139.299 137.059 141.176 137.976C143.054 138.893 144.515 140.184 145.56 141.848C146.627 143.512 147.16 145.496 147.16 147.8C147.16 150.083 146.627 152.067 145.56 153.752C144.515 155.416 143.054 156.707 141.176 157.624C139.299 158.541 137.123 159 134.648 159H124.056ZM130.392 153.944H134.392C135.672 153.944 136.782 153.709 137.72 153.24C138.68 152.749 139.427 152.045 139.96 151.128C140.494 150.189 140.76 149.08 140.76 147.8C140.76 146.499 140.494 145.389 139.96 144.472C139.427 143.555 138.68 142.861 137.72 142.392C136.782 141.901 135.672 141.656 134.392 141.656H130.392V153.944ZM161.694 159.448C159.923 159.448 158.281 159.171 156.766 158.616C155.251 158.04 153.939 157.229 152.83 156.184C151.742 155.139 150.889 153.912 150.27 152.504C149.651 151.075 149.342 149.507 149.342 147.8C149.342 146.093 149.651 144.536 150.27 143.128C150.889 141.699 151.753 140.461 152.862 139.416C153.971 138.371 155.283 137.571 156.798 137.016C158.334 136.44 160.009 136.152 161.822 136.152C163.934 136.152 165.822 136.504 167.486 137.208C169.15 137.912 170.526 138.925 171.614 140.248L167.582 143.896C166.814 143.064 165.982 142.445 165.086 142.04C164.211 141.613 163.23 141.4 162.142 141.4C161.182 141.4 160.307 141.549 159.518 141.848C158.729 142.147 158.057 142.584 157.502 143.16C156.947 143.715 156.51 144.387 156.19 145.176C155.891 145.944 155.742 146.819 155.742 147.8C155.742 148.739 155.891 149.603 156.19 150.392C156.51 151.181 156.947 151.864 157.502 152.44C158.057 152.995 158.718 153.432 159.486 153.752C160.275 154.051 161.139 154.2 162.078 154.2C163.017 154.2 163.934 154.051 164.83 153.752C165.726 153.432 166.633 152.899 167.55 152.152L171.102 156.6C169.822 157.517 168.339 158.221 166.654 158.712C164.969 159.203 163.315 159.448 161.694 159.448ZM165.502 155.768V147.32H171.102V156.6L165.502 155.768ZM180.943 145.272H191.343V150.008H180.943V145.272ZM181.391 154.104H193.103V159H175.119V136.6H192.687V141.496H181.391V154.104ZM196.619 159V136.6H206.859C208.907 136.6 210.667 136.931 212.139 137.592C213.632 138.253 214.784 139.213 215.595 140.472C216.406 141.709 216.811 143.181 216.811 144.888C216.811 146.573 216.406 148.035 215.595 149.272C214.784 150.488 213.632 151.427 212.139 152.088C210.667 152.728 208.907 153.048 206.859 153.048H200.139L202.955 150.392V159H196.619ZM210.475 159L204.907 150.84H211.659L217.259 159H210.475ZM202.955 151.064L200.139 148.152H206.475C207.798 148.152 208.779 147.864 209.419 147.288C210.08 146.712 210.411 145.912 210.411 144.888C210.411 143.843 210.08 143.032 209.419 142.456C208.779 141.88 207.798 141.592 206.475 141.592H200.139L202.955 138.68V151.064ZM147.315 199.448C145.608 199.448 144.083 199.181 142.739 198.648C141.395 198.093 140.328 197.336 139.539 196.376C138.771 195.416 138.387 194.339 138.387 193.144C138.387 191.971 138.643 190.925 139.155 190.008C139.688 189.091 140.499 188.248 141.587 187.48C142.696 186.712 144.104 185.976 145.811 185.272C146.941 184.781 147.827 184.344 148.467 183.96C149.107 183.576 149.555 183.213 149.811 182.872C150.088 182.509 150.227 182.147 150.227 181.784C150.227 181.336 150.077 180.973 149.779 180.696C149.48 180.419 149.032 180.28 148.435 180.28C147.816 180.28 147.325 180.44 146.963 180.76C146.621 181.08 146.451 181.475 146.451 181.944C146.451 182.221 146.504 182.499 146.611 182.776C146.739 183.053 146.973 183.373 147.315 183.736C147.677 184.099 148.179 184.568 148.819 185.144L160.627 195.64L157.363 199.384L144.051 187.512C143.325 186.872 142.728 186.253 142.259 185.656C141.811 185.059 141.469 184.461 141.235 183.864C141.021 183.267 140.915 182.659 140.915 182.04C140.915 180.888 141.224 179.885 141.843 179.032C142.461 178.157 143.336 177.485 144.467 177.016C145.597 176.525 146.92 176.28 148.435 176.28C149.821 176.28 151.027 176.493 152.051 176.92C153.096 177.347 153.907 177.965 154.483 178.776C155.059 179.587 155.347 180.547 155.347 181.656C155.347 182.637 155.091 183.533 154.579 184.344C154.088 185.155 153.32 185.901 152.275 186.584C151.251 187.267 149.939 187.939 148.339 188.6C147.357 189.005 146.568 189.411 145.971 189.816C145.395 190.221 144.979 190.637 144.723 191.064C144.467 191.469 144.339 191.939 144.339 192.472C144.339 192.899 144.477 193.293 144.755 193.656C145.032 194.019 145.427 194.307 145.939 194.52C146.451 194.712 147.059 194.808 147.763 194.808C149 194.808 150.141 194.509 151.187 193.912C152.232 193.293 153.128 192.397 153.875 191.224C154.643 190.051 155.165 188.632 155.443 186.968L160.339 188.44C159.869 190.637 159.016 192.557 157.779 194.2C156.563 195.843 155.059 197.133 153.267 198.072C151.496 198.989 149.512 199.448 147.315 199.448ZM115.366 226.424H125.702V231.32H115.366V226.424ZM115.814 239H109.478V216.6H127.046V221.496H115.814V239ZM130.01 239V216.6H140.25C142.298 216.6 144.058 216.931 145.53 217.592C147.023 218.253 148.175 219.213 148.986 220.472C149.796 221.709 150.202 223.181 150.202 224.888C150.202 226.573 149.796 228.035 148.986 229.272C148.175 230.509 147.023 231.469 145.53 232.152C144.058 232.813 142.298 233.144 140.25 233.144H133.53L136.346 230.392V239H130.01ZM136.346 231.064L133.53 228.152H139.866C141.188 228.152 142.17 227.864 142.81 227.288C143.471 226.712 143.802 225.912 143.802 224.888C143.802 223.843 143.471 223.032 142.81 222.456C142.17 221.88 141.188 221.592 139.866 221.592H133.53L136.346 218.68V231.064ZM161.475 239.448C159.641 239.448 157.87 239.224 156.163 238.776C154.478 238.307 153.102 237.709 152.035 236.984L154.115 232.312C155.118 232.952 156.27 233.485 157.571 233.912C158.894 234.317 160.206 234.52 161.507 234.52C162.382 234.52 163.086 234.445 163.619 234.296C164.153 234.125 164.537 233.912 164.771 233.656C165.027 233.379 165.155 233.059 165.155 232.696C165.155 232.184 164.921 231.779 164.451 231.48C163.982 231.181 163.374 230.936 162.627 230.744C161.881 230.552 161.049 230.36 160.131 230.168C159.235 229.976 158.329 229.731 157.411 229.432C156.515 229.133 155.694 228.749 154.947 228.28C154.201 227.789 153.593 227.16 153.123 226.392C152.654 225.603 152.419 224.611 152.419 223.416C152.419 222.072 152.782 220.856 153.507 219.768C154.254 218.68 155.363 217.805 156.835 217.144C158.307 216.483 160.142 216.152 162.339 216.152C163.811 216.152 165.251 216.323 166.659 216.664C168.089 216.984 169.358 217.464 170.467 218.104L168.515 222.808C167.449 222.232 166.393 221.805 165.347 221.528C164.302 221.229 163.289 221.08 162.307 221.08C161.433 221.08 160.729 221.176 160.195 221.368C159.662 221.539 159.278 221.773 159.043 222.072C158.809 222.371 158.691 222.712 158.691 223.096C158.691 223.587 158.915 223.981 159.363 224.28C159.833 224.557 160.441 224.792 161.187 224.984C161.955 225.155 162.787 225.336 163.683 225.528C164.601 225.72 165.507 225.965 166.403 226.264C167.321 226.541 168.153 226.925 168.899 227.416C169.646 227.885 170.243 228.515 170.691 229.304C171.161 230.072 171.395 231.043 171.395 232.216C171.395 233.517 171.022 234.723 170.275 235.832C169.55 236.92 168.451 237.795 166.979 238.456C165.529 239.117 163.694 239.448 161.475 239.448ZM174.322 239V216.6H180.658V233.976H191.346V239H174.322Z" fill="#4C4C4C"/>
<defs>
<linearGradient id="paint0_linear_425_4" x1="148.276" y1="4.27122" x2="148.276" y2="282.771" gradientUnits="userSpaceOnUse">
<stop offset="0.03" stop-color="#5193BB"/>
<stop offset="0.1" stop-color="#6794AB"/>
<stop offset="0.31" stop-color="#AA987B"/>
<stop offset="0.46" stop-color="#D49A5D"/>
<stop offset="0.54" stop-color="#E49B52"/>
<stop offset="0.6" stop-color="#DF9B55"/>
<stop offset="0.67" stop-color="#D29A5F"/>
<stop offset="0.74" stop-color="#BC996F"/>
<stop offset="0.81" stop-color="#9C9785"/>
<stop offset="0.89" stop-color="#7495A2"/>
<stop offset="0.97" stop-color="#4492C5"/>
<stop offset="0.98" stop-color="#3F92C8"/>
</linearGradient>
<linearGradient id="paint1_linear_425_4" x1="196.236" y1="298.692" x2="130.046" y2="48.9815" gradientUnits="userSpaceOnUse">
<stop stop-color="white"/>
<stop offset="0.45" stop-color="#FCFDFD"/>
<stop offset="0.81" stop-color="#F2F5F6"/>
<stop offset="1" stop-color="#E9EEF0"/>
</linearGradient>
<linearGradient id="paint2_linear_425_4" x1="84.1958" y1="117.141" x2="282.606" y2="273.941" gradientUnits="userSpaceOnUse">
<stop stop-color="white"/>
<stop offset="0.45" stop-color="#FCFDFD"/>
<stop offset="0.81" stop-color="#F2F5F6"/>
<stop offset="1" stop-color="#E9EEF0"/>
</linearGradient>
</defs>
</svg>
