<svg width="297" height="284" viewBox="0 0 297 284" fill="none" xmlns="http://www.w3.org/2000/svg">
<path d="M141.225 2.26122L4.9455 101.261C2.89649 102.75 1.3712 104.849 0.588029 107.258C-0.195143 109.667 -0.19603 112.262 0.585496 114.671L52.6355 274.901C53.4205 277.309 54.9469 279.406 56.9964 280.893C59.0459 282.381 61.5133 283.181 64.0455 283.181H232.495C235.028 283.181 237.495 282.381 239.545 280.893C241.594 279.406 243.121 277.309 243.906 274.901L295.906 114.691C296.688 112.283 296.689 109.689 295.907 107.28C295.126 104.871 293.603 102.772 291.556 101.281L155.275 2.28122C153.233 0.801797 150.776 0.00360243 148.254 1.21649e-05C145.732 -0.0035781 143.272 0.787618 141.225 2.26122Z" fill="url(#paint0_linear_442_7)"/>
<path d="M143.476 27.2715L28.0256 111.152C26.6258 112.159 25.5814 113.585 25.0424 115.224C24.5034 116.862 24.4975 118.629 25.0256 120.272L69.1656 255.992C69.6978 257.631 70.7352 259.059 72.1292 260.072C73.5233 261.085 75.2023 261.631 76.9256 261.632H219.626C221.355 261.637 223.042 261.094 224.443 260.08C225.844 259.067 226.889 257.635 227.426 255.992L271.516 120.272C272.047 118.63 272.042 116.861 271.503 115.222C270.964 113.583 269.918 112.157 268.516 111.152L153.066 27.2715C151.671 26.2621 149.993 25.7188 148.271 25.7188C146.549 25.7188 144.871 26.2621 143.476 27.2715V27.2715Z" fill="url(#paint1_linear_442_7)"/>
<path d="M144.226 32.1209L32.4258 113.361C31.2498 114.216 30.3747 115.422 29.9256 116.805C29.4766 118.188 29.4766 119.678 29.9258 121.061L72.6158 252.511C73.0672 253.892 73.9437 255.096 75.1201 255.949C76.2965 256.802 77.7126 257.261 79.1658 257.261H217.426C218.879 257.263 220.296 256.804 221.473 255.951C222.65 255.097 223.526 253.893 223.976 252.511L266.686 121.061C267.135 119.678 267.135 118.188 266.686 116.805C266.237 115.422 265.362 114.216 264.186 113.361L152.316 32.1209C151.14 31.2679 149.724 30.8086 148.271 30.8086C146.818 30.8086 145.402 31.2679 144.226 32.1209V32.1209Z" fill="url(#paint2_linear_442_7)"/>
<path d="M65.8293 132V116.796H59.8093V112.4H77.3653V116.796H71.3733V132H65.8293ZM84.5267 119.988H93.6267V124.132H84.5267V119.988ZM84.9187 127.716H95.1667V132H79.4307V112.4H94.8027V116.684H84.9187V127.716ZM108.015 132.392C106.466 132.392 105.029 132.149 103.703 131.664C102.397 131.16 101.258 130.451 100.287 129.536C99.3352 128.621 98.5885 127.548 98.0472 126.316C97.5059 125.065 97.2352 123.693 97.2352 122.2C97.2352 120.707 97.5059 119.344 98.0472 118.112C98.5885 116.861 99.3352 115.779 100.287 114.864C101.258 113.949 102.397 113.249 103.703 112.764C105.029 112.26 106.466 112.008 108.015 112.008C109.826 112.008 111.441 112.325 112.859 112.96C114.297 113.595 115.491 114.509 116.443 115.704L112.915 118.896C112.281 118.149 111.581 117.58 110.815 117.188C110.069 116.796 109.229 116.6 108.295 116.6C107.493 116.6 106.755 116.731 106.083 116.992C105.411 117.253 104.833 117.636 104.347 118.14C103.881 118.625 103.507 119.213 103.227 119.904C102.966 120.595 102.835 121.36 102.835 122.2C102.835 123.04 102.966 123.805 103.227 124.496C103.507 125.187 103.881 125.784 104.347 126.288C104.833 126.773 105.411 127.147 106.083 127.408C106.755 127.669 107.493 127.8 108.295 127.8C109.229 127.8 110.069 127.604 110.815 127.212C111.581 126.82 112.281 126.251 112.915 125.504L116.443 128.696C115.491 129.872 114.297 130.787 112.859 131.44C111.441 132.075 109.826 132.392 108.015 132.392ZM132.019 112.4H137.563V132H132.019V112.4ZM124.459 132H118.915V112.4H124.459V132ZM132.411 124.356H124.067V119.764H132.411V124.356ZM141.474 132V112.4H146.038L156.846 125.448H154.69V112.4H160.122V132H155.558L144.75 118.952H146.906V132H141.474ZM164.032 132V112.4H169.576V132H164.032ZM183.293 132.392C181.743 132.392 180.306 132.149 178.981 131.664C177.674 131.16 176.535 130.451 175.565 129.536C174.613 128.621 173.866 127.548 173.325 126.316C172.783 125.065 172.513 123.693 172.513 122.2C172.513 120.707 172.783 119.344 173.325 118.112C173.866 116.861 174.613 115.779 175.565 114.864C176.535 113.949 177.674 113.249 178.981 112.764C180.306 112.26 181.743 112.008 183.293 112.008C185.103 112.008 186.718 112.325 188.137 112.96C189.574 113.595 190.769 114.509 191.721 115.704L188.193 118.896C187.558 118.149 186.858 117.58 186.093 117.188C185.346 116.796 184.506 116.6 183.573 116.6C182.77 116.6 182.033 116.731 181.361 116.992C180.689 117.253 180.11 117.636 179.625 118.14C179.158 118.625 178.785 119.213 178.505 119.904C178.243 120.595 178.113 121.36 178.113 122.2C178.113 123.04 178.243 123.805 178.505 124.496C178.785 125.187 179.158 125.784 179.625 126.288C180.11 126.773 180.689 127.147 181.361 127.408C182.033 127.669 182.77 127.8 183.573 127.8C184.506 127.8 185.346 127.604 186.093 127.212C186.858 126.82 187.558 126.251 188.193 125.504L191.721 128.696C190.769 129.872 189.574 130.787 188.137 131.44C186.718 132.075 185.103 132.392 183.293 132.392ZM191.512 132L200.164 112.4H205.624L214.304 132H208.536L201.76 115.116H203.944L197.168 132H191.512ZM196.244 128.192L197.672 124.104H207.248L208.676 128.192H196.244ZM215.876 132V112.4H221.42V127.604H230.772V132H215.876ZM47.8213 167V147.4H57.0893C59.2547 147.4 61.1587 147.801 62.8013 148.604C64.444 149.407 65.7227 150.536 66.6373 151.992C67.5707 153.448 68.0373 155.184 68.0373 157.2C68.0373 159.197 67.5707 160.933 66.6373 162.408C65.7227 163.864 64.444 164.993 62.8013 165.796C61.1587 166.599 59.2547 167 57.0893 167H47.8213ZM53.3653 162.576H56.8653C57.9853 162.576 58.956 162.371 59.7773 161.96C60.6173 161.531 61.2707 160.915 61.7373 160.112C62.204 159.291 62.4373 158.32 62.4373 157.2C62.4373 156.061 62.204 155.091 61.7373 154.288C61.2707 153.485 60.6173 152.879 59.7773 152.468C58.956 152.039 57.9853 151.824 56.8653 151.824H53.3653V162.576ZM76.0501 154.988H85.1501V159.132H76.0501V154.988ZM76.4421 162.716H86.6901V167H70.9541V147.4H86.3261V151.684H76.4421V162.716ZM89.7666 167V147.4H98.7266C100.519 147.4 102.059 147.689 103.347 148.268C104.653 148.847 105.661 149.687 106.371 150.788C107.08 151.871 107.435 153.159 107.435 154.652C107.435 156.127 107.08 157.405 106.371 158.488C105.661 159.571 104.653 160.411 103.347 161.008C102.059 161.587 100.519 161.876 98.7266 161.876H92.8466L95.3106 159.468V167H89.7666ZM95.3106 160.056L92.8466 157.508H98.3906C99.548 157.508 100.407 157.256 100.967 156.752C101.545 156.248 101.835 155.548 101.835 154.652C101.835 153.737 101.545 153.028 100.967 152.524C100.407 152.02 99.548 151.768 98.3906 151.768H92.8466L95.3106 149.22V160.056ZM110.138 167V147.4H115.682V162.604H125.034V167H110.138ZM136.811 167.392C135.243 167.392 133.796 167.14 132.471 166.636C131.145 166.132 129.988 165.423 128.999 164.508C128.028 163.575 127.272 162.492 126.731 161.26C126.189 160.028 125.919 158.675 125.919 157.2C125.919 155.725 126.189 154.372 126.731 153.14C127.272 151.908 128.028 150.835 128.999 149.92C129.988 148.987 131.145 148.268 132.471 147.764C133.796 147.26 135.243 147.008 136.811 147.008C138.397 147.008 139.844 147.26 141.151 147.764C142.476 148.268 143.624 148.987 144.595 149.92C145.565 150.835 146.321 151.908 146.863 153.14C147.423 154.372 147.703 155.725 147.703 157.2C147.703 158.675 147.423 160.037 146.863 161.288C146.321 162.52 145.565 163.593 144.595 164.508C143.624 165.423 142.476 166.132 141.151 166.636C139.844 167.14 138.397 167.392 136.811 167.392ZM136.811 162.8C137.557 162.8 138.248 162.669 138.883 162.408C139.536 162.147 140.096 161.773 140.563 161.288C141.048 160.784 141.421 160.187 141.683 159.496C141.963 158.805 142.103 158.04 142.103 157.2C142.103 156.341 141.963 155.576 141.683 154.904C141.421 154.213 141.048 153.625 140.563 153.14C140.096 152.636 139.536 152.253 138.883 151.992C138.248 151.731 137.557 151.6 136.811 151.6C136.064 151.6 135.364 151.731 134.711 151.992C134.076 152.253 133.516 152.636 133.031 153.14C132.564 153.625 132.191 154.213 131.911 154.904C131.649 155.576 131.519 156.341 131.519 157.2C131.519 158.04 131.649 158.805 131.911 159.496C132.191 160.187 132.564 160.784 133.031 161.288C133.516 161.773 134.076 162.147 134.711 162.408C135.364 162.669 136.064 162.8 136.811 162.8ZM154.715 167V158.712L156.003 162.044L147.239 147.4H153.091L159.419 158.012H156.031L162.387 147.4H167.763L159.027 162.044L160.259 158.712V167H154.715ZM169.091 167V147.4H173.655L181.775 160.728H179.367L187.263 147.4H191.827L191.883 167H186.787L186.731 155.156H187.599L181.691 165.068H179.227L173.151 155.156H174.215V167H169.091ZM200.902 154.988H210.002V159.132H200.902V154.988ZM201.294 162.716H211.542V167H195.806V147.4H211.178V151.684H201.294V162.716ZM214.618 167V147.4H219.182L229.99 160.448H227.834V147.4H233.266V167H228.702L217.894 153.952H220.05V167H214.618ZM241.349 167V151.796H235.329V147.4H252.885V151.796H246.893V167H241.349ZM147.578 202.392C146.085 202.392 144.75 202.159 143.574 201.692C142.398 201.207 141.465 200.544 140.774 199.704C140.102 198.864 139.766 197.921 139.766 196.876C139.766 195.849 139.99 194.935 140.438 194.132C140.905 193.329 141.614 192.592 142.566 191.92C143.537 191.248 144.769 190.604 146.262 189.988C147.252 189.559 148.026 189.176 148.586 188.84C149.146 188.504 149.538 188.187 149.762 187.888C150.005 187.571 150.126 187.253 150.126 186.936C150.126 186.544 149.996 186.227 149.734 185.984C149.473 185.741 149.081 185.62 148.558 185.62C148.017 185.62 147.588 185.76 147.27 186.04C146.972 186.32 146.822 186.665 146.822 187.076C146.822 187.319 146.869 187.561 146.962 187.804C147.074 188.047 147.28 188.327 147.578 188.644C147.896 188.961 148.334 189.372 148.894 189.876L159.226 199.06L156.37 202.336L144.722 191.948C144.088 191.388 143.565 190.847 143.154 190.324C142.762 189.801 142.464 189.279 142.258 188.756C142.072 188.233 141.978 187.701 141.978 187.16C141.978 186.152 142.249 185.275 142.79 184.528C143.332 183.763 144.097 183.175 145.086 182.764C146.076 182.335 147.233 182.12 148.558 182.12C149.772 182.12 150.826 182.307 151.722 182.68C152.637 183.053 153.346 183.595 153.85 184.304C154.354 185.013 154.606 185.853 154.606 186.824C154.606 187.683 154.382 188.467 153.934 189.176C153.505 189.885 152.833 190.539 151.918 191.136C151.022 191.733 149.874 192.321 148.474 192.9C147.616 193.255 146.925 193.609 146.402 193.964C145.898 194.319 145.534 194.683 145.31 195.056C145.086 195.411 144.974 195.821 144.974 196.288C144.974 196.661 145.096 197.007 145.338 197.324C145.581 197.641 145.926 197.893 146.374 198.08C146.822 198.248 147.354 198.332 147.97 198.332C149.053 198.332 150.052 198.071 150.966 197.548C151.881 197.007 152.665 196.223 153.318 195.196C153.99 194.169 154.448 192.928 154.69 191.472L158.974 192.76C158.564 194.683 157.817 196.363 156.734 197.8C155.67 199.237 154.354 200.367 152.786 201.188C151.237 201.991 149.501 202.392 147.578 202.392ZM140.691 237.392C139.142 237.392 137.704 237.149 136.379 236.664C135.072 236.16 133.934 235.451 132.963 234.536C132.011 233.621 131.264 232.548 130.723 231.316C130.182 230.065 129.911 228.693 129.911 227.2C129.911 225.707 130.182 224.344 130.723 223.112C131.264 221.861 132.011 220.779 132.963 219.864C133.934 218.949 135.072 218.249 136.379 217.764C137.704 217.26 139.142 217.008 140.691 217.008C142.502 217.008 144.116 217.325 145.535 217.96C146.972 218.595 148.167 219.509 149.119 220.704L145.591 223.896C144.956 223.149 144.256 222.58 143.491 222.188C142.744 221.796 141.904 221.6 140.971 221.6C140.168 221.6 139.431 221.731 138.759 221.992C138.087 222.253 137.508 222.636 137.023 223.14C136.556 223.625 136.183 224.213 135.903 224.904C135.642 225.595 135.511 226.36 135.511 227.2C135.511 228.04 135.642 228.805 135.903 229.496C136.183 230.187 136.556 230.784 137.023 231.288C137.508 231.773 138.087 232.147 138.759 232.408C139.431 232.669 140.168 232.8 140.971 232.8C141.904 232.8 142.744 232.604 143.491 232.212C144.256 231.82 144.956 231.251 145.591 230.504L149.119 233.696C148.167 234.872 146.972 235.787 145.535 236.44C144.116 237.075 142.502 237.392 140.691 237.392ZM160.953 237.392C159.403 237.392 157.966 237.149 156.641 236.664C155.334 236.16 154.195 235.451 153.225 234.536C152.273 233.621 151.526 232.548 150.985 231.316C150.443 230.065 150.173 228.693 150.173 227.2C150.173 225.707 150.443 224.344 150.985 223.112C151.526 221.861 152.273 220.779 153.225 219.864C154.195 218.949 155.334 218.249 156.641 217.764C157.966 217.26 159.403 217.008 160.953 217.008C162.763 217.008 164.378 217.325 165.797 217.96C167.234 218.595 168.429 219.509 169.381 220.704L165.853 223.896C165.218 223.149 164.518 222.58 163.753 222.188C163.006 221.796 162.166 221.6 161.233 221.6C160.43 221.6 159.693 221.731 159.021 221.992C158.349 222.253 157.77 222.636 157.285 223.14C156.818 223.625 156.445 224.213 156.165 224.904C155.903 225.595 155.773 226.36 155.773 227.2C155.773 228.04 155.903 228.805 156.165 229.496C156.445 230.187 156.818 230.784 157.285 231.288C157.77 231.773 158.349 232.147 159.021 232.408C159.693 232.669 160.43 232.8 161.233 232.8C162.166 232.8 163.006 232.604 163.753 232.212C164.518 231.82 165.218 231.251 165.853 230.504L169.381 233.696C168.429 234.872 167.234 235.787 165.797 236.44C164.378 237.075 162.763 237.392 160.953 237.392Z" fill="#4C4C4C"/>
<defs>
<linearGradient id="paint0_linear_442_7" x1="148.276" y1="4.27122" x2="148.276" y2="282.771" gradientUnits="userSpaceOnUse">
<stop offset="0.03" stop-color="#5193BB"/>
<stop offset="0.1" stop-color="#6794AB"/>
<stop offset="0.31" stop-color="#AA987B"/>
<stop offset="0.46" stop-color="#D49A5D"/>
<stop offset="0.54" stop-color="#E49B52"/>
<stop offset="0.6" stop-color="#DF9B55"/>
<stop offset="0.67" stop-color="#D29A5F"/>
<stop offset="0.74" stop-color="#BC996F"/>
<stop offset="0.81" stop-color="#9C9785"/>
<stop offset="0.89" stop-color="#7495A2"/>
<stop offset="0.97" stop-color="#4492C5"/>
<stop offset="0.98" stop-color="#3F92C8"/>
</linearGradient>
<linearGradient id="paint1_linear_442_7" x1="196.236" y1="298.692" x2="130.046" y2="48.9815" gradientUnits="userSpaceOnUse">
<stop stop-color="white"/>
<stop offset="0.45" stop-color="#FCFDFD"/>
<stop offset="0.81" stop-color="#F2F5F6"/>
<stop offset="1" stop-color="#E9EEF0"/>
</linearGradient>
<linearGradient id="paint2_linear_442_7" x1="84.1958" y1="117.141" x2="282.606" y2="273.941" gradientUnits="userSpaceOnUse">
<stop stop-color="white"/>
<stop offset="0.45" stop-color="#FCFDFD"/>
<stop offset="0.81" stop-color="#F2F5F6"/>
<stop offset="1" stop-color="#E9EEF0"/>
</linearGradient>
</defs>
</svg>
