<svg width="297" height="284" viewBox="0 0 297 284" fill="none" xmlns="http://www.w3.org/2000/svg">
<path d="M141.225 2.26122L4.9455 101.261C2.89649 102.75 1.3712 104.849 0.588029 107.258C-0.195143 109.667 -0.19603 112.262 0.585496 114.671L52.6355 274.901C53.4205 277.309 54.9469 279.406 56.9964 280.893C59.0459 282.381 61.5133 283.181 64.0455 283.181H232.495C235.028 283.181 237.495 282.381 239.545 280.893C241.594 279.406 243.121 277.309 243.906 274.901L295.906 114.691C296.688 112.283 296.689 109.689 295.907 107.28C295.126 104.871 293.603 102.772 291.556 101.281L155.275 2.28122C153.233 0.801797 150.776 0.00360243 148.254 1.21649e-05C145.732 -0.0035781 143.272 0.787618 141.225 2.26122Z" fill="url(#paint0_linear_442_22)"/>
<path d="M143.476 27.2715L28.0256 111.152C26.6258 112.159 25.5814 113.585 25.0424 115.224C24.5034 116.862 24.4975 118.629 25.0256 120.272L69.1656 255.992C69.6978 257.631 70.7352 259.059 72.1292 260.072C73.5233 261.085 75.2023 261.631 76.9256 261.632H219.626C221.355 261.637 223.042 261.094 224.443 260.08C225.844 259.067 226.889 257.635 227.426 255.992L271.516 120.272C272.047 118.63 272.042 116.861 271.503 115.222C270.964 113.583 269.918 112.157 268.516 111.152L153.066 27.2715C151.671 26.2621 149.993 25.7188 148.271 25.7188C146.549 25.7188 144.871 26.2621 143.476 27.2715V27.2715Z" fill="url(#paint1_linear_442_22)"/>
<path d="M144.226 32.1209L32.4258 113.361C31.2498 114.216 30.3747 115.422 29.9256 116.805C29.4766 118.188 29.4766 119.678 29.9258 121.061L72.6158 252.511C73.0672 253.892 73.9437 255.096 75.1201 255.949C76.2965 256.802 77.7126 257.261 79.1658 257.261H217.426C218.879 257.263 220.296 256.804 221.473 255.951C222.65 255.097 223.526 253.893 223.976 252.511L266.686 121.061C267.135 119.678 267.135 118.188 266.686 116.805C266.237 115.422 265.362 114.216 264.186 113.361L152.316 32.1209C151.14 31.2679 149.724 30.8086 148.271 30.8086C146.818 30.8086 145.402 31.2679 144.226 32.1209V32.1209Z" fill="url(#paint2_linear_442_22)"/>
<path d="M69.7244 146V123.6H81.1804C84.1244 123.6 86.3217 124.144 87.7724 125.232C89.223 126.299 89.9484 127.707 89.9484 129.456C89.9484 130.608 89.639 131.621 89.0204 132.496C88.423 133.349 87.5697 134.032 86.4604 134.544C85.3724 135.035 84.071 135.28 82.5564 135.28L83.1964 133.744C84.775 133.744 86.151 133.989 87.3244 134.48C88.4977 134.949 89.4044 135.643 90.0444 136.56C90.7057 137.456 91.0364 138.555 91.0364 139.856C91.0364 141.797 90.247 143.312 88.6684 144.4C87.111 145.467 84.8284 146 81.8204 146H69.7244ZM75.9964 141.424H81.3084C82.3964 141.424 83.2177 141.243 83.7724 140.88C84.3484 140.496 84.6364 139.92 84.6364 139.152C84.6364 138.384 84.3484 137.819 83.7724 137.456C83.2177 137.072 82.3964 136.88 81.3084 136.88H75.5484V132.496H80.3484C81.415 132.496 82.215 132.315 82.7484 131.952C83.2817 131.589 83.5484 131.045 83.5484 130.32C83.5484 129.595 83.2817 129.061 82.7484 128.72C82.215 128.357 81.415 128.176 80.3484 128.176H75.9964V141.424ZM104.654 146.448C101.347 146.448 98.7661 145.541 96.9101 143.728C95.0541 141.915 94.1261 139.344 94.1261 136.016V123.6H100.462V135.824C100.462 137.744 100.835 139.12 101.582 139.952C102.35 140.784 103.395 141.2 104.718 141.2C106.041 141.2 107.075 140.784 107.822 139.952C108.569 139.12 108.942 137.744 108.942 135.824V123.6H115.182V136.016C115.182 139.344 114.254 141.915 112.398 143.728C110.542 145.541 107.961 146.448 104.654 146.448ZM127.346 146.448C125.512 146.448 123.741 146.224 122.034 145.776C120.349 145.307 118.973 144.709 117.906 143.984L119.986 139.312C120.989 139.952 122.141 140.485 123.442 140.912C124.765 141.317 126.077 141.52 127.378 141.52C128.253 141.52 128.957 141.445 129.49 141.296C130.024 141.125 130.408 140.912 130.642 140.656C130.898 140.379 131.026 140.059 131.026 139.696C131.026 139.184 130.792 138.779 130.322 138.48C129.853 138.181 129.245 137.936 128.498 137.744C127.752 137.552 126.92 137.36 126.002 137.168C125.106 136.976 124.2 136.731 123.282 136.432C122.386 136.133 121.565 135.749 120.818 135.28C120.072 134.789 119.464 134.16 118.994 133.392C118.525 132.603 118.29 131.611 118.29 130.416C118.29 129.072 118.653 127.856 119.378 126.768C120.125 125.68 121.234 124.805 122.706 124.144C124.178 123.483 126.013 123.152 128.21 123.152C129.682 123.152 131.122 123.323 132.53 123.664C133.96 123.984 135.229 124.464 136.338 125.104L134.386 129.808C133.32 129.232 132.264 128.805 131.218 128.528C130.173 128.229 129.16 128.08 128.178 128.08C127.304 128.08 126.6 128.176 126.066 128.368C125.533 128.539 125.149 128.773 124.914 129.072C124.68 129.371 124.562 129.712 124.562 130.096C124.562 130.587 124.786 130.981 125.234 131.28C125.704 131.557 126.312 131.792 127.058 131.984C127.826 132.155 128.658 132.336 129.554 132.528C130.472 132.72 131.378 132.965 132.274 133.264C133.192 133.541 134.024 133.925 134.77 134.416C135.517 134.885 136.114 135.515 136.562 136.304C137.032 137.072 137.266 138.043 137.266 139.216C137.266 140.517 136.893 141.723 136.146 142.832C135.421 143.92 134.322 144.795 132.85 145.456C131.4 146.117 129.565 146.448 127.346 146.448ZM140.193 146V123.6H146.529V146H140.193ZM151.037 146V123.6H156.253L168.605 138.512H166.141V123.6H172.349V146H167.133L154.781 131.088H157.245V146H151.037ZM182.642 132.272H193.042V137.008H182.642V132.272ZM183.09 141.104H194.802V146H176.818V123.6H194.386V128.496H183.09V141.104ZM206.19 146.448C204.355 146.448 202.585 146.224 200.878 145.776C199.193 145.307 197.817 144.709 196.75 143.984L198.83 139.312C199.833 139.952 200.985 140.485 202.286 140.912C203.609 141.317 204.921 141.52 206.222 141.52C207.097 141.52 207.801 141.445 208.334 141.296C208.867 141.125 209.251 140.912 209.486 140.656C209.742 140.379 209.87 140.059 209.87 139.696C209.87 139.184 209.635 138.779 209.166 138.48C208.697 138.181 208.089 137.936 207.342 137.744C206.595 137.552 205.763 137.36 204.846 137.168C203.95 136.976 203.043 136.731 202.126 136.432C201.23 136.133 200.409 135.749 199.662 135.28C198.915 134.789 198.307 134.16 197.838 133.392C197.369 132.603 197.134 131.611 197.134 130.416C197.134 129.072 197.497 127.856 198.222 126.768C198.969 125.68 200.078 124.805 201.55 124.144C203.022 123.483 204.857 123.152 207.054 123.152C208.526 123.152 209.966 123.323 211.374 123.664C212.803 123.984 214.073 124.464 215.182 125.104L213.23 129.808C212.163 129.232 211.107 128.805 210.062 128.528C209.017 128.229 208.003 128.08 207.022 128.08C206.147 128.08 205.443 128.176 204.91 128.368C204.377 128.539 203.993 128.773 203.758 129.072C203.523 129.371 203.406 129.712 203.406 130.096C203.406 130.587 203.63 130.981 204.078 131.28C204.547 131.557 205.155 131.792 205.902 131.984C206.67 132.155 207.502 132.336 208.398 132.528C209.315 132.72 210.222 132.965 211.118 133.264C212.035 133.541 212.867 133.925 213.614 134.416C214.361 134.885 214.958 135.515 215.406 136.304C215.875 137.072 216.11 138.043 216.11 139.216C216.11 140.517 215.737 141.723 214.99 142.832C214.265 143.92 213.166 144.795 211.694 145.456C210.243 146.117 208.409 146.448 206.19 146.448ZM226.909 146.448C225.074 146.448 223.304 146.224 221.597 145.776C219.912 145.307 218.536 144.709 217.469 143.984L219.549 139.312C220.552 139.952 221.704 140.485 223.005 140.912C224.328 141.317 225.64 141.52 226.941 141.52C227.816 141.52 228.52 141.445 229.053 141.296C229.586 141.125 229.97 140.912 230.205 140.656C230.461 140.379 230.589 140.059 230.589 139.696C230.589 139.184 230.354 138.779 229.885 138.48C229.416 138.181 228.808 137.936 228.061 137.744C227.314 137.552 226.482 137.36 225.565 137.168C224.669 136.976 223.762 136.731 222.845 136.432C221.949 136.133 221.128 135.749 220.381 135.28C219.634 134.789 219.026 134.16 218.557 133.392C218.088 132.603 217.853 131.611 217.853 130.416C217.853 129.072 218.216 127.856 218.941 126.768C219.688 125.68 220.797 124.805 222.269 124.144C223.741 123.483 225.576 123.152 227.773 123.152C229.245 123.152 230.685 123.323 232.093 123.664C233.522 123.984 234.792 124.464 235.901 125.104L233.949 129.808C232.882 129.232 231.826 128.805 230.781 128.528C229.736 128.229 228.722 128.08 227.741 128.08C226.866 128.08 226.162 128.176 225.629 128.368C225.096 128.539 224.712 128.773 224.477 129.072C224.242 129.371 224.125 129.712 224.125 130.096C224.125 130.587 224.349 130.981 224.797 131.28C225.266 131.557 225.874 131.792 226.621 131.984C227.389 132.155 228.221 132.336 229.117 132.528C230.034 132.72 230.941 132.965 231.837 133.264C232.754 133.541 233.586 133.925 234.333 134.416C235.08 134.885 235.677 135.515 236.125 136.304C236.594 137.072 236.829 138.043 236.829 139.216C236.829 140.517 236.456 141.723 235.709 142.832C234.984 143.92 233.885 144.795 232.413 145.456C230.962 146.117 229.128 146.448 226.909 146.448ZM74.4431 186V163.6H84.6831C86.7311 163.6 88.4911 163.931 89.9631 164.592C91.4565 165.253 92.6085 166.213 93.4191 167.472C94.2298 168.709 94.6351 170.181 94.6351 171.888C94.6351 173.573 94.2298 175.035 93.4191 176.272C92.6085 177.509 91.4565 178.469 89.9631 179.152C88.4911 179.813 86.7311 180.144 84.6831 180.144H77.9631L80.7791 177.392V186H74.4431ZM80.7791 178.064L77.9631 175.152H84.2991C85.6218 175.152 86.6031 174.864 87.2431 174.288C87.9045 173.712 88.2351 172.912 88.2351 171.888C88.2351 170.843 87.9045 170.032 87.2431 169.456C86.6031 168.88 85.6218 168.592 84.2991 168.592H77.9631L80.7791 165.68V178.064ZM97.7244 186V163.6H107.964C110.012 163.6 111.772 163.931 113.244 164.592C114.738 165.253 115.89 166.213 116.7 167.472C117.511 168.709 117.916 170.181 117.916 171.888C117.916 173.573 117.511 175.035 116.7 176.272C115.89 177.488 114.738 178.427 113.244 179.088C111.772 179.728 110.012 180.048 107.964 180.048H101.244L104.06 177.392V186H97.7244ZM111.58 186L106.012 177.84H112.764L118.364 186H111.58ZM104.06 178.064L101.244 175.152H107.58C108.903 175.152 109.884 174.864 110.524 174.288C111.186 173.712 111.516 172.912 111.516 171.888C111.516 170.843 111.186 170.032 110.524 169.456C109.884 168.88 108.903 168.592 107.58 168.592H101.244L104.06 165.68V178.064ZM132.708 186.448C130.916 186.448 129.263 186.16 127.748 185.584C126.233 185.008 124.911 184.197 123.78 183.152C122.671 182.085 121.807 180.848 121.188 179.44C120.569 178.032 120.26 176.485 120.26 174.8C120.26 173.115 120.569 171.568 121.188 170.16C121.807 168.752 122.671 167.525 123.78 166.48C124.911 165.413 126.233 164.592 127.748 164.016C129.263 163.44 130.916 163.152 132.708 163.152C134.521 163.152 136.175 163.44 137.668 164.016C139.183 164.592 140.495 165.413 141.604 166.48C142.713 167.525 143.577 168.752 144.196 170.16C144.836 171.568 145.156 173.115 145.156 174.8C145.156 176.485 144.836 178.043 144.196 179.472C143.577 180.88 142.713 182.107 141.604 183.152C140.495 184.197 139.183 185.008 137.668 185.584C136.175 186.16 134.521 186.448 132.708 186.448ZM132.708 181.2C133.561 181.2 134.351 181.051 135.076 180.752C135.823 180.453 136.463 180.027 136.996 179.472C137.551 178.896 137.977 178.213 138.276 177.424C138.596 176.635 138.756 175.76 138.756 174.8C138.756 173.819 138.596 172.944 138.276 172.176C137.977 171.387 137.551 170.715 136.996 170.16C136.463 169.584 135.823 169.147 135.076 168.848C134.351 168.549 133.561 168.4 132.708 168.4C131.855 168.4 131.055 168.549 130.308 168.848C129.583 169.147 128.943 169.584 128.388 170.16C127.855 170.715 127.428 171.387 127.108 172.176C126.809 172.944 126.66 173.819 126.66 174.8C126.66 175.76 126.809 176.635 127.108 177.424C127.428 178.213 127.855 178.896 128.388 179.472C128.943 180.027 129.583 180.453 130.308 180.752C131.055 181.051 131.855 181.2 132.708 181.2ZM159.642 186.448C157.872 186.448 156.229 186.171 154.714 185.616C153.221 185.04 151.92 184.229 150.81 183.184C149.722 182.139 148.869 180.912 148.25 179.504C147.632 178.075 147.322 176.507 147.322 174.8C147.322 173.093 147.632 171.536 148.25 170.128C148.869 168.699 149.722 167.461 150.81 166.416C151.92 165.371 153.221 164.571 154.714 164.016C156.229 163.44 157.872 163.152 159.642 163.152C161.712 163.152 163.557 163.515 165.178 164.24C166.821 164.965 168.186 166.011 169.274 167.376L165.242 171.024C164.517 170.171 163.717 169.52 162.842 169.072C161.989 168.624 161.029 168.4 159.962 168.4C159.045 168.4 158.202 168.549 157.434 168.848C156.666 169.147 156.005 169.584 155.45 170.16C154.917 170.715 154.49 171.387 154.17 172.176C153.872 172.965 153.722 173.84 153.722 174.8C153.722 175.76 153.872 176.635 154.17 177.424C154.49 178.213 154.917 178.896 155.45 179.472C156.005 180.027 156.666 180.453 157.434 180.752C158.202 181.051 159.045 181.2 159.962 181.2C161.029 181.2 161.989 180.976 162.842 180.528C163.717 180.08 164.517 179.429 165.242 178.576L169.274 182.224C168.186 183.568 166.821 184.613 165.178 185.36C163.557 186.085 161.712 186.448 159.642 186.448ZM177.923 172.272H188.323V177.008H177.923V172.272ZM178.371 181.104H190.083V186H172.099V163.6H189.667V168.496H178.371V181.104ZM201.471 186.448C199.637 186.448 197.866 186.224 196.159 185.776C194.474 185.307 193.098 184.709 192.031 183.984L194.111 179.312C195.114 179.952 196.266 180.485 197.567 180.912C198.89 181.317 200.202 181.52 201.503 181.52C202.378 181.52 203.082 181.445 203.615 181.296C204.149 181.125 204.533 180.912 204.767 180.656C205.023 180.379 205.151 180.059 205.151 179.696C205.151 179.184 204.917 178.779 204.447 178.48C203.978 178.181 203.37 177.936 202.623 177.744C201.877 177.552 201.045 177.36 200.127 177.168C199.231 176.976 198.325 176.731 197.407 176.432C196.511 176.133 195.69 175.749 194.943 175.28C194.197 174.789 193.589 174.16 193.119 173.392C192.65 172.603 192.415 171.611 192.415 170.416C192.415 169.072 192.778 167.856 193.503 166.768C194.25 165.68 195.359 164.805 196.831 164.144C198.303 163.483 200.138 163.152 202.335 163.152C203.807 163.152 205.247 163.323 206.655 163.664C208.085 163.984 209.354 164.464 210.463 165.104L208.511 169.808C207.445 169.232 206.389 168.805 205.343 168.528C204.298 168.229 203.285 168.08 202.303 168.08C201.429 168.08 200.725 168.176 200.191 168.368C199.658 168.539 199.274 168.773 199.039 169.072C198.805 169.371 198.687 169.712 198.687 170.096C198.687 170.587 198.911 170.981 199.359 171.28C199.829 171.557 200.437 171.792 201.183 171.984C201.951 172.155 202.783 172.336 203.679 172.528C204.597 172.72 205.503 172.965 206.399 173.264C207.317 173.541 208.149 173.925 208.895 174.416C209.642 174.885 210.239 175.515 210.687 176.304C211.157 177.072 211.391 178.043 211.391 179.216C211.391 180.517 211.018 181.723 210.271 182.832C209.546 183.92 208.447 184.795 206.975 185.456C205.525 186.117 203.69 186.448 201.471 186.448ZM222.19 186.448C220.355 186.448 218.585 186.224 216.878 185.776C215.193 185.307 213.817 184.709 212.75 183.984L214.83 179.312C215.833 179.952 216.985 180.485 218.286 180.912C219.609 181.317 220.921 181.52 222.222 181.52C223.097 181.52 223.801 181.445 224.334 181.296C224.867 181.125 225.251 180.912 225.486 180.656C225.742 180.379 225.87 180.059 225.87 179.696C225.87 179.184 225.635 178.779 225.166 178.48C224.697 178.181 224.089 177.936 223.342 177.744C222.595 177.552 221.763 177.36 220.846 177.168C219.95 176.976 219.043 176.731 218.126 176.432C217.23 176.133 216.409 175.749 215.662 175.28C214.915 174.789 214.307 174.16 213.838 173.392C213.369 172.603 213.134 171.611 213.134 170.416C213.134 169.072 213.497 167.856 214.222 166.768C214.969 165.68 216.078 164.805 217.55 164.144C219.022 163.483 220.857 163.152 223.054 163.152C224.526 163.152 225.966 163.323 227.374 163.664C228.803 163.984 230.073 164.464 231.182 165.104L229.23 169.808C228.163 169.232 227.107 168.805 226.062 168.528C225.017 168.229 224.003 168.08 223.022 168.08C222.147 168.08 221.443 168.176 220.91 168.368C220.377 168.539 219.993 168.773 219.758 169.072C219.523 169.371 219.406 169.712 219.406 170.096C219.406 170.587 219.63 170.981 220.078 171.28C220.547 171.557 221.155 171.792 221.902 171.984C222.67 172.155 223.502 172.336 224.398 172.528C225.315 172.72 226.222 172.965 227.118 173.264C228.035 173.541 228.867 173.925 229.614 174.416C230.361 174.885 230.958 175.515 231.406 176.304C231.875 177.072 232.11 178.043 232.11 179.216C232.11 180.517 231.737 181.723 230.99 182.832C230.265 183.92 229.166 184.795 227.694 185.456C226.243 186.117 224.409 186.448 222.19 186.448Z" fill="#4C4C4C"/>
<defs>
<linearGradient id="paint0_linear_442_22" x1="148.276" y1="4.27122" x2="148.276" y2="282.771" gradientUnits="userSpaceOnUse">
<stop offset="0.03" stop-color="#5193BB"/>
<stop offset="0.1" stop-color="#6794AB"/>
<stop offset="0.31" stop-color="#AA987B"/>
<stop offset="0.46" stop-color="#D49A5D"/>
<stop offset="0.54" stop-color="#E49B52"/>
<stop offset="0.6" stop-color="#DF9B55"/>
<stop offset="0.67" stop-color="#D29A5F"/>
<stop offset="0.74" stop-color="#BC996F"/>
<stop offset="0.81" stop-color="#9C9785"/>
<stop offset="0.89" stop-color="#7495A2"/>
<stop offset="0.97" stop-color="#4492C5"/>
<stop offset="0.98" stop-color="#3F92C8"/>
</linearGradient>
<linearGradient id="paint1_linear_442_22" x1="196.236" y1="298.692" x2="130.046" y2="48.9815" gradientUnits="userSpaceOnUse">
<stop stop-color="white"/>
<stop offset="0.45" stop-color="#FCFDFD"/>
<stop offset="0.81" stop-color="#F2F5F6"/>
<stop offset="1" stop-color="#E9EEF0"/>
</linearGradient>
<linearGradient id="paint2_linear_442_22" x1="84.1958" y1="117.141" x2="282.606" y2="273.941" gradientUnits="userSpaceOnUse">
<stop stop-color="white"/>
<stop offset="0.45" stop-color="#FCFDFD"/>
<stop offset="0.81" stop-color="#F2F5F6"/>
<stop offset="1" stop-color="#E9EEF0"/>
</linearGradient>
</defs>
</svg>
