<svg width="297" height="284" viewBox="0 0 297 284" fill="none" xmlns="http://www.w3.org/2000/svg">
<path d="M141.225 2.26122L4.9455 101.261C2.89649 102.75 1.3712 104.849 0.588029 107.258C-0.195143 109.667 -0.19603 112.262 0.585496 114.671L52.6355 274.901C53.4205 277.309 54.9469 279.406 56.9964 280.893C59.0459 282.381 61.5133 283.181 64.0455 283.181H232.495C235.028 283.181 237.495 282.381 239.545 280.893C241.594 279.406 243.121 277.309 243.906 274.901L295.906 114.691C296.688 112.283 296.689 109.689 295.907 107.28C295.126 104.871 293.603 102.772 291.556 101.281L155.275 2.28122C153.233 0.801797 150.776 0.00360243 148.254 1.21649e-05C145.732 -0.0035781 143.272 0.787618 141.225 2.26122Z" fill="url(#paint0_linear_442_32)"/>
<path d="M143.476 27.2715L28.0256 111.152C26.6258 112.159 25.5814 113.585 25.0424 115.224C24.5034 116.862 24.4975 118.629 25.0256 120.272L69.1656 255.992C69.6978 257.631 70.7352 259.059 72.1292 260.072C73.5233 261.085 75.2023 261.631 76.9256 261.632H219.626C221.355 261.637 223.042 261.094 224.443 260.08C225.844 259.067 226.889 257.635 227.426 255.992L271.516 120.272C272.047 118.63 272.042 116.861 271.503 115.222C270.964 113.583 269.918 112.157 268.516 111.152L153.066 27.2715C151.671 26.2621 149.993 25.7188 148.271 25.7188C146.549 25.7188 144.871 26.2621 143.476 27.2715V27.2715Z" fill="url(#paint1_linear_442_32)"/>
<path d="M144.226 32.1209L32.4258 113.361C31.2498 114.216 30.3747 115.422 29.9256 116.805C29.4766 118.188 29.4766 119.678 29.9258 121.061L72.6158 252.511C73.0672 253.892 73.9437 255.096 75.1201 255.949C76.2965 256.802 77.7126 257.261 79.1658 257.261H217.426C218.879 257.263 220.296 256.804 221.473 255.951C222.65 255.097 223.526 253.893 223.976 252.511L266.686 121.061C267.135 119.678 267.135 118.188 266.686 116.805C266.237 115.422 265.362 114.216 264.186 113.361L152.316 32.1209C151.14 31.2679 149.724 30.8086 148.271 30.8086C146.818 30.8086 145.402 31.2679 144.226 32.1209V32.1209Z" fill="url(#paint2_linear_442_32)"/>
<path d="M101.909 143.392C100.303 143.392 98.7539 143.196 97.2605 142.804C95.7859 142.393 94.5819 141.871 93.6485 141.236L95.4685 137.148C96.3459 137.708 97.3539 138.175 98.4925 138.548C99.6499 138.903 100.798 139.08 101.937 139.08C102.702 139.08 103.318 139.015 103.785 138.884C104.251 138.735 104.587 138.548 104.793 138.324C105.017 138.081 105.129 137.801 105.129 137.484C105.129 137.036 104.923 136.681 104.513 136.42C104.102 136.159 103.57 135.944 102.917 135.776C102.263 135.608 101.535 135.44 100.733 135.272C99.9485 135.104 99.1552 134.889 98.3525 134.628C97.5685 134.367 96.8499 134.031 96.1965 133.62C95.5432 133.191 95.0112 132.64 94.6005 131.968C94.1899 131.277 93.9845 130.409 93.9845 129.364C93.9845 128.188 94.3019 127.124 94.9365 126.172C95.5899 125.22 96.5605 124.455 97.8485 123.876C99.1365 123.297 100.742 123.008 102.665 123.008C103.953 123.008 105.213 123.157 106.445 123.456C107.695 123.736 108.806 124.156 109.777 124.716L108.069 128.832C107.135 128.328 106.211 127.955 105.297 127.712C104.382 127.451 103.495 127.32 102.637 127.32C101.871 127.32 101.255 127.404 100.789 127.572C100.322 127.721 99.9859 127.927 99.7805 128.188C99.5752 128.449 99.4725 128.748 99.4725 129.084C99.4725 129.513 99.6685 129.859 100.061 130.12C100.471 130.363 101.003 130.568 101.657 130.736C102.329 130.885 103.057 131.044 103.841 131.212C104.643 131.38 105.437 131.595 106.221 131.856C107.023 132.099 107.751 132.435 108.405 132.864C109.058 133.275 109.581 133.825 109.973 134.516C110.383 135.188 110.589 136.037 110.589 137.064C110.589 138.203 110.262 139.257 109.609 140.228C108.974 141.18 108.013 141.945 106.725 142.524C105.455 143.103 103.85 143.392 101.909 143.392ZM117.695 143V134.712L118.983 138.044L110.219 123.4H116.071L122.399 134.012H119.011L125.367 123.4H130.743L122.007 138.044L123.239 134.712V143H117.695ZM138.631 143.392C137.026 143.392 135.477 143.196 133.983 142.804C132.509 142.393 131.305 141.871 130.371 141.236L132.191 137.148C133.069 137.708 134.077 138.175 135.215 138.548C136.373 138.903 137.521 139.08 138.659 139.08C139.425 139.08 140.041 139.015 140.507 138.884C140.974 138.735 141.31 138.548 141.515 138.324C141.739 138.081 141.851 137.801 141.851 137.484C141.851 137.036 141.646 136.681 141.235 136.42C140.825 136.159 140.293 135.944 139.639 135.776C138.986 135.608 138.258 135.44 137.455 135.272C136.671 135.104 135.878 134.889 135.075 134.628C134.291 134.367 133.573 134.031 132.919 133.62C132.266 133.191 131.734 132.64 131.323 131.968C130.913 131.277 130.707 130.409 130.707 129.364C130.707 128.188 131.025 127.124 131.659 126.172C132.313 125.22 133.283 124.455 134.571 123.876C135.859 123.297 137.465 123.008 139.387 123.008C140.675 123.008 141.935 123.157 143.167 123.456C144.418 123.736 145.529 124.156 146.499 124.716L144.791 128.832C143.858 128.328 142.934 127.955 142.019 127.712C141.105 127.451 140.218 127.32 139.359 127.32C138.594 127.32 137.978 127.404 137.511 127.572C137.045 127.721 136.709 127.927 136.503 128.188C136.298 128.449 136.195 128.748 136.195 129.084C136.195 129.513 136.391 129.859 136.783 130.12C137.194 130.363 137.726 130.568 138.379 130.736C139.051 130.885 139.779 131.044 140.563 131.212C141.366 131.38 142.159 131.595 142.943 131.856C143.746 132.099 144.474 132.435 145.127 132.864C145.781 133.275 146.303 133.825 146.695 134.516C147.106 135.188 147.311 136.037 147.311 137.064C147.311 138.203 146.985 139.257 146.331 140.228C145.697 141.18 144.735 141.945 143.447 142.524C142.178 143.103 140.573 143.392 138.631 143.392ZM153.771 143V127.796H147.751V123.4H165.307V127.796H159.315V143H153.771ZM172.468 130.988H181.568V135.132H172.468V130.988ZM172.86 138.716H183.108V143H167.372V123.4H182.744V127.684H172.86V138.716ZM186.185 143V123.4H190.749L198.869 136.728H196.461L204.357 123.4H208.921L208.977 143H203.881L203.825 131.156H204.693L198.785 141.068H196.321L190.245 131.156H191.309V143H186.185ZM54.9613 173V156.2H59.7133V173H54.9613ZM63.0941 173V156.2H67.0061L76.2701 167.384H74.4221V156.2H79.0781V173H75.1661L65.9021 161.816H67.7501V173H63.0941ZM86.006 173V159.968H80.846V156.2H95.894V159.968H90.758V173H86.006ZM102.032 162.704H109.832V166.256H102.032V162.704ZM102.368 169.328H111.152V173H97.6644V156.2H110.84V159.872H102.368V169.328ZM122.189 173.336C120.861 173.336 119.629 173.128 118.493 172.712C117.357 172.28 116.373 171.672 115.541 170.888C114.725 170.104 114.085 169.184 113.621 168.128C113.157 167.056 112.925 165.88 112.925 164.6C112.925 163.32 113.157 162.152 113.621 161.096C114.085 160.024 114.733 159.096 115.565 158.312C116.397 157.528 117.381 156.928 118.517 156.512C119.669 156.08 120.925 155.864 122.285 155.864C123.869 155.864 125.285 156.128 126.533 156.656C127.781 157.184 128.813 157.944 129.629 158.936L126.605 161.672C126.029 161.048 125.405 160.584 124.733 160.28C124.077 159.96 123.341 159.8 122.525 159.8C121.805 159.8 121.149 159.912 120.557 160.136C119.965 160.36 119.461 160.688 119.045 161.12C118.629 161.536 118.301 162.04 118.061 162.632C117.837 163.208 117.725 163.864 117.725 164.6C117.725 165.304 117.837 165.952 118.061 166.544C118.301 167.136 118.629 167.648 119.045 168.08C119.461 168.496 119.957 168.824 120.533 169.064C121.125 169.288 121.773 169.4 122.477 169.4C123.181 169.4 123.869 169.288 124.541 169.064C125.213 168.824 125.893 168.424 126.581 167.864L129.245 171.2C128.285 171.888 127.173 172.416 125.909 172.784C124.645 173.152 123.405 173.336 122.189 173.336ZM125.045 170.576V164.24H129.245V171.2L125.045 170.576ZM132.258 173V156.2H139.938C141.474 156.2 142.794 156.448 143.898 156.944C145.018 157.44 145.882 158.16 146.49 159.104C147.098 160.032 147.402 161.136 147.402 162.416C147.402 163.68 147.098 164.776 146.49 165.704C145.882 166.616 145.018 167.32 143.898 167.816C142.794 168.296 141.474 168.536 139.938 168.536H134.898L137.01 166.544V173H132.258ZM142.65 173L138.474 166.88H143.538L147.738 173H142.65ZM137.01 167.048L134.898 164.864H139.65C140.642 164.864 141.378 164.648 141.858 164.216C142.354 163.784 142.602 163.184 142.602 162.416C142.602 161.632 142.354 161.024 141.858 160.592C141.378 160.16 140.642 159.944 139.65 159.944H134.898L137.01 157.76V167.048ZM148.008 173L155.424 156.2H160.104L167.544 173H162.6L156.792 158.528H158.664L152.856 173H148.008ZM152.064 169.736L153.288 166.232H161.496L162.72 169.736H152.064ZM171.623 173V159.968H166.463V156.2H181.511V159.968H176.375V173H171.623ZM183.282 173V156.2H188.034V173H183.282ZM199.886 173.336C198.542 173.336 197.302 173.12 196.166 172.688C195.03 172.256 194.038 171.648 193.19 170.864C192.358 170.064 191.71 169.136 191.246 168.08C190.782 167.024 190.55 165.864 190.55 164.6C190.55 163.336 190.782 162.176 191.246 161.12C191.71 160.064 192.358 159.144 193.19 158.36C194.038 157.56 195.03 156.944 196.166 156.512C197.302 156.08 198.542 155.864 199.886 155.864C201.246 155.864 202.486 156.08 203.606 156.512C204.742 156.944 205.726 157.56 206.558 158.36C207.39 159.144 208.038 160.064 208.502 161.12C208.982 162.176 209.222 163.336 209.222 164.6C209.222 165.864 208.982 167.032 208.502 168.104C208.038 169.16 207.39 170.08 206.558 170.864C205.726 171.648 204.742 172.256 203.606 172.688C202.486 173.12 201.246 173.336 199.886 173.336ZM199.886 169.4C200.526 169.4 201.118 169.288 201.662 169.064C202.222 168.84 202.702 168.52 203.102 168.104C203.518 167.672 203.838 167.16 204.062 166.568C204.302 165.976 204.422 165.32 204.422 164.6C204.422 163.864 204.302 163.208 204.062 162.632C203.838 162.04 203.518 161.536 203.102 161.12C202.702 160.688 202.222 160.36 201.662 160.136C201.118 159.912 200.526 159.8 199.886 159.8C199.246 159.8 198.646 159.912 198.086 160.136C197.542 160.36 197.062 160.688 196.646 161.12C196.246 161.536 195.926 162.04 195.686 162.632C195.462 163.208 195.35 163.864 195.35 164.6C195.35 165.32 195.462 165.976 195.686 166.568C195.926 167.16 196.246 167.672 196.646 168.104C197.062 168.52 197.542 168.84 198.086 169.064C198.646 169.288 199.246 169.4 199.886 169.4ZM211.711 173V156.2H215.623L224.887 167.384H223.039V156.2H227.695V173H223.783L214.519 161.816H216.367V173H211.711ZM237.072 173V170.024L243.36 164.144C243.808 163.728 244.136 163.36 244.344 163.04C244.568 162.72 244.712 162.432 244.776 162.176C244.856 161.904 244.896 161.656 244.896 161.432C244.896 160.888 244.712 160.464 244.344 160.16C243.992 159.856 243.456 159.704 242.736 159.704C242.128 159.704 241.56 159.84 241.032 160.112C240.504 160.384 240.072 160.792 239.736 161.336L236.208 159.368C236.832 158.312 237.736 157.464 238.92 156.824C240.104 156.184 241.52 155.864 243.168 155.864C244.464 155.864 245.6 156.072 246.576 156.488C247.552 156.904 248.312 157.496 248.856 158.264C249.416 159.032 249.696 159.936 249.696 160.976C249.696 161.52 249.624 162.064 249.48 162.608C249.336 163.136 249.056 163.704 248.64 164.312C248.24 164.904 247.64 165.568 246.84 166.304L241.848 170.912L241.056 169.232H250.152V173H237.072Z" fill="#4C4C4C"/>
<defs>
<linearGradient id="paint0_linear_442_32" x1="148.276" y1="4.27122" x2="148.276" y2="282.771" gradientUnits="userSpaceOnUse">
<stop offset="0.03" stop-color="#5193BB"/>
<stop offset="0.1" stop-color="#6794AB"/>
<stop offset="0.31" stop-color="#AA987B"/>
<stop offset="0.46" stop-color="#D49A5D"/>
<stop offset="0.54" stop-color="#E49B52"/>
<stop offset="0.6" stop-color="#DF9B55"/>
<stop offset="0.67" stop-color="#D29A5F"/>
<stop offset="0.74" stop-color="#BC996F"/>
<stop offset="0.81" stop-color="#9C9785"/>
<stop offset="0.89" stop-color="#7495A2"/>
<stop offset="0.97" stop-color="#4492C5"/>
<stop offset="0.98" stop-color="#3F92C8"/>
</linearGradient>
<linearGradient id="paint1_linear_442_32" x1="196.236" y1="298.692" x2="130.046" y2="48.9815" gradientUnits="userSpaceOnUse">
<stop stop-color="white"/>
<stop offset="0.45" stop-color="#FCFDFD"/>
<stop offset="0.81" stop-color="#F2F5F6"/>
<stop offset="1" stop-color="#E9EEF0"/>
</linearGradient>
<linearGradient id="paint2_linear_442_32" x1="84.1958" y1="117.141" x2="282.606" y2="273.941" gradientUnits="userSpaceOnUse">
<stop stop-color="white"/>
<stop offset="0.45" stop-color="#FCFDFD"/>
<stop offset="0.81" stop-color="#F2F5F6"/>
<stop offset="1" stop-color="#E9EEF0"/>
</linearGradient>
</defs>
</svg>
