<svg width="297" height="284" viewBox="0 0 297 284" fill="none" xmlns="http://www.w3.org/2000/svg">
<path d="M141.225 2.26122L4.9455 101.261C2.89649 102.75 1.3712 104.849 0.588029 107.258C-0.195143 109.667 -0.19603 112.262 0.585496 114.671L52.6355 274.901C53.4205 277.309 54.9469 279.406 56.9964 280.893C59.0459 282.381 61.5133 283.181 64.0455 283.181H232.495C235.028 283.181 237.495 282.381 239.545 280.893C241.594 279.406 243.121 277.309 243.906 274.901L295.906 114.691C296.688 112.283 296.689 109.689 295.907 107.28C295.126 104.871 293.603 102.772 291.556 101.281L155.275 2.28122C153.233 0.801797 150.776 0.00360243 148.254 1.21649e-05C145.732 -0.0035781 143.272 0.787618 141.225 2.26122Z" fill="url(#paint0_linear_446_37)"/>
<path d="M143.476 27.2715L28.0256 111.152C26.6258 112.159 25.5814 113.585 25.0424 115.224C24.5034 116.862 24.4975 118.629 25.0256 120.272L69.1656 255.992C69.6978 257.631 70.7352 259.059 72.1292 260.072C73.5233 261.085 75.2023 261.631 76.9256 261.632H219.626C221.355 261.637 223.042 261.094 224.443 260.08C225.844 259.067 226.889 257.635 227.426 255.992L271.516 120.272C272.047 118.63 272.042 116.861 271.503 115.222C270.964 113.583 269.918 112.157 268.516 111.152L153.066 27.2715C151.671 26.2621 149.993 25.7188 148.271 25.7188C146.549 25.7188 144.871 26.2621 143.476 27.2715V27.2715Z" fill="url(#paint1_linear_446_37)"/>
<path d="M144.226 32.1209L32.4258 113.361C31.2498 114.216 30.3747 115.422 29.9256 116.805C29.4766 118.188 29.4766 119.678 29.9258 121.061L72.6158 252.511C73.0672 253.892 73.9437 255.096 75.1201 255.949C76.2965 256.802 77.7126 257.261 79.1658 257.261H217.426C218.879 257.263 220.296 256.804 221.473 255.951C222.65 255.097 223.526 253.893 223.976 252.511L266.686 121.061C267.135 119.678 267.135 118.188 266.686 116.805C266.237 115.422 265.362 114.216 264.186 113.361L152.316 32.1209C151.14 31.2679 149.724 30.8086 148.271 30.8086C146.818 30.8086 145.402 31.2679 144.226 32.1209V32.1209Z" fill="url(#paint2_linear_446_37)"/>
<path d="M56.8104 140.21H66.5004V144.8H56.8104V140.21ZM57.2304 152H51.2904V131H67.7604V135.59H57.2304V152ZM80.2285 152.42C77.1285 152.42 74.7085 151.57 72.9685 149.87C71.2285 148.17 70.3585 145.76 70.3585 142.64V131H76.2985V142.46C76.2985 144.26 76.6485 145.55 77.3485 146.33C78.0685 147.11 79.0485 147.5 80.2885 147.5C81.5285 147.5 82.4985 147.11 83.1985 146.33C83.8985 145.55 84.2485 144.26 84.2485 142.46V131H90.0985V142.64C90.0985 145.76 89.2285 148.17 87.4885 149.87C85.7485 151.57 83.3285 152.42 80.2285 152.42ZM94.1225 152V131H99.0125L110.592 144.98H108.282V131H114.102V152H109.212L97.6325 138.02H99.9425V152H94.1225ZM128.762 152.42C127.102 152.42 125.562 152.16 124.142 151.64C122.742 151.1 121.522 150.34 120.482 149.36C119.462 148.38 118.662 147.23 118.082 145.91C117.502 144.57 117.212 143.1 117.212 141.5C117.212 139.9 117.502 138.44 118.082 137.12C118.662 135.78 119.462 134.62 120.482 133.64C121.522 132.66 122.742 131.91 124.142 131.39C125.562 130.85 127.102 130.58 128.762 130.58C130.702 130.58 132.432 130.92 133.952 131.6C135.492 132.28 136.772 133.26 137.792 134.54L134.012 137.96C133.332 137.16 132.582 136.55 131.762 136.13C130.962 135.71 130.062 135.5 129.062 135.5C128.202 135.5 127.412 135.64 126.692 135.92C125.972 136.2 125.352 136.61 124.832 137.15C124.332 137.67 123.932 138.3 123.632 139.04C123.352 139.78 123.212 140.6 123.212 141.5C123.212 142.4 123.352 143.22 123.632 143.96C123.932 144.7 124.332 145.34 124.832 145.88C125.352 146.4 125.972 146.8 126.692 147.08C127.412 147.36 128.202 147.5 129.062 147.5C130.062 147.5 130.962 147.29 131.762 146.87C132.582 146.45 133.332 145.84 134.012 145.04L137.792 148.46C136.772 149.72 135.492 150.7 133.952 151.4C132.432 152.08 130.702 152.42 128.762 152.42ZM144.735 152V135.71H138.285V131H157.095V135.71H150.675V152H144.735ZM159.308 152V131H165.248V152H159.308ZM180.064 152.42C178.384 152.42 176.834 152.15 175.414 151.61C173.994 151.07 172.754 150.31 171.694 149.33C170.654 148.33 169.844 147.17 169.264 145.85C168.684 144.53 168.394 143.08 168.394 141.5C168.394 139.92 168.684 138.47 169.264 137.15C169.844 135.83 170.654 134.68 171.694 133.7C172.754 132.7 173.994 131.93 175.414 131.39C176.834 130.85 178.384 130.58 180.064 130.58C181.764 130.58 183.314 130.85 184.714 131.39C186.134 131.93 187.364 132.7 188.404 133.7C189.444 134.68 190.254 135.83 190.834 137.15C191.434 138.47 191.734 139.92 191.734 141.5C191.734 143.08 191.434 144.54 190.834 145.88C190.254 147.2 189.444 148.35 188.404 149.33C187.364 150.31 186.134 151.07 184.714 151.61C183.314 152.15 181.764 152.42 180.064 152.42ZM180.064 147.5C180.864 147.5 181.604 147.36 182.284 147.08C182.984 146.8 183.584 146.4 184.084 145.88C184.604 145.34 185.004 144.7 185.284 143.96C185.584 143.22 185.734 142.4 185.734 141.5C185.734 140.58 185.584 139.76 185.284 139.04C185.004 138.3 184.604 137.67 184.084 137.15C183.584 136.61 182.984 136.2 182.284 135.92C181.604 135.64 180.864 135.5 180.064 135.5C179.264 135.5 178.514 135.64 177.814 135.92C177.134 136.2 176.534 136.61 176.014 137.15C175.514 137.67 175.114 138.3 174.814 139.04C174.534 139.76 174.394 140.58 174.394 141.5C174.394 142.4 174.534 143.22 174.814 143.96C175.114 144.7 175.514 145.34 176.014 145.88C176.534 146.4 177.134 146.8 177.814 147.08C178.514 147.36 179.264 147.5 180.064 147.5ZM194.845 152V131H199.735L211.315 144.98H209.005V131H214.825V152H209.935L198.355 138.02H200.665V152H194.845ZM216.495 152L225.765 131H231.615L240.915 152H234.735L227.475 133.91H229.815L222.555 152H216.495ZM221.565 147.92L223.095 143.54H233.355L234.885 147.92H221.565ZM242.599 152V131H248.539V147.29H258.559V152H242.599ZM121.883 190V173.71H115.433V169H134.243V173.71H127.823V190H121.883ZM141.916 177.13H151.666V181.57H141.916V177.13ZM142.336 185.41H153.316V190H136.456V169H152.926V173.59H142.336V185.41ZM163.993 190.42C162.273 190.42 160.613 190.21 159.013 189.79C157.433 189.35 156.143 188.79 155.143 188.11L157.093 183.73C158.033 184.33 159.113 184.83 160.333 185.23C161.573 185.61 162.803 185.8 164.023 185.8C164.843 185.8 165.503 185.73 166.003 185.59C166.503 185.43 166.863 185.23 167.083 184.99C167.323 184.73 167.443 184.43 167.443 184.09C167.443 183.61 167.223 183.23 166.783 182.95C166.343 182.67 165.773 182.44 165.073 182.26C164.373 182.08 163.593 181.9 162.733 181.72C161.893 181.54 161.043 181.31 160.183 181.03C159.343 180.75 158.573 180.39 157.873 179.95C157.173 179.49 156.603 178.9 156.163 178.18C155.723 177.44 155.503 176.51 155.503 175.39C155.503 174.13 155.843 172.99 156.523 171.97C157.223 170.95 158.263 170.13 159.643 169.51C161.023 168.89 162.743 168.58 164.803 168.58C166.183 168.58 167.533 168.74 168.853 169.06C170.193 169.36 171.383 169.81 172.423 170.41L170.593 174.82C169.593 174.28 168.603 173.88 167.623 173.62C166.643 173.34 165.693 173.2 164.773 173.2C163.953 173.2 163.293 173.29 162.793 173.47C162.293 173.63 161.933 173.85 161.713 174.13C161.493 174.41 161.383 174.73 161.383 175.09C161.383 175.55 161.593 175.92 162.013 176.2C162.453 176.46 163.023 176.68 163.723 176.86C164.443 177.02 165.223 177.19 166.063 177.37C166.923 177.55 167.773 177.78 168.613 178.06C169.473 178.32 170.253 178.68 170.953 179.14C171.653 179.58 172.213 180.17 172.633 180.91C173.073 181.63 173.293 182.54 173.293 183.64C173.293 184.86 172.943 185.99 172.243 187.03C171.563 188.05 170.533 188.87 169.153 189.49C167.793 190.11 166.073 190.42 163.993 190.42ZM180.214 190V173.71H173.764V169H192.574V173.71H186.154V190H180.214Z" fill="#4C4C4C"/>
<defs>
<linearGradient id="paint0_linear_446_37" x1="148.276" y1="4.27122" x2="148.276" y2="282.771" gradientUnits="userSpaceOnUse">
<stop offset="0.03" stop-color="#5193BB"/>
<stop offset="0.1" stop-color="#6794AB"/>
<stop offset="0.31" stop-color="#AA987B"/>
<stop offset="0.46" stop-color="#D49A5D"/>
<stop offset="0.54" stop-color="#E49B52"/>
<stop offset="0.6" stop-color="#DF9B55"/>
<stop offset="0.67" stop-color="#D29A5F"/>
<stop offset="0.74" stop-color="#BC996F"/>
<stop offset="0.81" stop-color="#9C9785"/>
<stop offset="0.89" stop-color="#7495A2"/>
<stop offset="0.97" stop-color="#4492C5"/>
<stop offset="0.98" stop-color="#3F92C8"/>
</linearGradient>
<linearGradient id="paint1_linear_446_37" x1="196.236" y1="298.692" x2="130.046" y2="48.9815" gradientUnits="userSpaceOnUse">
<stop stop-color="white"/>
<stop offset="0.45" stop-color="#FCFDFD"/>
<stop offset="0.81" stop-color="#F2F5F6"/>
<stop offset="1" stop-color="#E9EEF0"/>
</linearGradient>
<linearGradient id="paint2_linear_446_37" x1="84.1958" y1="117.141" x2="282.606" y2="273.941" gradientUnits="userSpaceOnUse">
<stop stop-color="white"/>
<stop offset="0.45" stop-color="#FCFDFD"/>
<stop offset="0.81" stop-color="#F2F5F6"/>
<stop offset="1" stop-color="#E9EEF0"/>
</linearGradient>
</defs>
</svg>
