<svg width="522" height="457" viewBox="0 0 522 457" fill="none" xmlns="http://www.w3.org/2000/svg">
<path d="M382.845 5.17548e-07H138.906C135.937 -0.000734238 133.021 0.780885 130.451 2.26611C127.88 3.75134 125.747 5.88773 124.266 8.46001L2.2655 219.71C0.78134 222.281 0 225.197 0 228.165C0 231.133 0.78134 234.049 2.2655 236.62L124.266 447.88C125.749 450.45 127.883 452.584 130.453 454.067C133.023 455.55 135.938 456.331 138.906 456.33H382.845C385.813 456.331 388.728 455.55 391.298 454.067C393.868 452.584 396.002 450.45 397.486 447.88L519.486 236.62C520.97 234.049 521.751 231.133 521.751 228.165C521.751 225.197 520.97 222.281 519.486 219.71L397.486 8.46001C396.004 5.88773 393.87 3.75134 391.3 2.26611C388.73 0.780885 385.814 -0.000734238 382.845 5.17548e-07Z" fill="url(#paint0_linear_430_3)"/>
<path d="M363.817 38.9302H157.937C156.017 38.9309 154.132 39.4368 152.469 40.3969C150.807 41.3571 149.427 42.7377 148.467 44.4002L45.527 222.7C44.5638 224.362 44.0566 226.249 44.0566 228.17C44.0566 230.091 44.5638 231.978 45.527 233.64L148.467 411.93C149.425 413.594 150.805 414.976 152.468 415.936C154.131 416.896 156.017 417.401 157.937 417.4H363.817C365.737 417.401 367.624 416.896 369.286 415.936C370.949 414.976 372.329 413.594 373.287 411.93L476.227 233.64C477.19 231.978 477.697 230.091 477.697 228.17C477.697 226.249 477.19 224.362 476.227 222.7L373.287 44.4002C372.327 42.7377 370.947 41.3571 369.284 40.3969C367.622 39.4368 365.737 38.9309 363.817 38.9302Z" fill="url(#paint1_linear_430_3)"/>
<path d="M460.427 249.33L378.947 390.38C375.238 396.813 369.899 402.154 363.468 405.867C357.038 409.58 349.742 411.533 342.317 411.53H179.437C172.011 411.535 164.715 409.582 158.285 405.869C151.854 402.156 146.515 396.813 142.807 390.38L61.3269 249.38C58.3132 244.149 56.4509 238.335 55.8646 232.327C55.2782 226.319 55.9814 220.255 57.927 214.54C58.3973 213.177 58.9447 211.841 59.5668 210.54C60.0865 209.319 60.6914 208.136 61.3769 207L64.6469 201.33L66.9569 197.33L72.187 188.24L74.4969 184.24L79.7669 175.11L82.0769 171.11L87.3469 161.97L89.6669 157.97L94.927 148.83L97.2469 144.83L102.517 135.73L104.827 131.73L110.097 122.6L112.407 118.6L117.677 109.47L119.987 105.47L125.217 96.3699L127.527 92.3699L132.797 83.2299L135.117 79.2299L140.377 70.0899L142.697 66.0899L142.857 65.8099C144.732 62.5707 147.025 59.5919 149.677 56.9499C151.131 55.5008 152.692 54.1637 154.347 52.9499C161.618 47.5556 170.433 44.6454 179.487 44.6499H342.367C351.421 44.6454 360.235 47.5556 367.507 52.9499C369.162 54.1637 370.723 55.5008 372.177 56.9499C374.828 59.5919 377.121 62.5707 378.997 65.8099L379.157 66.0899L381.477 70.0899L386.737 79.2299L389.057 83.2299L394.327 92.3699L396.637 96.3699L401.867 105.47L404.177 109.47L409.447 118.6L411.757 122.6L417.027 131.73L419.337 135.73L424.607 144.83L426.927 148.83L432.187 157.97L434.507 161.97L439.767 171.11L442.087 175.11L447.357 184.24L449.667 188.24L454.897 197.33L457.207 201.33L460.477 207C461.143 208.115 461.731 209.274 462.237 210.47C462.859 211.771 463.407 213.107 463.877 214.47C465.818 220.191 466.514 226.261 465.919 232.273C465.324 238.285 463.452 244.1 460.427 249.33V249.33Z" fill="url(#paint2_linear_430_3)"/>
<g style="mix-blend-mode:multiply" opacity="0.06">
<path d="M372.125 57.0698H149.625C151.079 55.6207 152.64 54.2836 154.295 53.0698H367.455C369.11 54.2836 370.671 55.6207 372.125 57.0698V57.0698Z" fill="#375A64"/>
<path d="M381.426 70.2H140.326L142.646 66.21H379.106L381.426 70.2Z" fill="#375A64"/>
<path d="M389.006 83.3298H132.746L135.066 79.3398H386.686L389.006 83.3298Z" fill="#375A64"/>
<path d="M396.586 96.4597H125.166L127.476 92.4697H394.266L396.586 96.4597Z" fill="#375A64"/>
<path d="M404.125 109.55H117.625L119.935 105.56H401.815L404.125 109.55Z" fill="#375A64"/>
<path d="M411.705 122.68H110.045L112.355 118.69H409.395L411.705 122.68Z" fill="#375A64"/>
<path d="M419.285 135.8H102.465L104.775 131.81H416.975L419.285 135.8Z" fill="#375A64"/>
<path d="M426.875 148.89H94.875L97.1949 144.9H424.555L426.875 148.89Z" fill="#375A64"/>
<path d="M434.455 162.02H87.2949L89.6149 158.03H432.135L434.455 162.02Z" fill="#375A64"/>
<path d="M442.035 175.15H79.7148L82.0249 171.16H439.715L442.035 175.15Z" fill="#375A64"/>
<path d="M449.617 188.27H72.1367L74.4467 184.29H447.307L449.617 188.27Z" fill="#375A64"/>
<path d="M457.156 201.36H64.5957L66.9058 197.37H454.846L457.156 201.36Z" fill="#375A64"/>
<path d="M463.826 214.49H57.9258C58.3961 213.126 58.9435 211.791 59.5657 210.49H462.186C462.808 211.791 463.355 213.126 463.826 214.49V214.49Z" fill="#375A64"/>
</g>
<path d="M126.496 161V121.1H144.736C148.384 121.1 151.519 121.689 154.141 122.867C156.801 124.045 158.853 125.755 160.297 127.997C161.741 130.201 162.463 132.823 162.463 135.863C162.463 138.865 161.741 141.468 160.297 143.672C158.853 145.876 156.801 147.586 154.141 148.802C151.519 149.98 148.384 150.569 144.736 150.569H132.766L137.782 145.667V161H126.496ZM137.782 146.864L132.766 141.677H144.052C146.408 141.677 148.156 141.164 149.296 140.138C150.474 139.112 151.063 137.687 151.063 135.863C151.063 134.001 150.474 132.557 149.296 131.531C148.156 130.505 146.408 129.992 144.052 129.992H132.766L137.782 124.805V146.864ZM167.966 161V121.1H186.206C189.854 121.1 192.989 121.689 195.611 122.867C198.271 124.045 200.323 125.755 201.767 127.997C203.211 130.201 203.933 132.823 203.933 135.863C203.933 138.865 203.211 141.468 201.767 143.672C200.323 145.838 198.271 147.51 195.611 148.688C192.989 149.828 189.854 150.398 186.206 150.398H174.236L179.252 145.667V161H167.966ZM192.647 161L182.729 146.465H194.756L204.731 161H192.647ZM179.252 146.864L174.236 141.677H185.522C187.878 141.677 189.626 141.164 190.766 140.138C191.944 139.112 192.533 137.687 192.533 135.863C192.533 134.001 191.944 132.557 190.766 131.531C189.626 130.505 187.878 129.992 185.522 129.992H174.236L179.252 124.805V146.864ZM230.28 161.798C227.088 161.798 224.143 161.285 221.445 160.259C218.747 159.233 216.391 157.789 214.377 155.927C212.401 154.027 210.862 151.823 209.76 149.315C208.658 146.807 208.107 144.052 208.107 141.05C208.107 138.048 208.658 135.293 209.76 132.785C210.862 130.277 212.401 128.092 214.377 126.23C216.391 124.33 218.747 122.867 221.445 121.841C224.143 120.815 227.088 120.302 230.28 120.302C233.51 120.302 236.455 120.815 239.115 121.841C241.813 122.867 244.15 124.33 246.126 126.23C248.102 128.092 249.641 130.277 250.743 132.785C251.883 135.293 252.453 138.048 252.453 141.05C252.453 144.052 251.883 146.826 250.743 149.372C249.641 151.88 248.102 154.065 246.126 155.927C244.15 157.789 241.813 159.233 239.115 160.259C236.455 161.285 233.51 161.798 230.28 161.798ZM230.28 152.45C231.8 152.45 233.206 152.184 234.498 151.652C235.828 151.12 236.968 150.36 237.918 149.372C238.906 148.346 239.666 147.13 240.198 145.724C240.768 144.318 241.053 142.76 241.053 141.05C241.053 139.302 240.768 137.744 240.198 136.376C239.666 134.97 238.906 133.773 237.918 132.785C236.968 131.759 235.828 130.98 234.498 130.448C233.206 129.916 231.8 129.65 230.28 129.65C228.76 129.65 227.335 129.916 226.005 130.448C224.713 130.98 223.573 131.759 222.585 132.785C221.635 133.773 220.875 134.97 220.305 136.376C219.773 137.744 219.507 139.302 219.507 141.05C219.507 142.76 219.773 144.318 220.305 145.724C220.875 147.13 221.635 148.346 222.585 149.372C223.573 150.36 224.713 151.12 226.005 151.652C227.335 152.184 228.76 152.45 230.28 152.45ZM266.25 161.798C263.324 161.798 260.664 161.304 258.27 160.316C255.914 159.29 253.957 157.827 252.399 155.927L258.555 148.631C259.619 149.999 260.721 151.044 261.861 151.766C263.001 152.45 264.198 152.792 265.452 152.792C268.796 152.792 270.468 150.854 270.468 146.978V129.821H256.674V121.1H281.64V146.294C281.64 151.5 280.329 155.395 277.707 157.979C275.085 160.525 271.266 161.798 266.25 161.798ZM299.632 136.547H318.157V144.983H299.632V136.547ZM300.43 152.279H321.292V161H289.258V121.1H320.551V129.821H300.43V152.279ZM347.447 161.798C344.293 161.798 341.367 161.304 338.669 160.316C336.009 159.29 333.691 157.846 331.715 155.984C329.777 154.122 328.257 151.937 327.155 149.429C326.053 146.883 325.502 144.09 325.502 141.05C325.502 138.01 326.053 135.236 327.155 132.728C328.257 130.182 329.777 127.978 331.715 126.116C333.691 124.254 336.009 122.829 338.669 121.841C341.367 120.815 344.293 120.302 347.447 120.302C351.133 120.302 354.42 120.948 357.308 122.24C360.234 123.532 362.666 125.394 364.604 127.826L357.422 134.324C356.13 132.804 354.705 131.645 353.147 130.847C351.627 130.049 349.917 129.65 348.017 129.65C346.383 129.65 344.882 129.916 343.514 130.448C342.146 130.98 340.968 131.759 339.98 132.785C339.03 133.773 338.27 134.97 337.7 136.376C337.168 137.782 336.902 139.34 336.902 141.05C336.902 142.76 337.168 144.318 337.7 145.724C338.27 147.13 339.03 148.346 339.98 149.372C340.968 150.36 342.146 151.12 343.514 151.652C344.882 152.184 346.383 152.45 348.017 152.45C349.917 152.45 351.627 152.051 353.147 151.253C354.705 150.455 356.13 149.296 357.422 147.776L364.604 154.274C362.666 156.668 360.234 158.53 357.308 159.86C354.42 161.152 351.133 161.798 347.447 161.798ZM377.796 161V130.049H365.541V121.1H401.28V130.049H389.082V161H377.796ZM109.129 230V190.1H118.42L134.95 217.232H130.048L146.122 190.1H155.413L155.527 230H145.153L145.039 205.889H146.806L134.779 226.067H129.763L117.394 205.889H119.56V230H109.129ZM158.724 230L176.337 190.1H187.452L205.122 230H193.38L179.586 195.629H184.032L170.238 230H158.724ZM168.357 222.248L171.264 213.926H190.758L193.665 222.248H168.357ZM208.322 230V190.1H217.613L239.615 216.662H235.226V190.1H246.284V230H236.993L214.991 203.438H219.38V230H208.322ZM249.457 230L267.07 190.1H278.185L295.855 230H284.113L270.319 195.629H274.765L260.971 230H249.457ZM259.09 222.248L261.997 213.926H281.491L284.398 222.248H259.09ZM318.448 230.798C315.294 230.798 312.368 230.304 309.67 229.316C306.972 228.29 304.635 226.846 302.659 224.984C300.721 223.122 299.201 220.937 298.099 218.429C296.997 215.883 296.446 213.09 296.446 210.05C296.446 207.01 296.997 204.236 298.099 201.728C299.201 199.182 300.74 196.978 302.716 195.116C304.692 193.254 307.029 191.829 309.727 190.841C312.463 189.815 315.446 189.302 318.676 189.302C322.438 189.302 325.801 189.929 328.765 191.183C331.729 192.437 334.18 194.242 336.118 196.598L328.936 203.096C327.568 201.614 326.086 200.512 324.49 199.79C322.932 199.03 321.184 198.65 319.246 198.65C317.536 198.65 315.978 198.916 314.572 199.448C313.166 199.98 311.969 200.759 310.981 201.785C309.993 202.773 309.214 203.97 308.644 205.376C308.112 206.744 307.846 208.302 307.846 210.05C307.846 211.722 308.112 213.261 308.644 214.667C309.214 216.073 309.993 217.289 310.981 218.315C311.969 219.303 313.147 220.082 314.515 220.652C315.921 221.184 317.46 221.45 319.132 221.45C320.804 221.45 322.438 221.184 324.034 220.652C325.63 220.082 327.245 219.132 328.879 217.802L335.206 225.725C332.926 227.359 330.285 228.613 327.283 229.487C324.281 230.361 321.336 230.798 318.448 230.798ZM325.231 224.243V209.195H335.206V225.725L325.231 224.243ZM352.735 205.547H371.26V213.983H352.735V205.547ZM353.533 221.279H374.395V230H342.361V190.1H373.654V198.821H353.533V221.279ZM380.658 230V190.1H398.898C402.546 190.1 405.681 190.689 408.303 191.867C410.963 193.045 413.015 194.755 414.459 196.997C415.903 199.201 416.625 201.823 416.625 204.863C416.625 207.865 415.903 210.468 414.459 212.672C413.015 214.838 410.963 216.51 408.303 217.688C405.681 218.828 402.546 219.398 398.898 219.398H386.928L391.944 214.667V230H380.658ZM405.339 230L395.421 215.465H407.448L417.423 230H405.339ZM391.944 215.864L386.928 210.677H398.214C400.57 210.677 402.318 210.164 403.458 209.138C404.636 208.112 405.225 206.687 405.225 204.863C405.225 203.001 404.636 201.557 403.458 200.531C402.318 199.505 400.57 198.992 398.214 198.992H386.928L391.944 193.805V215.864Z" fill="#4C4C4C"/>
<path d="M169.579 299.56C167.01 299.56 164.55 299.2 162.2 298.479C159.85 297.727 157.986 296.771 156.607 295.612L158.722 290.865C160.038 291.899 161.667 292.761 163.61 293.45C165.553 294.139 167.542 294.484 169.579 294.484C171.302 294.484 172.697 294.296 173.762 293.92C174.827 293.544 175.611 293.043 176.112 292.416C176.613 291.758 176.864 291.022 176.864 290.207C176.864 289.204 176.504 288.405 175.783 287.81C175.062 287.183 174.122 286.698 172.963 286.353C171.835 285.977 170.566 285.632 169.156 285.319C167.777 285.006 166.383 284.645 164.973 284.238C163.594 283.799 162.325 283.251 161.166 282.593C160.038 281.904 159.114 280.995 158.393 279.867C157.672 278.739 157.312 277.298 157.312 275.543C157.312 273.757 157.782 272.128 158.722 270.655C159.693 269.151 161.15 267.96 163.093 267.083C165.067 266.174 167.558 265.72 170.566 265.72C172.54 265.72 174.498 265.971 176.441 266.472C178.384 266.973 180.076 267.694 181.517 268.634L179.59 273.381C178.117 272.504 176.598 271.861 175.031 271.454C173.464 271.015 171.96 270.796 170.519 270.796C168.827 270.796 167.448 271 166.383 271.407C165.349 271.814 164.581 272.347 164.08 273.005C163.61 273.663 163.375 274.415 163.375 275.261C163.375 276.264 163.72 277.078 164.409 277.705C165.13 278.3 166.054 278.77 167.182 279.115C168.341 279.46 169.626 279.804 171.036 280.149C172.446 280.462 173.84 280.823 175.219 281.23C176.629 281.637 177.898 282.17 179.026 282.828C180.185 283.486 181.11 284.379 181.799 285.507C182.52 286.635 182.88 288.061 182.88 289.784C182.88 291.539 182.394 293.168 181.423 294.672C180.483 296.145 179.026 297.335 177.052 298.244C175.078 299.121 172.587 299.56 169.579 299.56ZM184.286 299.09L199.091 266.19H205.107L219.959 299.09H213.567L200.83 269.433H203.274L190.584 299.09H184.286ZM191.101 291.476L192.746 286.682H210.512L212.157 291.476H191.101ZM224.143 299.09V266.19H229.172L249.805 291.523H247.314V266.19H253.377V299.09H248.348L227.715 273.757H230.206V299.09H224.143ZM262.192 299.09V266.19H276.574C280.146 266.19 283.28 266.879 285.974 268.258C288.669 269.637 290.768 271.548 292.272 273.992C293.776 276.436 294.528 279.319 294.528 282.64C294.528 285.93 293.776 288.813 292.272 291.288C290.768 293.732 288.669 295.643 285.974 297.022C283.28 298.401 280.146 299.09 276.574 299.09H262.192ZM268.302 293.92H276.292C278.768 293.92 280.898 293.45 282.684 292.51C284.502 291.57 285.896 290.254 286.867 288.562C287.87 286.87 288.371 284.896 288.371 282.64C288.371 280.353 287.87 278.379 286.867 276.718C285.896 275.026 284.502 273.71 282.684 272.77C280.898 271.83 278.768 271.36 276.292 271.36H268.302V293.92ZM301.022 299.09V266.19H314.558C317.472 266.19 319.963 266.66 322.031 267.6C324.131 268.54 325.744 269.887 326.872 271.642C328 273.397 328.564 275.48 328.564 277.893C328.564 280.306 328 282.389 326.872 284.144C325.744 285.867 324.131 287.199 322.031 288.139C319.963 289.048 317.472 289.502 314.558 289.502H304.406L307.132 286.729V299.09H301.022ZM322.548 299.09L314.229 287.152H320.762L329.128 299.09H322.548ZM307.132 287.387L304.406 284.473H314.276C316.971 284.473 318.992 283.893 320.339 282.734C321.718 281.575 322.407 279.961 322.407 277.893C322.407 275.794 321.718 274.18 320.339 273.052C318.992 271.924 316.971 271.36 314.276 271.36H304.406L307.132 268.352V287.387ZM330.747 299.09L345.552 266.19H351.568L366.42 299.09H360.028L347.291 269.433H349.735L337.045 299.09H330.747ZM337.562 291.476L339.207 286.682H356.973L358.618 291.476H337.562ZM187.827 356.56C185.32 356.56 182.986 356.153 180.824 355.338C178.693 354.492 176.829 353.317 175.231 351.813C173.664 350.278 172.442 348.476 171.565 346.408C170.687 344.34 170.249 342.084 170.249 339.64C170.249 337.196 170.687 334.94 171.565 332.872C172.442 330.804 173.68 329.018 175.278 327.514C176.876 325.979 178.74 324.804 180.871 323.989C183.001 323.143 185.336 322.72 187.874 322.72C190.568 322.72 193.028 323.19 195.253 324.13C197.477 325.039 199.357 326.402 200.893 328.219L196.945 331.932C195.754 330.647 194.422 329.692 192.95 329.065C191.477 328.407 189.879 328.078 188.156 328.078C186.432 328.078 184.85 328.36 183.409 328.924C181.999 329.488 180.761 330.287 179.696 331.321C178.662 332.355 177.847 333.577 177.252 334.987C176.688 336.397 176.406 337.948 176.406 339.64C176.406 341.332 176.688 342.883 177.252 344.293C177.847 345.703 178.662 346.925 179.696 347.959C180.761 348.993 181.999 349.792 183.409 350.356C184.85 350.92 186.432 351.202 188.156 351.202C189.879 351.202 191.477 350.889 192.95 350.262C194.422 349.604 195.754 348.617 196.945 347.301L200.893 351.061C199.357 352.847 197.477 354.21 195.253 355.15C193.028 356.09 190.553 356.56 187.827 356.56ZM229.871 323.19H235.981V356.09H229.871V323.19ZM212.857 356.09H206.747V323.19H212.857V356.09ZM230.341 341.99H212.34V336.773H230.341V341.99ZM240.144 356.09L254.949 323.19H260.965L275.817 356.09H269.425L256.688 326.433H259.132L246.442 356.09H240.144ZM246.959 348.476L248.604 343.682H266.37L268.015 348.476H246.959ZM280.001 356.09V323.19H286.111V350.92H303.313V356.09H280.001ZM308.137 356.09V323.19H314.247V356.09H308.137ZM328.598 348.335L328.269 341.097L345.518 323.19H352.38L338.045 338.418L334.661 342.131L328.598 348.335ZM323.146 356.09V323.19H329.256V356.09H323.146ZM346.082 356.09L333.486 341.097L337.528 336.632L353.226 356.09H346.082Z" fill="#999999"/>
<defs>
<linearGradient id="paint0_linear_430_3" x1="201.465" y1="110.07" x2="306.786" y2="319.42" gradientUnits="userSpaceOnUse">
<stop stop-color="#ACCFEA"/>
<stop offset="0.13" stop-color="#9EC2DE"/>
<stop offset="0.38" stop-color="#79A1BF"/>
<stop offset="0.71" stop-color="#3E6B8C"/>
<stop offset="1" stop-color="#04365B"/>
</linearGradient>
<linearGradient id="paint1_linear_430_3" x1="260.877" y1="275.88" x2="260.877" y2="188.84" gradientUnits="userSpaceOnUse">
<stop stop-color="white"/>
<stop offset="0.45" stop-color="#FCFDFD"/>
<stop offset="0.81" stop-color="#F2F5F6"/>
<stop offset="1" stop-color="#E9EEF0"/>
</linearGradient>
<linearGradient id="paint2_linear_430_3" x1="88.4869" y1="73.8399" x2="443.067" y2="391.26" gradientUnits="userSpaceOnUse">
<stop stop-color="white"/>
<stop offset="0.45" stop-color="#FCFDFD"/>
<stop offset="0.81" stop-color="#F2F5F6"/>
<stop offset="1" stop-color="#E9EEF0"/>
</linearGradient>
</defs>
</svg>
