<svg width="297" height="284" viewBox="0 0 297 284" fill="none" xmlns="http://www.w3.org/2000/svg">
<path d="M141.225 2.26122L4.9455 101.261C2.89649 102.75 1.3712 104.849 0.588029 107.258C-0.195143 109.667 -0.19603 112.262 0.585496 114.671L52.6355 274.901C53.4205 277.309 54.9469 279.406 56.9964 280.893C59.0459 282.381 61.5133 283.181 64.0455 283.181H232.495C235.028 283.181 237.495 282.381 239.545 280.893C241.594 279.406 243.121 277.309 243.906 274.901L295.906 114.691C296.688 112.283 296.689 109.689 295.907 107.28C295.126 104.871 293.603 102.772 291.556 101.281L155.275 2.28122C153.233 0.801797 150.776 0.00360243 148.254 1.21649e-05C145.732 -0.0035781 143.272 0.787618 141.225 2.26122Z" fill="url(#paint0_linear_425_4)"/>
<path d="M143.475 27.2715L28.0246 111.152C26.6248 112.159 25.5804 113.585 25.0414 115.224C24.5024 116.862 24.4965 118.629 25.0246 120.272L69.1646 255.992C69.6968 257.631 70.7343 259.059 72.1283 260.072C73.5223 261.085 75.2013 261.631 76.9246 261.632H219.625C221.354 261.637 223.041 261.094 224.442 260.08C225.843 259.067 226.888 257.635 227.425 255.992L271.515 120.272C272.046 118.63 272.042 116.861 271.502 115.222C270.963 113.583 269.917 112.157 268.515 111.152L153.065 27.2715C151.67 26.2621 149.992 25.7188 148.27 25.7188C146.548 25.7188 144.87 26.2621 143.475 27.2715Z" fill="url(#paint1_linear_425_4)"/>
<path d="M144.227 32.1209L32.4268 113.361C31.2508 114.216 30.3757 115.422 29.9266 116.805C29.4775 118.188 29.4776 119.678 29.9268 121.061L72.6168 252.511C73.0681 253.892 73.9447 255.096 75.1211 255.949C76.2975 256.802 77.7136 257.261 79.1668 257.261H217.427C218.88 257.263 220.297 256.804 221.474 255.951C222.651 255.097 223.527 253.893 223.977 252.511L266.687 121.061C267.136 119.678 267.136 118.188 266.687 116.805C266.238 115.422 265.363 114.216 264.187 113.361L152.317 32.1209C151.141 31.2679 149.725 30.8086 148.272 30.8086C146.819 30.8086 145.403 31.2679 144.227 32.1209Z" fill="url(#paint2_linear_425_4)"/>
<path d="M41.0211 130V116H44.9811V130H41.0211ZM47.7984 130V116H51.0584L58.7784 125.32H57.2384V116H61.1184V130H57.8584L50.1384 120.68H51.6784V130H47.7984ZM66.8917 130V119.14H62.5917V116H75.1317V119.14H70.8517V130H66.8917ZM80.247 121.42H86.747V124.38H80.247V121.42ZM80.527 126.94H87.847V130H76.607V116H87.587V119.06H80.527V126.94ZM90.0445 130V116H96.4445C97.7245 116 98.8245 116.207 99.7445 116.62C100.678 117.033 101.398 117.633 101.905 118.42C102.411 119.193 102.665 120.113 102.665 121.18C102.665 122.233 102.411 123.147 101.905 123.92C101.398 124.68 100.678 125.267 99.7445 125.68C98.8245 126.08 97.7245 126.28 96.4445 126.28H92.2445L94.0045 124.62V130H90.0445ZM98.7045 130L95.2245 124.9H99.4445L102.945 130H98.7045ZM94.0045 125.04L92.2445 123.22H96.2045C97.0312 123.22 97.6445 123.04 98.0445 122.68C98.4579 122.32 98.6645 121.82 98.6645 121.18C98.6645 120.527 98.4579 120.02 98.0445 119.66C97.6445 119.3 97.0312 119.12 96.2045 119.12H92.2445L94.0045 117.3V125.04ZM104.849 130V116H108.109L115.829 125.32H114.289V116H118.169V130H114.909L107.189 120.68H108.729V130H104.849ZM119.282 130L125.463 116H129.363L135.563 130H131.443L126.603 117.94H128.163L123.323 130H119.282ZM122.663 127.28L123.683 124.36H130.523L131.543 127.28H122.663ZM136.685 130V116H140.645V126.86H147.325V130H136.685ZM153.032 130L159.213 116H163.113L169.313 130H165.193L160.353 117.94H161.913L157.073 130H153.032ZM156.413 127.28L157.433 124.36H164.273L165.293 127.28H156.413ZM177.22 130.28C176.113 130.28 175.087 130.107 174.14 129.76C173.207 129.4 172.393 128.893 171.7 128.24C171.02 127.587 170.487 126.82 170.1 125.94C169.713 125.047 169.52 124.067 169.52 123C169.52 121.933 169.713 120.96 170.1 120.08C170.487 119.187 171.02 118.413 171.7 117.76C172.393 117.107 173.207 116.607 174.14 116.26C175.087 115.9 176.113 115.72 177.22 115.72C178.513 115.72 179.667 115.947 180.68 116.4C181.707 116.853 182.56 117.507 183.24 118.36L180.72 120.64C180.267 120.107 179.767 119.7 179.22 119.42C178.687 119.14 178.087 119 177.42 119C176.847 119 176.32 119.093 175.84 119.28C175.36 119.467 174.947 119.74 174.6 120.1C174.267 120.447 174 120.867 173.8 121.36C173.613 121.853 173.52 122.4 173.52 123C173.52 123.6 173.613 124.147 173.8 124.64C174 125.133 174.267 125.56 174.6 125.92C174.947 126.267 175.36 126.533 175.84 126.72C176.32 126.907 176.847 127 177.42 127C178.087 127 178.687 126.86 179.22 126.58C179.767 126.3 180.267 125.893 180.72 125.36L183.24 127.64C182.56 128.48 181.707 129.133 180.68 129.6C179.667 130.053 178.513 130.28 177.22 130.28ZM191.693 130.28C190.586 130.28 189.559 130.107 188.613 129.76C187.679 129.4 186.866 128.893 186.173 128.24C185.493 127.587 184.959 126.82 184.573 125.94C184.186 125.047 183.993 124.067 183.993 123C183.993 121.933 184.186 120.96 184.573 120.08C184.959 119.187 185.493 118.413 186.173 117.76C186.866 117.107 187.679 116.607 188.613 116.26C189.559 115.9 190.586 115.72 191.693 115.72C192.986 115.72 194.139 115.947 195.153 116.4C196.179 116.853 197.033 117.507 197.713 118.36L195.193 120.64C194.739 120.107 194.239 119.7 193.693 119.42C193.159 119.14 192.559 119 191.893 119C191.319 119 190.793 119.093 190.313 119.28C189.833 119.467 189.419 119.74 189.073 120.1C188.739 120.447 188.473 120.867 188.273 121.36C188.086 121.853 187.993 122.4 187.993 123C187.993 123.6 188.086 124.147 188.273 124.64C188.473 125.133 188.739 125.56 189.073 125.92C189.419 126.267 189.833 126.533 190.313 126.72C190.793 126.907 191.319 127 191.893 127C192.559 127 193.159 126.86 193.693 126.58C194.239 126.3 194.739 125.893 195.193 125.36L197.713 127.64C197.033 128.48 196.179 129.133 195.153 129.6C194.139 130.053 192.986 130.28 191.693 130.28ZM206.245 130.28C205.125 130.28 204.092 130.1 203.145 129.74C202.198 129.38 201.372 128.873 200.665 128.22C199.972 127.553 199.432 126.78 199.045 125.9C198.658 125.02 198.465 124.053 198.465 123C198.465 121.947 198.658 120.98 199.045 120.1C199.432 119.22 199.972 118.453 200.665 117.8C201.372 117.133 202.198 116.62 203.145 116.26C204.092 115.9 205.125 115.72 206.245 115.72C207.378 115.72 208.412 115.9 209.345 116.26C210.292 116.62 211.112 117.133 211.805 117.8C212.498 118.453 213.038 119.22 213.425 120.1C213.825 120.98 214.025 121.947 214.025 123C214.025 124.053 213.825 125.027 213.425 125.92C213.038 126.8 212.498 127.567 211.805 128.22C211.112 128.873 210.292 129.38 209.345 129.74C208.412 130.1 207.378 130.28 206.245 130.28ZM206.245 127C206.778 127 207.272 126.907 207.725 126.72C208.192 126.533 208.592 126.267 208.925 125.92C209.272 125.56 209.538 125.133 209.725 124.64C209.925 124.147 210.025 123.6 210.025 123C210.025 122.387 209.925 121.84 209.725 121.36C209.538 120.867 209.272 120.447 208.925 120.1C208.592 119.74 208.192 119.467 207.725 119.28C207.272 119.093 206.778 119 206.245 119C205.712 119 205.212 119.093 204.745 119.28C204.292 119.467 203.892 119.74 203.545 120.1C203.212 120.447 202.945 120.867 202.745 121.36C202.558 121.84 202.465 122.387 202.465 123C202.465 123.6 202.558 124.147 202.745 124.64C202.945 125.133 203.212 125.56 203.545 125.92C203.892 126.267 204.292 126.533 204.745 126.72C205.212 126.907 205.712 127 206.245 127ZM222.559 130.28C220.493 130.28 218.879 129.713 217.719 128.58C216.559 127.447 215.979 125.84 215.979 123.76V116H219.939V123.64C219.939 124.84 220.173 125.7 220.639 126.22C221.119 126.74 221.773 127 222.599 127C223.426 127 224.073 126.74 224.539 126.22C225.006 125.7 225.239 124.84 225.239 123.64V116H229.139V123.76C229.139 125.84 228.559 127.447 227.399 128.58C226.239 129.713 224.626 130.28 222.559 130.28ZM231.822 130V116H235.082L242.802 125.32H241.262V116H245.142V130H241.882L234.162 120.68H235.702V130H231.822ZM250.915 130V119.14H246.615V116H259.155V119.14H254.875V130H250.915ZM100.64 155V141H107.04C108.32 141 109.42 141.207 110.34 141.62C111.274 142.033 111.994 142.633 112.5 143.42C113.007 144.193 113.26 145.113 113.26 146.18C113.26 147.233 113.007 148.147 112.5 148.92C111.994 149.693 111.274 150.293 110.34 150.72C109.42 151.133 108.32 151.34 107.04 151.34H102.84L104.6 149.62V155H100.64ZM104.6 150.04L102.84 148.22H106.8C107.627 148.22 108.24 148.04 108.64 147.68C109.054 147.32 109.26 146.82 109.26 146.18C109.26 145.527 109.054 145.02 108.64 144.66C108.24 144.3 107.627 144.12 106.8 144.12H102.84L104.6 142.3V150.04ZM115.191 155V141H121.591C122.871 141 123.971 141.207 124.891 141.62C125.824 142.033 126.544 142.633 127.051 143.42C127.558 144.193 127.811 145.113 127.811 146.18C127.811 147.233 127.558 148.147 127.051 148.92C126.544 149.68 125.824 150.267 124.891 150.68C123.971 151.08 122.871 151.28 121.591 151.28H117.391L119.151 149.62V155H115.191ZM123.851 155L120.371 149.9H124.591L128.091 155H123.851ZM119.151 150.04L117.391 148.22H121.351C122.178 148.22 122.791 148.04 123.191 147.68C123.604 147.32 123.811 146.82 123.811 146.18C123.811 145.527 123.604 145.02 123.191 144.66C122.791 144.3 122.178 144.12 121.351 144.12H117.391L119.151 142.3V150.04ZM137.056 155.28C135.936 155.28 134.902 155.1 133.956 154.74C133.009 154.38 132.182 153.873 131.476 153.22C130.782 152.553 130.242 151.78 129.856 150.9C129.469 150.02 129.276 149.053 129.276 148C129.276 146.947 129.469 145.98 129.856 145.1C130.242 144.22 130.782 143.453 131.476 142.8C132.182 142.133 133.009 141.62 133.956 141.26C134.902 140.9 135.936 140.72 137.056 140.72C138.189 140.72 139.222 140.9 140.156 141.26C141.102 141.62 141.922 142.133 142.616 142.8C143.309 143.453 143.849 144.22 144.236 145.1C144.636 145.98 144.836 146.947 144.836 148C144.836 149.053 144.636 150.027 144.236 150.92C143.849 151.8 143.309 152.567 142.616 153.22C141.922 153.873 141.102 154.38 140.156 154.74C139.222 155.1 138.189 155.28 137.056 155.28ZM137.056 152C137.589 152 138.082 151.907 138.536 151.72C139.002 151.533 139.402 151.267 139.736 150.92C140.082 150.56 140.349 150.133 140.536 149.64C140.736 149.147 140.836 148.6 140.836 148C140.836 147.387 140.736 146.84 140.536 146.36C140.349 145.867 140.082 145.447 139.736 145.1C139.402 144.74 139.002 144.467 138.536 144.28C138.082 144.093 137.589 144 137.056 144C136.522 144 136.022 144.093 135.556 144.28C135.102 144.467 134.702 144.74 134.356 145.1C134.022 145.447 133.756 145.867 133.556 146.36C133.369 146.84 133.276 147.387 133.276 148C133.276 148.6 133.369 149.147 133.556 149.64C133.756 150.133 134.022 150.56 134.356 150.92C134.702 151.267 135.102 151.533 135.556 151.72C136.022 151.907 136.522 152 137.056 152ZM153.89 155.28C152.783 155.28 151.756 155.107 150.81 154.76C149.876 154.4 149.063 153.893 148.37 153.24C147.69 152.587 147.156 151.82 146.77 150.94C146.383 150.047 146.19 149.067 146.19 148C146.19 146.933 146.383 145.96 146.77 145.08C147.156 144.187 147.69 143.413 148.37 142.76C149.063 142.107 149.876 141.607 150.81 141.26C151.756 140.9 152.783 140.72 153.89 140.72C155.183 140.72 156.336 140.947 157.35 141.4C158.376 141.853 159.23 142.507 159.91 143.36L157.39 145.64C156.936 145.107 156.436 144.7 155.89 144.42C155.356 144.14 154.756 144 154.09 144C153.516 144 152.99 144.093 152.51 144.28C152.03 144.467 151.616 144.74 151.27 145.1C150.936 145.447 150.67 145.867 150.47 146.36C150.283 146.853 150.19 147.4 150.19 148C150.19 148.6 150.283 149.147 150.47 149.64C150.67 150.133 150.936 150.56 151.27 150.92C151.616 151.267 152.03 151.533 152.51 151.72C152.99 151.907 153.516 152 154.09 152C154.756 152 155.356 151.86 155.89 151.58C156.436 151.3 156.936 150.893 157.39 150.36L159.91 152.64C159.23 153.48 158.376 154.133 157.35 154.6C156.336 155.053 155.183 155.28 153.89 155.28ZM165.315 146.42H171.815V149.38H165.315V146.42ZM165.595 151.94H172.915V155H161.675V141H172.655V144.06H165.595V151.94ZM180.033 155.28C178.886 155.28 177.78 155.14 176.713 154.86C175.66 154.567 174.8 154.193 174.133 153.74L175.433 150.82C176.06 151.22 176.78 151.553 177.593 151.82C178.42 152.073 179.24 152.2 180.053 152.2C180.6 152.2 181.04 152.153 181.373 152.06C181.706 151.953 181.946 151.82 182.093 151.66C182.253 151.487 182.333 151.287 182.333 151.06C182.333 150.74 182.186 150.487 181.893 150.3C181.6 150.113 181.22 149.96 180.753 149.84C180.286 149.72 179.766 149.6 179.193 149.48C178.633 149.36 178.066 149.207 177.493 149.02C176.933 148.833 176.42 148.593 175.953 148.3C175.486 147.993 175.106 147.6 174.813 147.12C174.52 146.627 174.373 146.007 174.373 145.26C174.373 144.42 174.6 143.66 175.053 142.98C175.52 142.3 176.213 141.753 177.133 141.34C178.053 140.927 179.2 140.72 180.573 140.72C181.493 140.72 182.393 140.827 183.273 141.04C184.166 141.24 184.96 141.54 185.653 141.94L184.433 144.88C183.766 144.52 183.106 144.253 182.453 144.08C181.8 143.893 181.166 143.8 180.553 143.8C180.006 143.8 179.566 143.86 179.233 143.98C178.9 144.087 178.66 144.233 178.513 144.42C178.366 144.607 178.293 144.82 178.293 145.06C178.293 145.367 178.433 145.613 178.713 145.8C179.006 145.973 179.386 146.12 179.853 146.24C180.333 146.347 180.853 146.46 181.413 146.58C181.986 146.7 182.553 146.853 183.113 147.04C183.686 147.213 184.206 147.453 184.673 147.76C185.14 148.053 185.513 148.447 185.793 148.94C186.086 149.42 186.233 150.027 186.233 150.76C186.233 151.573 186 152.327 185.533 153.02C185.08 153.7 184.393 154.247 183.473 154.66C182.566 155.073 181.42 155.28 180.033 155.28ZM192.982 155.28C191.835 155.28 190.729 155.14 189.662 154.86C188.609 154.567 187.749 154.193 187.082 153.74L188.382 150.82C189.009 151.22 189.729 151.553 190.542 151.82C191.369 152.073 192.189 152.2 193.002 152.2C193.549 152.2 193.989 152.153 194.322 152.06C194.655 151.953 194.895 151.82 195.042 151.66C195.202 151.487 195.282 151.287 195.282 151.06C195.282 150.74 195.135 150.487 194.842 150.3C194.549 150.113 194.169 149.96 193.702 149.84C193.235 149.72 192.715 149.6 192.142 149.48C191.582 149.36 191.015 149.207 190.442 149.02C189.882 148.833 189.369 148.593 188.902 148.3C188.435 147.993 188.055 147.6 187.762 147.12C187.469 146.627 187.322 146.007 187.322 145.26C187.322 144.42 187.549 143.66 188.002 142.98C188.469 142.3 189.162 141.753 190.082 141.34C191.002 140.927 192.149 140.72 193.522 140.72C194.442 140.72 195.342 140.827 196.222 141.04C197.115 141.24 197.909 141.54 198.602 141.94L197.382 144.88C196.715 144.52 196.055 144.253 195.402 144.08C194.749 143.893 194.115 143.8 193.502 143.8C192.955 143.8 192.515 143.86 192.182 143.98C191.849 144.087 191.609 144.233 191.462 144.42C191.315 144.607 191.242 144.82 191.242 145.06C191.242 145.367 191.382 145.613 191.662 145.8C191.955 145.973 192.335 146.12 192.802 146.24C193.282 146.347 193.802 146.46 194.362 146.58C194.935 146.7 195.502 146.853 196.062 147.04C196.635 147.213 197.155 147.453 197.622 147.76C198.089 148.053 198.462 148.447 198.742 148.94C199.035 149.42 199.182 150.027 199.182 150.76C199.182 151.573 198.949 152.327 198.482 153.02C198.029 153.7 197.342 154.247 196.422 154.66C195.515 155.073 194.369 155.28 192.982 155.28ZM147.842 185.336C146.562 185.336 145.418 185.136 144.41 184.736C143.402 184.32 142.602 183.752 142.01 183.032C141.434 182.312 141.146 181.504 141.146 180.608C141.146 179.728 141.338 178.944 141.722 178.256C142.122 177.568 142.73 176.936 143.546 176.36C144.378 175.784 145.434 175.232 146.714 174.704C147.562 174.336 148.226 174.008 148.706 173.72C149.186 173.432 149.522 173.16 149.714 172.904C149.922 172.632 150.026 172.36 150.026 172.088C150.026 171.752 149.914 171.48 149.69 171.272C149.466 171.064 149.13 170.96 148.682 170.96C148.218 170.96 147.85 171.08 147.578 171.32C147.322 171.56 147.194 171.856 147.194 172.208C147.194 172.416 147.234 172.624 147.314 172.832C147.41 173.04 147.586 173.28 147.842 173.552C148.114 173.824 148.49 174.176 148.97 174.608L157.826 182.48L155.378 185.288L145.394 176.384C144.85 175.904 144.402 175.44 144.05 174.992C143.714 174.544 143.458 174.096 143.282 173.648C143.122 173.2 143.042 172.744 143.042 172.28C143.042 171.416 143.274 170.664 143.738 170.024C144.202 169.368 144.858 168.864 145.706 168.512C146.554 168.144 147.546 167.96 148.682 167.96C149.722 167.96 150.626 168.12 151.394 168.44C152.178 168.76 152.786 169.224 153.218 169.832C153.65 170.44 153.866 171.16 153.866 171.992C153.866 172.728 153.674 173.4 153.29 174.008C152.922 174.616 152.346 175.176 151.562 175.688C150.794 176.2 149.81 176.704 148.61 177.2C147.874 177.504 147.282 177.808 146.834 178.112C146.402 178.416 146.09 178.728 145.898 179.048C145.706 179.352 145.61 179.704 145.61 180.104C145.61 180.424 145.714 180.72 145.922 180.992C146.13 181.264 146.426 181.48 146.81 181.64C147.194 181.784 147.65 181.856 148.178 181.856C149.106 181.856 149.962 181.632 150.746 181.184C151.53 180.72 152.202 180.048 152.762 179.168C153.338 178.288 153.73 177.224 153.938 175.976L157.61 177.08C157.258 178.728 156.618 180.168 155.69 181.4C154.778 182.632 153.65 183.6 152.306 184.304C150.978 184.992 149.49 185.336 147.842 185.336ZM85.3958 215.336C84.0678 215.336 82.8358 215.128 81.6998 214.712C80.5798 214.28 79.6038 213.672 78.7718 212.888C77.9558 212.104 77.3158 211.184 76.8518 210.128C76.3878 209.056 76.1558 207.88 76.1558 206.6C76.1558 205.32 76.3878 204.152 76.8518 203.096C77.3158 202.024 77.9558 201.096 78.7718 200.312C79.6038 199.528 80.5798 198.928 81.6998 198.512C82.8358 198.08 84.0678 197.864 85.3958 197.864C86.9478 197.864 88.3318 198.136 89.5478 198.68C90.7798 199.224 91.8038 200.008 92.6198 201.032L89.5958 203.768C89.0518 203.128 88.4518 202.64 87.7958 202.304C87.1558 201.968 86.4358 201.8 85.6358 201.8C84.9478 201.8 84.3158 201.912 83.7398 202.136C83.1638 202.36 82.6678 202.688 82.2518 203.12C81.8518 203.536 81.5318 204.04 81.2918 204.632C81.0678 205.224 80.9558 205.88 80.9558 206.6C80.9558 207.32 81.0678 207.976 81.2918 208.568C81.5318 209.16 81.8518 209.672 82.2518 210.104C82.6678 210.52 83.1638 210.84 83.7398 211.064C84.3158 211.288 84.9478 211.4 85.6358 211.4C86.4358 211.4 87.1558 211.232 87.7958 210.896C88.4518 210.56 89.0518 210.072 89.5958 209.432L92.6198 212.168C91.8038 213.176 90.7798 213.96 89.5478 214.52C88.3318 215.064 86.9478 215.336 85.3958 215.336ZM94.7386 215V198.2H99.4906V211.232H107.507V215H94.7386ZM113.755 204.704H121.555V208.256H113.755V204.704ZM114.091 211.328H122.875V215H109.387V198.2H122.563V201.872H114.091V211.328ZM123.496 215L130.912 198.2H135.592L143.032 215H138.088L132.28 200.528H134.152L128.344 215H123.496ZM127.552 211.736L128.776 208.232H136.984L138.208 211.736H127.552ZM144.379 215V198.2H148.291L157.555 209.384H155.707V198.2H160.363V215H156.451L147.187 203.816H149.035V215H144.379ZM169.619 215.336C168.243 215.336 166.915 215.168 165.635 214.832C164.371 214.48 163.339 214.032 162.539 213.488L164.099 209.984C164.851 210.464 165.715 210.864 166.691 211.184C167.683 211.488 168.667 211.64 169.643 211.64C170.299 211.64 170.827 211.584 171.227 211.472C171.627 211.344 171.915 211.184 172.091 210.992C172.283 210.784 172.379 210.544 172.379 210.272C172.379 209.888 172.203 209.584 171.851 209.36C171.499 209.136 171.043 208.952 170.483 208.808C169.923 208.664 169.299 208.52 168.611 208.376C167.939 208.232 167.259 208.048 166.571 207.824C165.899 207.6 165.283 207.312 164.723 206.96C164.163 206.592 163.707 206.12 163.355 205.544C163.003 204.952 162.827 204.208 162.827 203.312C162.827 202.304 163.099 201.392 163.643 200.576C164.203 199.76 165.035 199.104 166.139 198.608C167.243 198.112 168.619 197.864 170.267 197.864C171.371 197.864 172.451 197.992 173.507 198.248C174.579 198.488 175.531 198.848 176.363 199.328L174.899 202.856C174.099 202.424 173.307 202.104 172.523 201.896C171.739 201.672 170.979 201.56 170.243 201.56C169.587 201.56 169.059 201.632 168.659 201.776C168.259 201.904 167.971 202.08 167.795 202.304C167.619 202.528 167.531 202.784 167.531 203.072C167.531 203.44 167.699 203.736 168.035 203.96C168.387 204.168 168.843 204.344 169.403 204.488C169.979 204.616 170.603 204.752 171.275 204.896C171.963 205.04 172.643 205.224 173.315 205.448C174.003 205.656 174.627 205.944 175.187 206.312C175.747 206.664 176.195 207.136 176.531 207.728C176.883 208.304 177.059 209.032 177.059 209.912C177.059 210.888 176.779 211.792 176.219 212.624C175.675 213.44 174.851 214.096 173.747 214.592C172.659 215.088 171.283 215.336 169.619 215.336ZM179.254 215V198.2H184.006V215H179.254ZM187.387 215V198.2H191.299L200.563 209.384H198.715V198.2H203.371V215H199.459L190.195 203.816H192.043V215H187.387ZM215.123 215.336C213.795 215.336 212.563 215.128 211.427 214.712C210.291 214.28 209.307 213.672 208.475 212.888C207.659 212.104 207.019 211.184 206.555 210.128C206.091 209.056 205.859 207.88 205.859 206.6C205.859 205.32 206.091 204.152 206.555 203.096C207.019 202.024 207.667 201.096 208.499 200.312C209.331 199.528 210.315 198.928 211.451 198.512C212.603 198.08 213.859 197.864 215.219 197.864C216.803 197.864 218.219 198.128 219.467 198.656C220.715 199.184 221.747 199.944 222.563 200.936L219.539 203.672C218.963 203.048 218.339 202.584 217.667 202.28C217.011 201.96 216.275 201.8 215.459 201.8C214.739 201.8 214.083 201.912 213.491 202.136C212.899 202.36 212.395 202.688 211.979 203.12C211.563 203.536 211.235 204.04 210.995 204.632C210.771 205.208 210.659 205.864 210.659 206.6C210.659 207.304 210.771 207.952 210.995 208.544C211.235 209.136 211.563 209.648 211.979 210.08C212.395 210.496 212.891 210.824 213.467 211.064C214.059 211.288 214.707 211.4 215.411 211.4C216.115 211.4 216.803 211.288 217.475 211.064C218.147 210.824 218.827 210.424 219.515 209.864L222.179 213.2C221.219 213.888 220.107 214.416 218.843 214.784C217.579 215.152 216.339 215.336 215.123 215.336ZM217.979 212.576V206.24H222.179V213.2L217.979 212.576Z" fill="#4C4C4C"/>
<defs>
<linearGradient id="paint0_linear_425_4" x1="148.276" y1="4.27122" x2="148.276" y2="282.771" gradientUnits="userSpaceOnUse">
<stop offset="0.03" stop-color="#5193BB"/>
<stop offset="0.1" stop-color="#6794AB"/>
<stop offset="0.31" stop-color="#AA987B"/>
<stop offset="0.46" stop-color="#D49A5D"/>
<stop offset="0.54" stop-color="#E49B52"/>
<stop offset="0.6" stop-color="#DF9B55"/>
<stop offset="0.67" stop-color="#D29A5F"/>
<stop offset="0.74" stop-color="#BC996F"/>
<stop offset="0.81" stop-color="#9C9785"/>
<stop offset="0.89" stop-color="#7495A2"/>
<stop offset="0.97" stop-color="#4492C5"/>
<stop offset="0.98" stop-color="#3F92C8"/>
</linearGradient>
<linearGradient id="paint1_linear_425_4" x1="196.235" y1="298.692" x2="130.045" y2="48.9815" gradientUnits="userSpaceOnUse">
<stop stop-color="white"/>
<stop offset="0.45" stop-color="#FCFDFD"/>
<stop offset="0.81" stop-color="#F2F5F6"/>
<stop offset="1" stop-color="#E9EEF0"/>
</linearGradient>
<linearGradient id="paint2_linear_425_4" x1="84.1968" y1="117.141" x2="282.607" y2="273.941" gradientUnits="userSpaceOnUse">
<stop stop-color="white"/>
<stop offset="0.45" stop-color="#FCFDFD"/>
<stop offset="0.81" stop-color="#F2F5F6"/>
<stop offset="1" stop-color="#E9EEF0"/>
</linearGradient>
</defs>
</svg>
