<svg width="297" height="284" viewBox="0 0 297 284" fill="none" xmlns="http://www.w3.org/2000/svg">
<path d="M141.225 2.26122L4.9455 101.261C2.89649 102.75 1.3712 104.849 0.588029 107.258C-0.195143 109.667 -0.19603 112.262 0.585496 114.671L52.6355 274.901C53.4205 277.309 54.9469 279.406 56.9964 280.893C59.0459 282.381 61.5133 283.181 64.0455 283.181H232.495C235.028 283.181 237.495 282.381 239.545 280.893C241.594 279.406 243.121 277.309 243.906 274.901L295.906 114.691C296.688 112.283 296.689 109.689 295.907 107.28C295.126 104.871 293.603 102.772 291.556 101.281L155.275 2.28122C153.233 0.801797 150.776 0.00360243 148.254 1.21649e-05C145.732 -0.0035781 143.272 0.787618 141.225 2.26122Z" fill="url(#paint0_linear_442_2)"/>
<path d="M143.475 27.2715L28.0246 111.152C26.6248 112.159 25.5804 113.585 25.0414 115.224C24.5024 116.862 24.4965 118.629 25.0246 120.272L69.1646 255.992C69.6968 257.631 70.7343 259.059 72.1283 260.072C73.5223 261.085 75.2013 261.631 76.9246 261.632H219.625C221.354 261.637 223.041 261.094 224.442 260.08C225.843 259.067 226.888 257.635 227.425 255.992L271.515 120.272C272.046 118.63 272.042 116.861 271.502 115.222C270.963 113.583 269.917 112.157 268.515 111.152L153.065 27.2715C151.67 26.2621 149.992 25.7188 148.27 25.7188C146.548 25.7188 144.87 26.2621 143.475 27.2715V27.2715Z" fill="url(#paint1_linear_442_2)"/>
<path d="M144.227 32.1209L32.4268 113.361C31.2508 114.216 30.3757 115.422 29.9266 116.805C29.4775 118.188 29.4776 119.678 29.9268 121.061L72.6168 252.511C73.0681 253.892 73.9447 255.096 75.1211 255.949C76.2975 256.802 77.7136 257.261 79.1668 257.261H217.427C218.88 257.263 220.297 256.804 221.474 255.951C222.651 255.097 223.527 253.893 223.977 252.511L266.687 121.061C267.136 119.678 267.136 118.188 266.687 116.805C266.238 115.422 265.363 114.216 264.187 113.361L152.317 32.1209C151.141 31.2679 149.725 30.8086 148.272 30.8086C146.819 30.8086 145.403 31.2679 144.227 32.1209V32.1209Z" fill="url(#paint2_linear_442_2)"/>
<path d="M78.072 148V125.6H84.408V148H78.072ZM88.9158 148V125.6H94.1318L106.484 140.512H104.02V125.6H110.228V148H105.012L92.6598 133.088H95.1238V148H88.9158ZM125.865 148.448C124.094 148.448 122.452 148.171 120.937 147.616C119.444 147.04 118.142 146.229 117.033 145.184C115.945 144.139 115.092 142.912 114.473 141.504C113.854 140.075 113.545 138.507 113.545 136.8C113.545 135.093 113.854 133.536 114.473 132.128C115.092 130.699 115.945 129.461 117.033 128.416C118.142 127.371 119.444 126.571 120.937 126.016C122.452 125.44 124.094 125.152 125.865 125.152C127.934 125.152 129.78 125.515 131.401 126.24C133.044 126.965 134.409 128.011 135.497 129.376L131.465 133.024C130.74 132.171 129.94 131.52 129.065 131.072C128.212 130.624 127.252 130.4 126.185 130.4C125.268 130.4 124.425 130.549 123.657 130.848C122.889 131.147 122.228 131.584 121.673 132.16C121.14 132.715 120.713 133.387 120.393 134.176C120.094 134.965 119.945 135.84 119.945 136.8C119.945 137.76 120.094 138.635 120.393 139.424C120.713 140.213 121.14 140.896 121.673 141.472C122.228 142.027 122.889 142.453 123.657 142.752C124.425 143.051 125.268 143.2 126.185 143.2C127.252 143.2 128.212 142.976 129.065 142.528C129.94 142.08 130.74 141.429 131.465 140.576L135.497 144.224C134.409 145.568 133.044 146.613 131.401 147.36C129.78 148.085 127.934 148.448 125.865 148.448ZM149.149 148.448C147.357 148.448 145.704 148.16 144.189 147.584C142.675 147.008 141.352 146.197 140.221 145.152C139.112 144.085 138.248 142.848 137.629 141.44C137.011 140.032 136.701 138.485 136.701 136.8C136.701 135.115 137.011 133.568 137.629 132.16C138.248 130.752 139.112 129.525 140.221 128.48C141.352 127.413 142.675 126.592 144.189 126.016C145.704 125.44 147.357 125.152 149.149 125.152C150.963 125.152 152.616 125.44 154.109 126.016C155.624 126.592 156.936 127.413 158.045 128.48C159.155 129.525 160.019 130.752 160.637 132.16C161.277 133.568 161.597 135.115 161.597 136.8C161.597 138.485 161.277 140.043 160.637 141.472C160.019 142.88 159.155 144.107 158.045 145.152C156.936 146.197 155.624 147.008 154.109 147.584C152.616 148.16 150.963 148.448 149.149 148.448ZM149.149 143.2C150.003 143.2 150.792 143.051 151.517 142.752C152.264 142.453 152.904 142.027 153.437 141.472C153.992 140.896 154.419 140.213 154.717 139.424C155.037 138.635 155.197 137.76 155.197 136.8C155.197 135.819 155.037 134.944 154.717 134.176C154.419 133.387 153.992 132.715 153.437 132.16C152.904 131.584 152.264 131.147 151.517 130.848C150.792 130.549 150.003 130.4 149.149 130.4C148.296 130.4 147.496 130.549 146.749 130.848C146.024 131.147 145.384 131.584 144.829 132.16C144.296 132.715 143.869 133.387 143.549 134.176C143.251 134.944 143.101 135.819 143.101 136.8C143.101 137.76 143.251 138.635 143.549 139.424C143.869 140.213 144.296 140.896 144.829 141.472C145.384 142.027 146.024 142.453 146.749 142.752C147.496 143.051 148.296 143.2 149.149 143.2ZM164.916 148V125.6H170.132L179.412 140.832H176.66L185.684 125.6H190.9L190.964 148H185.14L185.076 134.464H186.068L179.316 145.792H176.5L169.556 134.464H170.772V148H164.916ZM201.271 134.272H211.671V139.008H201.271V134.272ZM201.719 143.104H213.431V148H195.447V125.6H213.015V130.496H201.719V143.104ZM79.4898 174.272H89.8898V179.008H79.4898V174.272ZM79.9378 183.104H91.6498V188H73.6658V165.6H91.2338V170.496H79.9378V183.104ZM92.6743 188L102.466 174.4L102.434 178.912L93.0263 165.6H100.162L106.178 174.272L103.138 174.304L109.058 165.6H115.906L106.498 178.656V174.176L116.418 188H109.122L103.01 178.88H105.922L99.9063 188H92.6743ZM117.885 188V165.6H128.125C130.173 165.6 131.933 165.931 133.405 166.592C134.898 167.253 136.05 168.213 136.861 169.472C137.671 170.709 138.077 172.181 138.077 173.888C138.077 175.573 137.671 177.035 136.861 178.272C136.05 179.509 134.898 180.469 133.405 181.152C131.933 181.813 130.173 182.144 128.125 182.144H121.405L124.221 179.392V188H117.885ZM124.221 180.064L121.405 177.152H127.741C129.063 177.152 130.045 176.864 130.685 176.288C131.346 175.712 131.677 174.912 131.677 173.888C131.677 172.843 131.346 172.032 130.685 171.456C130.045 170.88 129.063 170.592 127.741 170.592H121.405L124.221 167.68V180.064ZM146.99 174.272H157.39V179.008H146.99V174.272ZM147.438 183.104H159.15V188H141.166V165.6H158.734V170.496H147.438V183.104ZM162.666 188V165.6H167.882L180.234 180.512H177.77V165.6H183.978V188H178.762L166.41 173.088H168.874V188H162.666ZM196.319 188.448C194.484 188.448 192.714 188.224 191.007 187.776C189.322 187.307 187.946 186.709 186.879 185.984L188.959 181.312C189.962 181.952 191.114 182.485 192.415 182.912C193.738 183.317 195.05 183.52 196.351 183.52C197.226 183.52 197.93 183.445 198.463 183.296C198.996 183.125 199.38 182.912 199.615 182.656C199.871 182.379 199.999 182.059 199.999 181.696C199.999 181.184 199.764 180.779 199.295 180.48C198.826 180.181 198.218 179.936 197.471 179.744C196.724 179.552 195.892 179.36 194.975 179.168C194.079 178.976 193.172 178.731 192.255 178.432C191.359 178.133 190.538 177.749 189.791 177.28C189.044 176.789 188.436 176.16 187.967 175.392C187.498 174.603 187.263 173.611 187.263 172.416C187.263 171.072 187.626 169.856 188.351 168.768C189.098 167.68 190.207 166.805 191.679 166.144C193.151 165.483 194.986 165.152 197.183 165.152C198.655 165.152 200.095 165.323 201.503 165.664C202.932 165.984 204.202 166.464 205.311 167.104L203.359 171.808C202.292 171.232 201.236 170.805 200.191 170.528C199.146 170.229 198.132 170.08 197.151 170.08C196.276 170.08 195.572 170.176 195.039 170.368C194.506 170.539 194.122 170.773 193.887 171.072C193.652 171.371 193.535 171.712 193.535 172.096C193.535 172.587 193.759 172.981 194.207 173.28C194.676 173.557 195.284 173.792 196.031 173.984C196.799 174.155 197.631 174.336 198.527 174.528C199.444 174.72 200.351 174.965 201.247 175.264C202.164 175.541 202.996 175.925 203.743 176.416C204.49 176.885 205.087 177.515 205.535 178.304C206.004 179.072 206.239 180.043 206.239 181.216C206.239 182.517 205.866 183.723 205.119 184.832C204.394 185.92 203.295 186.795 201.823 187.456C200.372 188.117 198.538 188.448 196.319 188.448ZM214.99 174.272H225.39V179.008H214.99V174.272ZM215.438 183.104H227.15V188H209.166V165.6H226.734V170.496H215.438V183.104Z" fill="#4C4C4C"/>
<defs>
<linearGradient id="paint0_linear_442_2" x1="148.276" y1="4.27122" x2="148.276" y2="282.771" gradientUnits="userSpaceOnUse">
<stop offset="0.03" stop-color="#5193BB"/>
<stop offset="0.1" stop-color="#6794AB"/>
<stop offset="0.31" stop-color="#AA987B"/>
<stop offset="0.46" stop-color="#D49A5D"/>
<stop offset="0.54" stop-color="#E49B52"/>
<stop offset="0.6" stop-color="#DF9B55"/>
<stop offset="0.67" stop-color="#D29A5F"/>
<stop offset="0.74" stop-color="#BC996F"/>
<stop offset="0.81" stop-color="#9C9785"/>
<stop offset="0.89" stop-color="#7495A2"/>
<stop offset="0.97" stop-color="#4492C5"/>
<stop offset="0.98" stop-color="#3F92C8"/>
</linearGradient>
<linearGradient id="paint1_linear_442_2" x1="196.235" y1="298.692" x2="130.045" y2="48.9815" gradientUnits="userSpaceOnUse">
<stop stop-color="white"/>
<stop offset="0.45" stop-color="#FCFDFD"/>
<stop offset="0.81" stop-color="#F2F5F6"/>
<stop offset="1" stop-color="#E9EEF0"/>
</linearGradient>
<linearGradient id="paint2_linear_442_2" x1="84.1968" y1="117.141" x2="282.607" y2="273.941" gradientUnits="userSpaceOnUse">
<stop stop-color="white"/>
<stop offset="0.45" stop-color="#FCFDFD"/>
<stop offset="0.81" stop-color="#F2F5F6"/>
<stop offset="1" stop-color="#E9EEF0"/>
</linearGradient>
</defs>
</svg>
