<svg width="297" height="284" viewBox="0 0 297 284" fill="none" xmlns="http://www.w3.org/2000/svg">
<path d="M141.225 2.26122L4.9455 101.261C2.89649 102.75 1.3712 104.849 0.588029 107.258C-0.195143 109.667 -0.19603 112.262 0.585496 114.671L52.6355 274.901C53.4205 277.309 54.9469 279.406 56.9964 280.893C59.0459 282.381 61.5133 283.181 64.0455 283.181H232.495C235.028 283.181 237.495 282.381 239.545 280.893C241.594 279.406 243.121 277.309 243.906 274.901L295.906 114.691C296.688 112.283 296.689 109.689 295.907 107.28C295.126 104.871 293.603 102.772 291.556 101.281L155.275 2.28122C153.233 0.801797 150.776 0.00360243 148.254 1.21649e-05C145.732 -0.0035781 143.272 0.787618 141.225 2.26122Z" fill="url(#paint0_linear_442_7)"/>
<path d="M143.475 27.2715L28.0246 111.152C26.6248 112.159 25.5804 113.585 25.0414 115.224C24.5024 116.862 24.4965 118.629 25.0246 120.272L69.1646 255.992C69.6968 257.631 70.7343 259.059 72.1283 260.072C73.5223 261.085 75.2013 261.631 76.9246 261.632H219.625C221.354 261.637 223.041 261.094 224.442 260.08C225.843 259.067 226.888 257.635 227.425 255.992L271.515 120.272C272.046 118.63 272.042 116.861 271.502 115.222C270.963 113.583 269.917 112.157 268.515 111.152L153.065 27.2715C151.67 26.2621 149.992 25.7188 148.27 25.7188C146.548 25.7188 144.87 26.2621 143.475 27.2715V27.2715Z" fill="url(#paint1_linear_442_7)"/>
<path d="M144.227 32.1209L32.4268 113.361C31.2508 114.216 30.3757 115.422 29.9266 116.805C29.4775 118.188 29.4776 119.678 29.9268 121.061L72.6168 252.511C73.0681 253.892 73.9447 255.096 75.1211 255.949C76.2975 256.802 77.7136 257.261 79.1668 257.261H217.427C218.88 257.263 220.297 256.804 221.474 255.951C222.651 255.097 223.527 253.893 223.977 252.511L266.687 121.061C267.136 119.678 267.136 118.188 266.687 116.805C266.238 115.422 265.363 114.216 264.187 113.361L152.317 32.1209C151.141 31.2679 149.725 30.8086 148.272 30.8086C146.819 30.8086 145.403 31.2679 144.227 32.1209V32.1209Z" fill="url(#paint2_linear_442_7)"/>
<path d="M73.0452 131.568H80.7972V135.24H73.0452V131.568ZM73.3812 141H68.6292V124.2H81.8052V127.872H73.3812V141ZM84.0277 141V124.2H88.7797V141H84.0277ZM90.4325 141L97.7765 130.8L97.7525 134.184L90.6965 124.2H96.0485L100.56 130.704L98.2805 130.728L102.72 124.2H107.856L100.8 133.992V130.632L108.24 141H102.768L98.1845 134.16H100.368L95.8565 141H90.4325ZM113.708 130.704H121.508V134.256H113.708V130.704ZM114.044 137.328H122.828V141H109.34V124.2H122.516V127.872H114.044V137.328ZM125.465 141V124.2H133.409C135.265 124.2 136.897 124.544 138.305 125.232C139.713 125.92 140.809 126.888 141.593 128.136C142.393 129.384 142.793 130.872 142.793 132.6C142.793 134.312 142.393 135.8 141.593 137.064C140.809 138.312 139.713 139.28 138.305 139.968C136.897 140.656 135.265 141 133.409 141H125.465ZM130.217 137.208H133.217C134.177 137.208 135.009 137.032 135.713 136.68C136.433 136.312 136.993 135.784 137.393 135.096C137.793 134.392 137.993 133.56 137.993 132.6C137.993 131.624 137.793 130.792 137.393 130.104C136.993 129.416 136.433 128.896 135.713 128.544C135.009 128.176 134.177 127.992 133.217 127.992H130.217V137.208ZM150.262 141L157.678 124.2H162.358L169.798 141H164.854L159.046 126.528H160.918L155.11 141H150.262ZM154.318 137.736L155.542 134.232H163.75L164.974 137.736H154.318ZM177.049 141.336C175.673 141.336 174.345 141.168 173.065 140.832C171.801 140.48 170.769 140.032 169.969 139.488L171.529 135.984C172.281 136.464 173.145 136.864 174.121 137.184C175.113 137.488 176.097 137.64 177.073 137.64C177.729 137.64 178.257 137.584 178.657 137.472C179.057 137.344 179.345 137.184 179.521 136.992C179.713 136.784 179.809 136.544 179.809 136.272C179.809 135.888 179.633 135.584 179.281 135.36C178.929 135.136 178.473 134.952 177.913 134.808C177.353 134.664 176.729 134.52 176.041 134.376C175.369 134.232 174.689 134.048 174.001 133.824C173.329 133.6 172.713 133.312 172.153 132.96C171.593 132.592 171.137 132.12 170.785 131.544C170.433 130.952 170.257 130.208 170.257 129.312C170.257 128.304 170.529 127.392 171.073 126.576C171.633 125.76 172.465 125.104 173.569 124.608C174.673 124.112 176.049 123.864 177.697 123.864C178.801 123.864 179.881 123.992 180.937 124.248C182.009 124.488 182.961 124.848 183.793 125.328L182.329 128.856C181.529 128.424 180.737 128.104 179.953 127.896C179.169 127.672 178.409 127.56 177.673 127.56C177.017 127.56 176.489 127.632 176.089 127.776C175.689 127.904 175.401 128.08 175.225 128.304C175.049 128.528 174.961 128.784 174.961 129.072C174.961 129.44 175.129 129.736 175.465 129.96C175.817 130.168 176.273 130.344 176.833 130.488C177.409 130.616 178.033 130.752 178.705 130.896C179.393 131.04 180.073 131.224 180.745 131.448C181.433 131.656 182.057 131.944 182.617 132.312C183.177 132.664 183.625 133.136 183.961 133.728C184.313 134.304 184.489 135.032 184.489 135.912C184.489 136.888 184.209 137.792 183.649 138.624C183.105 139.44 182.281 140.096 181.177 140.592C180.089 141.088 178.713 141.336 177.049 141.336ZM192.588 141.336C191.212 141.336 189.884 141.168 188.604 140.832C187.34 140.48 186.308 140.032 185.508 139.488L187.068 135.984C187.82 136.464 188.684 136.864 189.66 137.184C190.652 137.488 191.636 137.64 192.612 137.64C193.268 137.64 193.796 137.584 194.196 137.472C194.596 137.344 194.884 137.184 195.06 136.992C195.252 136.784 195.348 136.544 195.348 136.272C195.348 135.888 195.172 135.584 194.82 135.36C194.468 135.136 194.012 134.952 193.452 134.808C192.892 134.664 192.268 134.52 191.58 134.376C190.908 134.232 190.228 134.048 189.54 133.824C188.868 133.6 188.252 133.312 187.692 132.96C187.132 132.592 186.676 132.12 186.324 131.544C185.972 130.952 185.796 130.208 185.796 129.312C185.796 128.304 186.068 127.392 186.612 126.576C187.172 125.76 188.004 125.104 189.108 124.608C190.212 124.112 191.588 123.864 193.236 123.864C194.34 123.864 195.42 123.992 196.476 124.248C197.548 124.488 198.5 124.848 199.332 125.328L197.868 128.856C197.068 128.424 196.276 128.104 195.492 127.896C194.708 127.672 193.948 127.56 193.212 127.56C192.556 127.56 192.028 127.632 191.628 127.776C191.228 127.904 190.94 128.08 190.764 128.304C190.588 128.528 190.5 128.784 190.5 129.072C190.5 129.44 190.668 129.736 191.004 129.96C191.356 130.168 191.812 130.344 192.372 130.488C192.948 130.616 193.572 130.752 194.244 130.896C194.932 131.04 195.612 131.224 196.284 131.448C196.972 131.656 197.596 131.944 198.156 132.312C198.716 132.664 199.164 133.136 199.5 133.728C199.852 134.304 200.028 135.032 200.028 135.912C200.028 136.888 199.748 137.792 199.188 138.624C198.644 139.44 197.82 140.096 196.716 140.592C195.628 141.088 194.252 141.336 192.588 141.336ZM206.591 130.704H214.391V134.256H206.591V130.704ZM206.927 137.328H215.711V141H202.223V124.2H215.399V127.872H206.927V137.328ZM221.924 141V127.968H216.764V124.2H231.812V127.968H226.676V141H221.924ZM147.842 171.336C146.562 171.336 145.418 171.136 144.41 170.736C143.402 170.32 142.602 169.752 142.01 169.032C141.434 168.312 141.146 167.504 141.146 166.608C141.146 165.728 141.338 164.944 141.722 164.256C142.122 163.568 142.73 162.936 143.546 162.36C144.378 161.784 145.434 161.232 146.714 160.704C147.562 160.336 148.226 160.008 148.706 159.72C149.186 159.432 149.522 159.16 149.714 158.904C149.922 158.632 150.026 158.36 150.026 158.088C150.026 157.752 149.914 157.48 149.69 157.272C149.466 157.064 149.13 156.96 148.682 156.96C148.218 156.96 147.85 157.08 147.578 157.32C147.322 157.56 147.194 157.856 147.194 158.208C147.194 158.416 147.234 158.624 147.314 158.832C147.41 159.04 147.586 159.28 147.842 159.552C148.114 159.824 148.49 160.176 148.97 160.608L157.826 168.48L155.378 171.288L145.394 162.384C144.85 161.904 144.402 161.44 144.05 160.992C143.714 160.544 143.458 160.096 143.282 159.648C143.122 159.2 143.042 158.744 143.042 158.28C143.042 157.416 143.274 156.664 143.738 156.024C144.202 155.368 144.858 154.864 145.706 154.512C146.554 154.144 147.546 153.96 148.682 153.96C149.722 153.96 150.626 154.12 151.394 154.44C152.178 154.76 152.786 155.224 153.218 155.832C153.65 156.44 153.866 157.16 153.866 157.992C153.866 158.728 153.674 159.4 153.29 160.008C152.922 160.616 152.346 161.176 151.562 161.688C150.794 162.2 149.81 162.704 148.61 163.2C147.874 163.504 147.282 163.808 146.834 164.112C146.402 164.416 146.09 164.728 145.898 165.048C145.706 165.352 145.61 165.704 145.61 166.104C145.61 166.424 145.714 166.72 145.922 166.992C146.13 167.264 146.426 167.48 146.81 167.64C147.194 167.784 147.65 167.856 148.178 167.856C149.106 167.856 149.962 167.632 150.746 167.184C151.53 166.72 152.202 166.048 152.762 165.168C153.338 164.288 153.73 163.224 153.938 161.976L157.61 163.08C157.258 164.728 156.618 166.168 155.69 167.4C154.778 168.632 153.65 169.6 152.306 170.304C150.978 170.992 149.49 171.336 147.842 171.336ZM55.4757 200V183.9H62.8357C64.3077 183.9 65.5727 184.138 66.6307 184.613C67.7041 185.088 68.5321 185.778 69.1147 186.683C69.6974 187.572 69.9887 188.63 69.9887 189.857C69.9887 191.068 69.6974 192.119 69.1147 193.008C68.5321 193.897 67.7041 194.587 66.6307 195.078C65.5727 195.553 64.3077 195.791 62.8357 195.791H58.0057L60.0297 193.813V200H55.4757ZM60.0297 194.296L58.0057 192.203H62.5597C63.5104 192.203 64.2157 191.996 64.6757 191.582C65.1511 191.168 65.3887 190.593 65.3887 189.857C65.3887 189.106 65.1511 188.523 64.6757 188.109C64.2157 187.695 63.5104 187.488 62.5597 187.488H58.0057L60.0297 185.395V194.296ZM72.2091 200V183.9H79.5691C81.0411 183.9 82.3061 184.138 83.3641 184.613C84.4375 185.088 85.2655 185.778 85.8481 186.683C86.4308 187.572 86.7221 188.63 86.7221 189.857C86.7221 191.068 86.4308 192.119 85.8481 193.008C85.2655 193.882 84.4375 194.557 83.3641 195.032C82.3061 195.492 81.0411 195.722 79.5691 195.722H74.7391L76.7631 193.813V200H72.2091ZM82.1681 200L78.1661 194.135H83.0191L87.0441 200H82.1681ZM76.7631 194.296L74.7391 192.203H79.2931C80.2438 192.203 80.9491 191.996 81.4091 191.582C81.8845 191.168 82.1221 190.593 82.1221 189.857C82.1221 189.106 81.8845 188.523 81.4091 188.109C80.9491 187.695 80.2438 187.488 79.2931 187.488H74.7391L76.7631 185.395V194.296ZM97.3535 200.322C96.0655 200.322 94.8772 200.115 93.7885 199.701C92.6998 199.287 91.7492 198.704 90.9365 197.953C90.1392 197.186 89.5182 196.297 89.0735 195.285C88.6288 194.273 88.4065 193.161 88.4065 191.95C88.4065 190.739 88.6288 189.627 89.0735 188.615C89.5182 187.603 90.1392 186.721 90.9365 185.97C91.7492 185.203 92.6998 184.613 93.7885 184.199C94.8772 183.785 96.0655 183.578 97.3535 183.578C98.6568 183.578 99.8452 183.785 100.919 184.199C102.007 184.613 102.95 185.203 103.748 185.97C104.545 186.721 105.166 187.603 105.611 188.615C106.071 189.627 106.301 190.739 106.301 191.95C106.301 193.161 106.071 194.281 105.611 195.308C105.166 196.32 104.545 197.202 103.748 197.953C102.95 198.704 102.007 199.287 100.919 199.701C99.8452 200.115 98.6568 200.322 97.3535 200.322ZM97.3535 196.55C97.9668 196.55 98.5342 196.443 99.0555 196.228C99.5922 196.013 100.052 195.707 100.436 195.308C100.834 194.894 101.141 194.403 101.356 193.836C101.586 193.269 101.701 192.64 101.701 191.95C101.701 191.245 101.586 190.616 101.356 190.064C101.141 189.497 100.834 189.014 100.436 188.615C100.052 188.201 99.5922 187.887 99.0555 187.672C98.5342 187.457 97.9668 187.35 97.3535 187.35C96.7402 187.35 96.1652 187.457 95.6285 187.672C95.1072 187.887 94.6472 188.201 94.2485 188.615C93.8652 189.014 93.5585 189.497 93.3285 190.064C93.1138 190.616 93.0065 191.245 93.0065 191.95C93.0065 192.64 93.1138 193.269 93.3285 193.836C93.5585 194.403 93.8652 194.894 94.2485 195.308C94.6472 195.707 95.1072 196.013 95.6285 196.228C96.1652 196.443 96.7402 196.55 97.3535 196.55ZM116.713 200.322C115.44 200.322 114.259 200.123 113.171 199.724C112.097 199.31 111.162 198.727 110.365 197.976C109.583 197.225 108.969 196.343 108.525 195.331C108.08 194.304 107.858 193.177 107.858 191.95C107.858 190.723 108.08 189.604 108.525 188.592C108.969 187.565 109.583 186.675 110.365 185.924C111.162 185.173 112.097 184.598 113.171 184.199C114.259 183.785 115.44 183.578 116.713 183.578C118.2 183.578 119.526 183.839 120.692 184.36C121.872 184.881 122.854 185.633 123.636 186.614L120.738 189.236C120.216 188.623 119.641 188.155 119.013 187.833C118.399 187.511 117.709 187.35 116.943 187.35C116.283 187.35 115.678 187.457 115.126 187.672C114.574 187.887 114.098 188.201 113.7 188.615C113.316 189.014 113.01 189.497 112.78 190.064C112.565 190.631 112.458 191.26 112.458 191.95C112.458 192.64 112.565 193.269 112.78 193.836C113.01 194.403 113.316 194.894 113.7 195.308C114.098 195.707 114.574 196.013 115.126 196.228C115.678 196.443 116.283 196.55 116.943 196.55C117.709 196.55 118.399 196.389 119.013 196.067C119.641 195.745 120.216 195.277 120.738 194.664L123.636 197.286C122.854 198.252 121.872 199.003 120.692 199.54C119.526 200.061 118.2 200.322 116.713 200.322ZM132.938 200.322C130.561 200.322 128.706 199.67 127.372 198.367C126.038 197.064 125.371 195.216 125.371 192.824V183.9H129.925V192.686C129.925 194.066 130.193 195.055 130.73 195.653C131.282 196.251 132.033 196.55 132.984 196.55C133.935 196.55 134.678 196.251 135.215 195.653C135.752 195.055 136.02 194.066 136.02 192.686V183.9H140.505V192.824C140.505 195.216 139.838 197.064 138.504 198.367C137.17 199.67 135.315 200.322 132.938 200.322ZM143.59 200V183.9H150.95C152.422 183.9 153.687 184.138 154.745 184.613C155.818 185.088 156.646 185.778 157.229 186.683C157.812 187.572 158.103 188.63 158.103 189.857C158.103 191.068 157.812 192.119 157.229 193.008C156.646 193.882 155.818 194.557 154.745 195.032C153.687 195.492 152.422 195.722 150.95 195.722H146.12L148.144 193.813V200H143.59ZM153.549 200L149.547 194.135H154.4L158.425 200H153.549ZM148.144 194.296L146.12 192.203H150.674C151.625 192.203 152.33 191.996 152.79 191.582C153.265 191.168 153.503 190.593 153.503 189.857C153.503 189.106 153.265 188.523 152.79 188.109C152.33 187.695 151.625 187.488 150.674 187.488H146.12L148.144 185.395V194.296ZM164.801 190.133H172.276V193.537H164.801V190.133ZM165.123 196.481H173.541V200H160.615V183.9H173.242V187.419H165.123V196.481ZM176.068 200V183.9H179.817L186.487 194.848H184.509L190.995 183.9H194.744L194.79 200H190.604L190.558 190.271H191.271L186.418 198.413H184.394L179.403 190.271H180.277V200H176.068ZM202.199 190.133H209.674V193.537H202.199V190.133ZM202.521 196.481H210.939V200H198.013V183.9H210.64V187.419H202.521V196.481ZM213.466 200V183.9H217.215L226.093 194.618H224.322V183.9H228.784V200H225.035L216.157 189.282H217.928V200H213.466ZM235.423 200V187.511H230.478V183.9H244.899V187.511H239.977V200H235.423Z" fill="#4C4C4C"/>
<defs>
<linearGradient id="paint0_linear_442_7" x1="148.276" y1="4.27122" x2="148.276" y2="282.771" gradientUnits="userSpaceOnUse">
<stop offset="0.03" stop-color="#5193BB"/>
<stop offset="0.1" stop-color="#6794AB"/>
<stop offset="0.31" stop-color="#AA987B"/>
<stop offset="0.46" stop-color="#D49A5D"/>
<stop offset="0.54" stop-color="#E49B52"/>
<stop offset="0.6" stop-color="#DF9B55"/>
<stop offset="0.67" stop-color="#D29A5F"/>
<stop offset="0.74" stop-color="#BC996F"/>
<stop offset="0.81" stop-color="#9C9785"/>
<stop offset="0.89" stop-color="#7495A2"/>
<stop offset="0.97" stop-color="#4492C5"/>
<stop offset="0.98" stop-color="#3F92C8"/>
</linearGradient>
<linearGradient id="paint1_linear_442_7" x1="196.235" y1="298.692" x2="130.045" y2="48.9815" gradientUnits="userSpaceOnUse">
<stop stop-color="white"/>
<stop offset="0.45" stop-color="#FCFDFD"/>
<stop offset="0.81" stop-color="#F2F5F6"/>
<stop offset="1" stop-color="#E9EEF0"/>
</linearGradient>
<linearGradient id="paint2_linear_442_7" x1="84.1968" y1="117.141" x2="282.607" y2="273.941" gradientUnits="userSpaceOnUse">
<stop stop-color="white"/>
<stop offset="0.45" stop-color="#FCFDFD"/>
<stop offset="0.81" stop-color="#F2F5F6"/>
<stop offset="1" stop-color="#E9EEF0"/>
</linearGradient>
</defs>
</svg>
