<svg width="297" height="284" viewBox="0 0 297 284" fill="none" xmlns="http://www.w3.org/2000/svg">
<path d="M141.225 2.26122L4.9455 101.261C2.89649 102.75 1.3712 104.849 0.588029 107.258C-0.195143 109.667 -0.19603 112.262 0.585496 114.671L52.6355 274.901C53.4205 277.309 54.9469 279.406 56.9964 280.893C59.0459 282.381 61.5133 283.181 64.0455 283.181H232.495C235.028 283.181 237.495 282.381 239.545 280.893C241.594 279.406 243.121 277.309 243.906 274.901L295.906 114.691C296.688 112.283 296.689 109.689 295.907 107.28C295.126 104.871 293.603 102.772 291.556 101.281L155.275 2.28122C153.233 0.801797 150.776 0.00360243 148.254 1.21649e-05C145.732 -0.0035781 143.272 0.787618 141.225 2.26122Z" fill="url(#paint0_linear_442_12)"/>
<path d="M143.475 27.2715L28.0246 111.152C26.6248 112.159 25.5804 113.585 25.0414 115.224C24.5024 116.862 24.4965 118.629 25.0246 120.272L69.1646 255.992C69.6968 257.631 70.7343 259.059 72.1283 260.072C73.5223 261.085 75.2013 261.631 76.9246 261.632H219.625C221.354 261.637 223.041 261.094 224.442 260.08C225.843 259.067 226.888 257.635 227.425 255.992L271.515 120.272C272.046 118.63 272.042 116.861 271.502 115.222C270.963 113.583 269.917 112.157 268.515 111.152L153.065 27.2715C151.67 26.2621 149.992 25.7188 148.27 25.7188C146.548 25.7188 144.87 26.2621 143.475 27.2715V27.2715Z" fill="url(#paint1_linear_442_12)"/>
<path d="M144.227 32.1209L32.4268 113.361C31.2508 114.216 30.3757 115.422 29.9266 116.805C29.4775 118.188 29.4776 119.678 29.9268 121.061L72.6168 252.511C73.0681 253.892 73.9447 255.096 75.1211 255.949C76.2975 256.802 77.7136 257.261 79.1668 257.261H217.427C218.88 257.263 220.297 256.804 221.474 255.951C222.651 255.097 223.527 253.893 223.977 252.511L266.687 121.061C267.136 119.678 267.136 118.188 266.687 116.805C266.238 115.422 265.363 114.216 264.187 113.361L152.317 32.1209C151.141 31.2679 149.725 30.8086 148.272 30.8086C146.819 30.8086 145.403 31.2679 144.227 32.1209V32.1209Z" fill="url(#paint2_linear_442_12)"/>
<path d="M83.7308 141V124.2H91.4108C92.9468 124.2 94.2668 124.448 95.3708 124.944C96.4908 125.44 97.3548 126.16 97.9628 127.104C98.5708 128.032 98.8748 129.136 98.8748 130.416C98.8748 131.68 98.5708 132.776 97.9628 133.704C97.3548 134.632 96.4908 135.352 95.3708 135.864C94.2668 136.36 92.9468 136.608 91.4108 136.608H86.3708L88.4828 134.544V141H83.7308ZM88.4828 135.048L86.3708 132.864H91.1228C92.1148 132.864 92.8508 132.648 93.3308 132.216C93.8268 131.784 94.0748 131.184 94.0748 130.416C94.0748 129.632 93.8268 129.024 93.3308 128.592C92.8508 128.16 92.1148 127.944 91.1228 127.944H86.3708L88.4828 125.76V135.048ZM101.192 141V124.2H105.944V137.232H113.96V141H101.192ZM113.988 141L121.404 124.2H126.084L133.524 141H128.58L122.772 126.528H124.644L118.836 141H113.988ZM118.044 137.736L119.268 134.232H127.476L128.7 137.736H118.044ZM134.871 141V124.2H138.783L148.047 135.384H146.199V124.2H150.855V141H146.943L137.679 129.816H139.527V141H134.871ZM154.207 141V124.2H158.119L167.383 135.384H165.535V124.2H170.191V141H166.279L157.015 129.816H158.863V141H154.207ZM173.543 141V124.2H178.295V141H173.543ZM181.676 141V124.2H185.588L194.852 135.384H193.004V124.2H197.66V141H193.748L184.484 129.816H186.332V141H181.676ZM209.412 141.336C208.084 141.336 206.852 141.128 205.716 140.712C204.58 140.28 203.596 139.672 202.764 138.888C201.948 138.104 201.308 137.184 200.844 136.128C200.38 135.056 200.148 133.88 200.148 132.6C200.148 131.32 200.38 130.152 200.844 129.096C201.308 128.024 201.956 127.096 202.788 126.312C203.62 125.528 204.604 124.928 205.74 124.512C206.892 124.08 208.148 123.864 209.508 123.864C211.092 123.864 212.508 124.128 213.756 124.656C215.004 125.184 216.036 125.944 216.852 126.936L213.828 129.672C213.252 129.048 212.628 128.584 211.956 128.28C211.3 127.96 210.564 127.8 209.748 127.8C209.028 127.8 208.372 127.912 207.78 128.136C207.188 128.36 206.684 128.688 206.268 129.12C205.852 129.536 205.524 130.04 205.284 130.632C205.06 131.208 204.948 131.864 204.948 132.6C204.948 133.304 205.06 133.952 205.284 134.544C205.524 135.136 205.852 135.648 206.268 136.08C206.684 136.496 207.18 136.824 207.756 137.064C208.348 137.288 208.996 137.4 209.7 137.4C210.404 137.4 211.092 137.288 211.764 137.064C212.436 136.824 213.116 136.424 213.804 135.864L216.468 139.2C215.508 139.888 214.396 140.416 213.132 140.784C211.868 141.152 210.628 141.336 209.412 141.336ZM212.268 138.576V132.24H216.468V139.2L212.268 138.576ZM148.342 171.336C147.062 171.336 145.918 171.136 144.91 170.736C143.902 170.32 143.102 169.752 142.51 169.032C141.934 168.312 141.646 167.504 141.646 166.608C141.646 165.728 141.838 164.944 142.222 164.256C142.622 163.568 143.23 162.936 144.046 162.36C144.878 161.784 145.934 161.232 147.214 160.704C148.062 160.336 148.726 160.008 149.206 159.72C149.686 159.432 150.022 159.16 150.214 158.904C150.422 158.632 150.526 158.36 150.526 158.088C150.526 157.752 150.414 157.48 150.19 157.272C149.966 157.064 149.63 156.96 149.182 156.96C148.718 156.96 148.35 157.08 148.078 157.32C147.822 157.56 147.694 157.856 147.694 158.208C147.694 158.416 147.734 158.624 147.814 158.832C147.91 159.04 148.086 159.28 148.342 159.552C148.614 159.824 148.99 160.176 149.47 160.608L158.326 168.48L155.878 171.288L145.894 162.384C145.35 161.904 144.902 161.44 144.55 160.992C144.214 160.544 143.958 160.096 143.782 159.648C143.622 159.2 143.542 158.744 143.542 158.28C143.542 157.416 143.774 156.664 144.238 156.024C144.702 155.368 145.358 154.864 146.206 154.512C147.054 154.144 148.046 153.96 149.182 153.96C150.222 153.96 151.126 154.12 151.894 154.44C152.678 154.76 153.286 155.224 153.718 155.832C154.15 156.44 154.366 157.16 154.366 157.992C154.366 158.728 154.174 159.4 153.79 160.008C153.422 160.616 152.846 161.176 152.062 161.688C151.294 162.2 150.31 162.704 149.11 163.2C148.374 163.504 147.782 163.808 147.334 164.112C146.902 164.416 146.59 164.728 146.398 165.048C146.206 165.352 146.11 165.704 146.11 166.104C146.11 166.424 146.214 166.72 146.422 166.992C146.63 167.264 146.926 167.48 147.31 167.64C147.694 167.784 148.15 167.856 148.678 167.856C149.606 167.856 150.462 167.632 151.246 167.184C152.03 166.72 152.702 166.048 153.262 165.168C153.838 164.288 154.23 163.224 154.438 161.976L158.11 163.08C157.758 164.728 157.118 166.168 156.19 167.4C155.278 168.632 154.15 169.6 152.806 170.304C151.478 170.992 149.99 171.336 148.342 171.336ZM78.2682 200V183.9H86.5022C88.6182 183.9 90.1975 184.291 91.2402 185.073C92.2829 185.84 92.8042 186.852 92.8042 188.109C92.8042 188.937 92.5819 189.665 92.1372 190.294C91.7079 190.907 91.0945 191.398 90.2972 191.766C89.5152 192.119 88.5799 192.295 87.4912 192.295L87.9512 191.191C89.0859 191.191 90.0749 191.367 90.9182 191.72C91.7615 192.057 92.4132 192.556 92.8732 193.215C93.3485 193.859 93.5862 194.649 93.5862 195.584C93.5862 196.979 93.0189 198.068 91.8842 198.85C90.7649 199.617 89.1242 200 86.9622 200H78.2682ZM82.7762 196.711H86.5942C87.3762 196.711 87.9665 196.581 88.3652 196.32C88.7792 196.044 88.9862 195.63 88.9862 195.078C88.9862 194.526 88.7792 194.12 88.3652 193.859C87.9665 193.583 87.3762 193.445 86.5942 193.445H82.4542V190.294H85.9042C86.6709 190.294 87.2459 190.164 87.6292 189.903C88.0125 189.642 88.2042 189.251 88.2042 188.73C88.2042 188.209 88.0125 187.825 87.6292 187.58C87.2459 187.319 86.6709 187.189 85.9042 187.189H82.7762V196.711ZM103.374 200.322C100.997 200.322 99.142 199.67 97.808 198.367C96.474 197.064 95.807 195.216 95.807 192.824V183.9H100.361V192.686C100.361 194.066 100.629 195.055 101.166 195.653C101.718 196.251 102.469 196.55 103.42 196.55C104.371 196.55 105.114 196.251 105.651 195.653C106.188 195.055 106.456 194.066 106.456 192.686V183.9H110.941V192.824C110.941 195.216 110.274 197.064 108.94 198.367C107.606 199.67 105.751 200.322 103.374 200.322ZM114.026 200V183.9H121.639C123.418 183.9 124.982 184.23 126.331 184.889C127.68 185.548 128.731 186.476 129.482 187.672C130.249 188.868 130.632 190.294 130.632 191.95C130.632 193.591 130.249 195.017 129.482 196.228C128.731 197.424 127.68 198.352 126.331 199.011C124.982 199.67 123.418 200 121.639 200H114.026ZM118.58 196.366H121.455C122.375 196.366 123.172 196.197 123.847 195.86C124.537 195.507 125.074 195.001 125.457 194.342C125.84 193.667 126.032 192.87 126.032 191.95C126.032 191.015 125.84 190.217 125.457 189.558C125.074 188.899 124.537 188.4 123.847 188.063C123.172 187.71 122.375 187.534 121.455 187.534H118.58V196.366ZM141.078 200.322C139.805 200.322 138.625 200.123 137.536 199.724C136.447 199.31 135.504 198.727 134.707 197.976C133.925 197.225 133.312 196.343 132.867 195.331C132.422 194.304 132.2 193.177 132.2 191.95C132.2 190.723 132.422 189.604 132.867 188.592C133.312 187.565 133.933 186.675 134.73 185.924C135.527 185.173 136.47 184.598 137.559 184.199C138.663 183.785 139.867 183.578 141.17 183.578C142.688 183.578 144.045 183.831 145.241 184.337C146.437 184.843 147.426 185.571 148.208 186.522L145.31 189.144C144.758 188.546 144.16 188.101 143.516 187.81C142.887 187.503 142.182 187.35 141.4 187.35C140.71 187.35 140.081 187.457 139.514 187.672C138.947 187.887 138.464 188.201 138.065 188.615C137.666 189.014 137.352 189.497 137.122 190.064C136.907 190.616 136.8 191.245 136.8 191.95C136.8 192.625 136.907 193.246 137.122 193.813C137.352 194.38 137.666 194.871 138.065 195.285C138.464 195.684 138.939 195.998 139.491 196.228C140.058 196.443 140.679 196.55 141.354 196.55C142.029 196.55 142.688 196.443 143.332 196.228C143.976 195.998 144.628 195.615 145.287 195.078L147.84 198.275C146.92 198.934 145.854 199.44 144.643 199.793C143.432 200.146 142.243 200.322 141.078 200.322ZM143.815 197.677V191.605H147.84V198.275L143.815 197.677ZM154.913 190.133H162.388V193.537H154.913V190.133ZM155.235 196.481H163.653V200H150.727V183.9H163.354V187.419H155.235V196.481ZM169.607 200V187.511H164.662V183.9H179.083V187.511H174.161V200H169.607ZM180.78 200V183.9H185.334V200H180.78ZM188.574 200V183.9H192.323L201.201 194.618H199.43V183.9H203.892V200H200.143L191.265 189.282H193.036V200H188.574ZM215.154 200.322C213.881 200.322 212.701 200.123 211.612 199.724C210.523 199.31 209.58 198.727 208.783 197.976C208.001 197.225 207.388 196.343 206.943 195.331C206.498 194.304 206.276 193.177 206.276 191.95C206.276 190.723 206.498 189.604 206.943 188.592C207.388 187.565 208.009 186.675 208.806 185.924C209.603 185.173 210.546 184.598 211.635 184.199C212.739 183.785 213.943 183.578 215.246 183.578C216.764 183.578 218.121 183.831 219.317 184.337C220.513 184.843 221.502 185.571 222.284 186.522L219.386 189.144C218.834 188.546 218.236 188.101 217.592 187.81C216.963 187.503 216.258 187.35 215.476 187.35C214.786 187.35 214.157 187.457 213.59 187.672C213.023 187.887 212.54 188.201 212.141 188.615C211.742 189.014 211.428 189.497 211.198 190.064C210.983 190.616 210.876 191.245 210.876 191.95C210.876 192.625 210.983 193.246 211.198 193.813C211.428 194.38 211.742 194.871 212.141 195.285C212.54 195.684 213.015 195.998 213.567 196.228C214.134 196.443 214.755 196.55 215.43 196.55C216.105 196.55 216.764 196.443 217.408 196.228C218.052 195.998 218.704 195.615 219.363 195.078L221.916 198.275C220.996 198.934 219.93 199.44 218.719 199.793C217.508 200.146 216.319 200.322 215.154 200.322ZM217.891 197.677V191.605H221.916V198.275L217.891 197.677Z" fill="#4C4C4C"/>
<defs>
<linearGradient id="paint0_linear_442_12" x1="148.276" y1="4.27122" x2="148.276" y2="282.771" gradientUnits="userSpaceOnUse">
<stop offset="0.03" stop-color="#5193BB"/>
<stop offset="0.1" stop-color="#6794AB"/>
<stop offset="0.31" stop-color="#AA987B"/>
<stop offset="0.46" stop-color="#D49A5D"/>
<stop offset="0.54" stop-color="#E49B52"/>
<stop offset="0.6" stop-color="#DF9B55"/>
<stop offset="0.67" stop-color="#D29A5F"/>
<stop offset="0.74" stop-color="#BC996F"/>
<stop offset="0.81" stop-color="#9C9785"/>
<stop offset="0.89" stop-color="#7495A2"/>
<stop offset="0.97" stop-color="#4492C5"/>
<stop offset="0.98" stop-color="#3F92C8"/>
</linearGradient>
<linearGradient id="paint1_linear_442_12" x1="196.235" y1="298.692" x2="130.045" y2="48.9815" gradientUnits="userSpaceOnUse">
<stop stop-color="white"/>
<stop offset="0.45" stop-color="#FCFDFD"/>
<stop offset="0.81" stop-color="#F2F5F6"/>
<stop offset="1" stop-color="#E9EEF0"/>
</linearGradient>
<linearGradient id="paint2_linear_442_12" x1="84.1968" y1="117.141" x2="282.607" y2="273.941" gradientUnits="userSpaceOnUse">
<stop stop-color="white"/>
<stop offset="0.45" stop-color="#FCFDFD"/>
<stop offset="0.81" stop-color="#F2F5F6"/>
<stop offset="1" stop-color="#E9EEF0"/>
</linearGradient>
</defs>
</svg>
