<svg width="288" height="329" viewBox="0 0 288 329" fill="none" xmlns="http://www.w3.org/2000/svg">
<path d="M288 240.621V88.2026C288 86.0965 287.445 84.0275 286.392 82.2038C285.338 80.3801 283.823 78.8659 281.999 77.8135L149.998 1.6082C148.174 0.554646 146.106 0 144 0C141.894 0 139.826 0.554646 138.002 1.6082L6.00149 77.8135C4.17712 78.8659 2.66203 80.3801 1.60853 82.2038C0.555024 84.0275 0.000208067 86.0965 0 88.2026V240.621C0.000416474 242.728 0.555206 244.798 1.60862 246.623C2.66203 248.448 4.17704 249.963 6.00149 251.018L138.002 327.223C139.826 328.276 141.894 328.831 144 328.831C146.106 328.831 148.174 328.276 149.998 327.223L281.999 251.018C283.823 249.963 285.338 248.448 286.391 246.623C287.445 244.798 288 242.728 288 240.621V240.621Z" fill="url(#paint0_linear_430_41)"/>
<path d="M275.297 110.282V218.523C275.297 225.116 273.563 231.592 270.269 237.302C266.976 243.013 262.238 247.757 256.532 251.059L162.784 305.179C157.081 308.479 150.608 310.217 144.019 310.217C137.43 310.217 130.957 308.479 125.254 305.179L31.5052 251.059C25.7992 247.757 21.0619 243.013 17.7682 237.302C14.4746 231.592 12.7406 225.116 12.7402 218.523V110.282C12.7375 103.693 14.4704 97.2201 17.7646 91.5139C21.0588 85.8077 25.798 81.07 31.5052 77.7776L125.254 23.6263C130.963 20.3444 137.433 18.6172 144.019 18.6172C150.604 18.6172 157.075 20.3444 162.784 23.6263L256.532 77.7776C262.24 81.07 266.979 85.8077 270.273 91.5139C273.567 97.2201 275.3 103.693 275.297 110.282V110.282Z" fill="url(#paint1_linear_430_41)"/>
<path d="M44.7197 176.74V157.964H37.2852V152.535H58.9664V157.964H51.5664V176.74H44.7197Z" fill="#4C4C4C"/>
<path d="M67.8106 161.906H79.0489V167.024H67.8106V161.906ZM68.2947 171.45H80.9508V176.74H61.5172V152.535H80.5012V157.826H68.2947V171.45Z" fill="#4C4C4C"/>
<path d="M96.8184 177.225C94.905 177.225 93.1299 176.925 91.4932 176.325C89.8795 175.703 88.4732 174.827 87.2745 173.697C86.0988 172.568 85.1767 171.242 84.5081 169.721C83.8396 168.176 83.5053 166.482 83.5053 164.638C83.5053 162.793 83.8396 161.111 84.5081 159.589C85.1767 158.045 86.0988 156.707 87.2745 155.578C88.4732 154.448 89.8795 153.584 91.4932 152.984C93.1299 152.362 94.905 152.051 96.8184 152.051C99.0545 152.051 101.049 152.443 102.801 153.226C104.576 154.01 106.051 155.14 107.227 156.615L102.87 160.557C102.086 159.635 101.221 158.932 100.276 158.448C99.3542 157.964 98.3168 157.722 97.1642 157.722C96.1729 157.722 95.2623 157.883 94.4324 158.206C93.6025 158.529 92.8879 159.001 92.2885 159.624C91.7122 160.223 91.2511 160.949 90.9053 161.802C90.5826 162.655 90.4212 163.6 90.4212 164.638C90.4212 165.675 90.5826 166.62 90.9053 167.473C91.2511 168.326 91.7122 169.064 92.2885 169.686C92.8879 170.286 93.6025 170.747 94.4324 171.069C95.2623 171.392 96.1729 171.554 97.1642 171.554C98.3168 171.554 99.3542 171.311 100.276 170.827C101.221 170.343 102.086 169.64 102.87 168.718L107.227 172.66C106.051 174.112 104.576 175.242 102.801 176.049C101.049 176.833 99.0545 177.225 96.8184 177.225Z" fill="#4C4C4C"/>
<path d="M126.463 152.535H133.309V176.74H126.463V152.535ZM117.126 176.74H110.279V152.535H117.126V176.74ZM126.947 167.3H116.642V161.629H126.947V167.3Z" fill="#4C4C4C"/>
<path d="M138.139 176.74V152.535H143.775L157.123 168.649H154.46V152.535H161.169V176.74H155.532L142.185 160.626H144.847V176.74H138.139Z" fill="#4C4C4C"/>
<path d="M165.998 176.74V152.535H172.845V176.74H165.998Z" fill="#4C4C4C"/>
<path d="M189.784 177.225C187.871 177.225 186.096 176.925 184.459 176.325C182.845 175.703 181.439 174.827 180.24 173.697C179.065 172.568 178.142 171.242 177.474 169.721C176.805 168.176 176.471 166.482 176.471 164.638C176.471 162.793 176.805 161.111 177.474 159.589C178.142 158.045 179.065 156.707 180.24 155.578C181.439 154.448 182.845 153.584 184.459 152.984C186.096 152.362 187.871 152.051 189.784 152.051C192.02 152.051 194.014 152.443 195.766 153.226C197.541 154.01 199.017 155.14 200.193 156.615L195.836 160.557C195.052 159.635 194.187 158.932 193.242 158.448C192.32 157.964 191.283 157.722 190.13 157.722C189.139 157.722 188.228 157.883 187.398 158.206C186.568 158.529 185.854 159.001 185.254 159.624C184.678 160.223 184.217 160.949 183.871 161.802C183.548 162.655 183.387 163.6 183.387 164.638C183.387 165.675 183.548 166.62 183.871 167.473C184.217 168.326 184.678 169.064 185.254 169.686C185.854 170.286 186.568 170.747 187.398 171.069C188.228 171.392 189.139 171.554 190.13 171.554C191.283 171.554 192.32 171.311 193.242 170.827C194.187 170.343 195.052 169.64 195.836 168.718L200.193 172.66C199.017 174.112 197.541 175.242 195.766 176.049C194.014 176.833 192.02 177.225 189.784 177.225Z" fill="#4C4C4C"/>
<path d="M199.935 176.74L210.62 152.535H217.363L228.083 176.74H220.96L212.591 155.889H215.289L206.92 176.74H199.935ZM205.779 172.038L207.543 166.989H219.369L221.133 172.038H205.779Z" fill="#4C4C4C"/>
<path d="M230.024 176.74V152.535H236.871V171.311H248.42V176.74H230.024Z" fill="#4C4C4C"/>
<defs>
<linearGradient id="paint0_linear_430_41" x1="141.676" y1="54.9142" x2="146.125" y2="264.511" gradientUnits="userSpaceOnUse">
<stop stop-color="white"/>
<stop offset="0.11" stop-color="#FEFBF8"/>
<stop offset="0.27" stop-color="#F9EFE3"/>
<stop offset="0.46" stop-color="#F3DCC2"/>
<stop offset="0.68" stop-color="#EAC294"/>
<stop offset="0.91" stop-color="#DEA159"/>
<stop offset="1" stop-color="#D99341"/>
</linearGradient>
<linearGradient id="paint1_linear_430_41" x1="220.439" y1="295.904" x2="83.0285" y2="59.5351" gradientUnits="userSpaceOnUse">
<stop stop-color="white"/>
<stop offset="0.45" stop-color="#FCFDFD"/>
<stop offset="0.81" stop-color="#F2F5F6"/>
<stop offset="1" stop-color="#E9EEF0"/>
</linearGradient>
</defs>
</svg>
