<svg width="698" height="185" viewBox="0 0 698 185" fill="none" xmlns="http://www.w3.org/2000/svg">
<path d="M686.349 28.7398C682.869 24.9798 675.219 18.5898 663.009 18.2298C650.979 17.8798 638.899 17.5498 626.819 17.2298C613.839 16.8898 607.339 16.7298 594.329 16.4298C591.229 16.3598 588.129 16.2798 585.009 16.1798C584.879 16.1798 584.809 16.1698 584.679 16.1698C581.549 16.0998 578.509 16.4798 575.619 17.2298C572.469 16.1698 569.139 15.5698 565.679 15.4998C565.679 15.4998 547.369 15.1098 544.259 15.0498C538.869 14.9498 533.469 14.8798 528.079 14.8998C517.339 14.9198 507.959 16.6098 499.419 20.0598C494.149 22.1898 489.389 24.9398 485.089 28.2398C477.189 21.9398 467.679 17.6498 456.609 15.5198C451.449 14.5298 446.309 13.9998 441.349 13.9598C441.199 13.9598 441.129 13.9598 440.979 13.9598C435.659 13.9498 430.319 13.8998 424.979 13.8598C418.209 13.8098 411.429 13.7398 404.559 13.6898C400.839 13.6598 397.579 14.2598 394.689 15.1398C391.349 14.1798 387.829 13.6298 384.179 13.6198C384.069 13.6198 383.649 13.6198 383.649 13.6198C375.539 13.5898 368.049 16.1298 361.879 20.4398C357.639 17.1098 350.879 13.5098 341.419 13.5198C328.489 13.5298 315.539 13.5698 302.599 13.6198C293.559 13.6498 289.029 13.6598 279.999 13.7198C277.379 13.7398 276.069 13.7498 273.449 13.7698C271.919 13.7798 270.379 13.7698 268.829 13.7598C268.539 13.7598 268.389 13.7598 268.099 13.7598C264.179 13.7698 260.369 14.5098 256.819 15.7998C253.429 14.5098 249.379 13.6198 244.639 13.6698C240.429 13.7198 236.199 13.7798 231.989 13.8198C227.839 13.8598 223.679 13.8798 219.329 13.9198C212.529 13.9798 206.259 16.0798 201.109 19.6098C196.249 17.6898 191.069 16.3098 185.549 15.5398C180.389 14.8198 175.639 14.5098 170.929 14.5798C162.649 14.7098 158.499 14.7898 150.229 14.9398C141.229 15.0998 132.209 15.2398 123.109 15.4098C117.049 15.5198 111.309 17.2598 106.349 20.3198C102.209 18.9198 97.829 17.8798 93.119 17.2398C86.419 16.3298 80.3791 16.3898 74.5891 16.5298C67.5591 16.7098 64.0391 16.7998 57.0191 16.9898C48.7891 17.2098 40.549 17.4198 32.229 17.6498C20.439 17.9798 12.869 24.0898 9.40901 27.6998C5.94901 31.2998 0.179047 39.1398 0.199047 51.0298C0.239047 85.0798 0.159047 119.18 0.199047 153.18C0.219047 170.96 14.5491 185.06 32.3391 184.56C35.0491 184.48 36.419 184.43 39.129 184.35C47.209 184.12 51.269 184.03 59.359 183.82C65.829 183.65 72.319 183.46 78.799 183.23C88.819 182.86 97.869 181.13 106.209 178C111.089 180.85 116.839 182.46 123.079 182.33C123.189 182.33 123.249 182.33 123.359 182.32C127.459 182.22 131.589 182.11 135.709 182.03C139.959 181.95 144.219 181.9 148.649 181.83C154.719 181.74 160.509 180.03 165.479 176.97C170.409 179.82 176.179 181.4 182.289 181.29C186.939 181.21 191.619 181.13 196.289 181.07C200.649 181.01 205.019 180.97 209.519 180.93C211.199 180.91 212.849 180.73 214.469 180.47C216.109 180.69 217.819 180.85 219.659 180.82C223.799 180.76 227.959 180.69 232.119 180.65C236.259 180.61 240.409 180.58 244.569 180.58C244.669 180.58 244.719 180.58 244.809 180.58C248.839 180.55 252.739 179.78 256.359 178.42C259.999 179.75 263.949 180.5 267.969 180.44C268.459 180.43 268.719 180.43 269.209 180.41C270.269 180.38 271.359 180.34 272.429 180.33C273.499 180.32 274.579 180.34 275.659 180.37C275.949 180.38 276.089 180.39 276.369 180.39C276.579 180.39 276.689 180.39 276.899 180.39C285.659 180.34 293.819 176.98 299.859 170.94C303.359 167.43 309.239 159.76 309.219 147.82C309.209 143.12 309.219 138.42 309.209 133.73C315.439 133.71 318.559 133.7 324.789 133.69C328.789 133.68 332.779 133.69 336.779 133.71C336.869 133.71 336.909 133.71 336.999 133.71C340.529 133.72 343.969 133.15 347.199 132.13C347.189 137.4 347.189 142.67 347.179 147.94C347.159 156.79 350.489 165 356.559 171.06C362.609 177.1 370.859 180.51 379.589 180.47C380.039 180.47 380.269 180.46 380.719 180.46C381.729 180.44 382.759 180.42 383.789 180.43C385.129 180.43 386.469 180.46 387.779 180.49C388.059 180.49 388.199 180.5 388.479 180.5C397.169 180.57 405.319 177.28 411.319 171.32C417.339 165.35 420.629 157.27 420.619 148.63C420.609 145.42 420.619 142.2 420.619 138.99C421.179 139.76 421.749 140.51 422.309 141.28C423.669 143.15 424.359 144.08 425.719 145.95C427.039 147.76 428.379 149.55 429.709 151.35C432.979 155.76 436.079 159.93 438.899 164.08C446.199 174.83 457.179 180.82 469.819 180.97C470.859 180.98 471.949 180.95 473.079 180.88C473.499 180.85 473.929 180.86 474.359 180.86C474.409 180.86 474.459 180.86 474.509 180.86C475.319 180.87 476.139 180.9 476.969 180.92C478.209 180.96 479.479 180.99 480.779 181.01C485.149 181.06 487.329 181.09 491.689 181.15C493.009 181.32 494.339 181.45 495.689 181.46C504.029 181.58 508.199 181.64 516.529 181.77C521.769 181.85 526.999 181.93 532.229 181.96C533.839 181.97 535.339 181.9 536.869 181.84C538.879 181.88 539.879 181.89 541.889 181.93C541.889 181.93 541.779 181.77 541.609 181.54C547.249 181.04 552.439 180.06 557.409 178.44C568.929 174.7 578.409 168.43 585.619 159.78C586.519 158.7 587.359 157.62 588.159 156.53C589.419 164.46 593.199 170.1 596.559 173.62C599.989 177.23 607.549 183.34 619.379 183.63C621.579 183.68 622.689 183.7 624.879 183.75C625.539 183.77 626.209 183.79 626.889 183.83C627.189 183.85 627.349 183.86 627.649 183.87C627.869 183.88 627.989 183.88 628.209 183.88C636.879 184.1 644.959 181.02 650.919 175.18C654.389 171.78 660.199 164.3 660.169 152.35C660.139 140.19 660.129 128.01 660.139 115.84C660.139 115.84 660.139 92.8798 660.139 90.5398C661.089 90.5698 662.049 90.6098 663.009 90.6398C671.969 90.9298 680.249 87.7098 686.269 81.6098C689.749 78.0798 695.539 70.3198 695.089 58.0498C695.019 56.2598 695.029 54.5298 695.089 52.8398C695.599 40.6598 689.829 32.5098 686.349 28.7398ZM587.719 89.6898C587.449 89.3198 587.159 88.9698 586.879 88.5998C587.159 88.6098 587.439 88.6098 587.719 88.6198C587.719 88.9798 587.719 89.3398 587.719 89.6898Z" fill="url(#paint0_linear_130_1015)"/>
<path d="M689.048 15.0499C685.578 11.2999 677.938 4.88989 665.708 4.54989C653.698 4.20989 641.598 3.89989 629.538 3.57989C616.578 3.24989 610.018 3.06991 597.048 2.81991C593.958 2.75991 590.848 2.68989 587.728 2.57989C587.588 2.58989 587.538 2.56989 587.398 2.57989C584.268 2.51989 581.228 2.88991 578.348 3.63991C575.198 2.59991 571.848 1.99991 568.398 1.91991C568.398 1.91991 550.078 1.54989 546.998 1.48989C541.618 1.37989 536.188 1.34989 530.808 1.36989C520.078 1.40989 510.688 3.07989 502.148 6.54989C496.898 8.67989 492.128 11.4399 487.828 14.7499C479.908 8.4499 470.398 4.15991 459.338 2.03991C454.158 1.04991 449.038 0.52991 444.058 0.47991C443.918 0.47991 443.848 0.489889 443.708 0.489889C438.368 0.479889 433.038 0.439912 427.718 0.419912C420.948 0.389912 414.168 0.319888 407.278 0.269888C403.578 0.239888 400.298 0.83989 397.418 1.70989C394.098 0.75989 390.548 0.18989 386.928 0.20989C386.818 0.20989 386.378 0.189901 386.378 0.189901C378.258 0.189901 370.788 2.7299 364.598 7.0299C360.378 3.7099 353.608 0.119904 344.158 0.129904C331.218 0.149904 318.248 0.229898 305.318 0.279898C296.288 0.309898 291.738 0.329893 282.728 0.399893C280.118 0.419893 278.798 0.419911 276.158 0.449911C274.638 0.469911 273.088 0.459891 271.558 0.429891C271.258 0.419891 271.118 0.449901 270.818 0.439901C266.898 0.469901 263.078 1.18989 259.538 2.48989C256.128 1.20989 252.088 0.299884 247.358 0.359884C243.148 0.409884 238.888 0.499887 234.688 0.549887C230.568 0.589887 226.368 0.619893 222.028 0.649893C215.258 0.709893 208.958 2.7999 203.808 6.3399C198.958 4.4299 193.758 3.05989 188.238 2.29989C183.098 1.59989 178.328 1.27988 173.618 1.35988C165.358 1.49988 161.198 1.5599 152.908 1.7199C143.908 1.8899 134.898 2.05991 125.798 2.22991C119.738 2.33991 113.998 4.08991 109.028 7.16991C104.898 5.74991 100.518 4.7299 95.8183 4.0899C89.1183 3.16989 83.0683 3.24989 77.2883 3.39989C70.2583 3.56989 66.7183 3.6799 59.6983 3.8799C51.4783 4.1099 43.2383 4.34989 34.9283 4.57989C23.8283 4.88989 16.4383 10.3299 12.7483 13.9899C12.7183 14.0099 12.6983 14.0399 12.6683 14.0599C12.4483 14.2499 12.2883 14.4499 12.0983 14.6399C8.6583 18.2099 2.85834 26.0899 2.88834 37.9499C2.91834 52.1999 2.91831 66.4599 2.91831 80.7099C2.90831 100.51 2.86834 120.34 2.88834 140.11C2.90834 157.89 17.1983 171.93 35.0383 171.45C37.7483 171.38 39.1183 171.32 41.8183 171.23C49.8483 170.96 53.9483 170.9 62.0583 170.68C68.5183 170.51 75.0083 170.31 81.4983 170.07C91.5183 169.7 100.568 167.94 108.908 164.83C113.768 167.67 119.538 169.27 125.758 169.12C125.868 169.13 125.948 169.14 126.058 169.12C130.168 169.01 134.278 168.91 138.398 168.83C142.628 168.75 146.908 168.68 151.318 168.61C157.378 168.52 163.178 166.79 168.158 163.75C173.078 166.6 178.868 168.18 184.978 168.06C189.618 167.97 194.328 167.87 198.968 167.82C203.318 167.77 207.718 167.72 212.198 167.66C213.888 167.64 215.548 167.44 217.158 167.19C218.788 167.4 220.508 167.56 222.358 167.54C226.498 167.48 230.638 167.39 234.808 167.34C238.948 167.29 243.088 167.29 247.258 167.28C247.368 167.26 247.398 167.26 247.498 167.26C251.528 167.22 255.428 166.45 259.048 165.1C262.698 166.41 266.638 167.18 270.658 167.11C271.148 167.1 271.428 167.08 271.908 167.06C272.958 167.02 274.058 166.98 275.128 166.98C276.188 166.98 277.278 166.98 278.348 167.01C278.628 167.02 278.778 167.02 279.058 167.03C279.278 167.04 279.388 167.04 279.608 167.02C287.588 166.97 295.098 164.07 300.918 159.09C301.478 158.61 302.048 158.1 302.578 157.57C306.068 154.09 311.958 146.37 311.928 134.43C311.928 128.79 311.928 125.98 311.928 120.34C318.138 120.31 321.278 120.29 327.488 120.29C331.488 120.29 335.498 120.29 339.508 120.3C339.598 120.3 339.638 120.3 339.728 120.3C343.268 120.28 346.678 119.74 349.918 118.71C349.918 123.96 349.908 129.25 349.888 134.51C349.868 143.33 353.228 151.57 359.288 157.61C365.338 163.64 373.518 166.97 382.318 167C382.768 166.99 382.988 166.99 383.438 166.99C384.478 166.95 385.488 166.94 386.518 166.95C387.848 166.96 389.188 166.97 390.498 167C390.768 167 390.938 167.02 391.208 167.02C399.298 166.98 407.018 164.18 412.868 158.91C412.868 158.91 412.918 158.91 412.918 158.88C413.298 158.54 413.678 158.18 414.038 157.82C419.978 151.83 423.358 143.77 423.328 135.12C423.328 131.26 423.328 129.33 423.328 125.46C423.898 126.23 424.468 126.99 425.018 127.75C426.348 129.61 427.098 130.55 428.448 132.41C429.758 134.21 431.088 136.01 432.428 137.82C435.688 142.24 438.798 146.39 441.608 150.53C448.888 161.27 459.898 167.29 472.528 167.39C473.588 167.4 474.668 167.36 475.798 167.3C476.228 167.28 476.638 167.29 477.078 167.3C477.128 167.3 477.158 167.3 477.218 167.29C478.038 167.31 478.868 167.31 479.698 167.34C480.908 167.38 482.208 167.41 483.508 167.43C487.868 167.49 490.048 167.52 494.428 167.56C495.738 167.74 497.078 167.85 498.428 167.86C506.728 167.95 510.938 168.03 519.248 168.16C524.468 168.24 529.748 168.32 534.948 168.35C536.548 168.36 538.078 168.28 539.598 168.23C541.588 168.26 542.588 168.27 544.608 168.32C544.608 168.32 544.498 168.17 544.338 167.93C549.968 167.4 555.168 166.42 560.118 164.82C569.958 161.63 578.308 156.56 585.018 149.76C586.128 148.63 587.218 147.45 588.248 146.22C588.278 146.19 588.298 146.16 588.328 146.13C589.228 145.05 590.068 143.97 590.878 142.86C592.128 150.8 595.918 156.43 599.278 159.96C602.698 163.56 610.228 169.64 622.098 169.94C624.298 170 625.388 170.03 627.588 170.07C628.268 170.08 628.918 170.1 629.598 170.14C629.928 170.16 630.058 170.17 630.388 170.17C630.608 170.18 630.718 170.19 630.928 170.2C639.538 170.41 647.598 167.37 653.538 161.6C653.568 161.54 653.618 161.51 653.648 161.48C657.118 158.08 662.928 150.6 662.898 138.63C662.868 126.47 662.868 114.29 662.868 102.1C662.868 102.1 662.868 90.9199 662.868 83.3899C662.868 80.7599 662.868 79.4399 662.868 76.8099C663.818 76.8399 664.768 76.8899 665.718 76.9199C674.518 77.1799 682.668 74.0899 688.658 68.1599C688.768 68.0699 688.878 67.9399 688.988 67.8499C692.488 64.3199 698.318 56.5099 697.818 44.2799C697.748 42.4999 697.748 40.7499 697.818 39.0799C698.358 27.0099 692.528 18.8099 689.048 15.0499ZM590.438 75.0299C590.438 75.4499 590.438 75.6699 590.438 76.0899C590.168 75.7299 589.868 75.3799 589.598 75.0199C589.868 75.0199 590.168 75.0199 590.438 75.0299Z" fill="white"/>
<path d="M115.778 108.99C115.408 103.15 113.678 97.82 109.148 93.84C105.908 91 101.998 89.4599 97.9276 88.3299C97.0575 88.0899 96.2475 87.69 95.2875 87.65C97.1875 86.6 99.1576 85.77 100.998 84.74C104.958 82.51 107.998 79.51 110.048 75.85C111.178 73.83 112.008 71.56 112.498 69.07C113.478 64.05 113.438 58.97 111.928 54.12C110.458 49.41 107.578 45.56 103.528 42.73C98.9676 39.53 93.8176 37.92 88.3176 37.18C83.7576 36.57 79.1875 36.61 74.5975 36.73C60.4875 37.09 46.2576 37.38 32.2576 37.84C31.0476 37.88 30.7676 38.19 30.7676 39.41C30.7776 52.54 30.7975 65.6899 30.7975 78.8299C30.7975 99.7499 30.7876 120.68 30.7676 141.58C30.7676 142.78 31.0175 143.12 32.2375 143.08C47.5476 142.53 63.0576 142.31 78.4276 141.75C86.4576 141.46 94.3475 139.92 101.598 135.95C106.458 133.28 110.398 129.56 112.878 124.56C114.458 121.36 115.148 117.86 115.568 114.34C115.768 112.56 115.888 110.77 115.778 108.99ZM58.9175 58.47C58.8975 57.55 59.1076 57.21 60.0876 57.2C64.9876 57.15 69.8976 56.84 74.7776 57.39C77.0776 57.65 79.3175 58.22 81.2175 59.43C83.4375 60.84 84.4876 63.07 84.8076 65.76C85.2276 69.27 84.0475 72.11 81.4075 74.2999C80.0775 75.41 78.6076 76.2 77.0676 76.76C74.8476 77.57 72.4976 77.92 70.1476 78.17C66.7876 78.52 63.3576 78.33 60.0176 78.49C59.1776 78.53 58.9076 78.35 58.9276 77.48C58.9276 77.47 58.9276 77.46 58.9276 77.45C58.9776 74.27 58.9576 71.14 58.9576 67.96C58.9476 64.81 58.9975 61.61 58.9175 58.47ZM81.9976 119C78.0076 121.13 73.6676 121.38 69.3976 121.81C66.3676 122.11 63.2475 121.96 60.2175 122.12C59.2175 122.17 58.8875 121.98 58.9175 120.9C59.0075 117.27 58.9476 113.64 58.9476 110.02C58.9476 105.55 58.9476 103.31 58.9476 98.84C58.9476 98.3 58.8175 97.79 59.7375 97.78C65.4875 97.73 71.3576 97.1 77.1176 98.18C79.5376 98.63 81.9576 99.34 83.8776 100.9C88.9176 104.98 89.1676 115.17 81.9976 119Z" fill="#024D93"/>
<path d="M210.297 138.31C208.307 132.94 206.317 127.5 204.357 122.09C202.587 117.21 200.947 112.3 199.017 107.5C197.297 103.2 196.167 98.6501 193.867 94.6201C192.627 92.4301 191.227 90.4401 189.017 89.1201C187.957 88.4901 186.757 88.2601 185.347 87.6501C189.837 86.8001 193.497 84.9901 196.777 82.3201C199.387 80.1901 201.337 77.6901 202.687 74.9401C204.027 72.2001 204.827 69.1401 205.187 65.9001C205.767 60.7501 205.697 55.6201 203.687 50.7801C202.247 47.3101 200.037 44.4401 197.047 42.0501C192.287 38.2301 186.797 36.2601 180.827 35.4301C177.577 34.9801 174.257 34.7101 170.917 34.7601C155.047 34.9701 138.917 35.4501 123.097 35.6101C121.807 35.6201 121.577 36.0001 121.577 37.2301C121.577 52.5901 121.577 60.2701 121.577 75.6401C121.577 96.8601 121.567 118.08 121.547 139.29C121.547 140.49 121.797 140.88 123.097 140.83C131.507 140.53 140.137 140.41 148.577 140.34C149.657 140.33 149.967 140.06 149.967 138.97C149.937 126.13 149.927 113.22 149.917 100.37C149.917 99.2601 150.137 98.8201 151.327 98.8901C153.897 99.0601 156.527 98.6501 159.137 98.9701C163.427 99.5001 166.397 101.83 168.607 105.4C171.897 110.73 173.567 116.74 175.517 122.62C177.287 127.95 178.897 133.43 180.607 138.71C180.867 139.51 181.207 139.83 182.127 139.81C191.167 139.6 200.367 139.5 209.457 139.44C210.477 139.43 210.617 139.19 210.297 138.31ZM163.507 78.2101C159.417 78.5701 155.277 78.8101 151.157 78.7701C150.237 78.7601 149.917 78.5601 149.937 77.5901C149.947 76.8101 149.967 75.9901 149.937 75.2001C149.987 72.4601 149.967 69.7301 149.967 66.9901C149.967 63.4501 149.967 59.8901 149.937 56.3801C149.927 55.4901 150.167 55.1901 151.077 55.2101C154.357 55.2901 157.717 55.0201 161.057 55.2801C164.107 55.5101 167.077 55.8301 169.977 56.7401C172.197 57.4301 174.137 58.5701 175.477 60.4601C177.337 63.1001 177.617 66.1001 176.867 69.2201C176.397 71.1701 175.617 72.9401 174.067 74.4001C173.827 74.6301 173.577 74.8601 173.337 75.0101C170.467 77.3901 166.967 77.9101 163.507 78.2101Z" fill="#024D93"/>
<path d="M217.958 86.85C217.958 103.85 217.958 120.85 217.928 137.86C217.928 139.12 218.278 139.35 219.468 139.33C227.898 139.18 236.338 139.1 244.768 139.08C245.978 139.08 246.168 138.7 246.168 137.61C246.148 103.47 246.148 69.3199 246.168 35.1799C246.168 34.0699 245.858 33.8499 244.798 33.8599C236.318 33.9799 227.838 34.0699 219.358 34.1099C218.198 34.1199 217.928 34.43 217.938 35.57C217.958 52.67 217.958 69.76 217.958 86.85Z" fill="#024D93"/>
<path d="M515.168 129.42C508.728 129.32 502.278 129.25 495.828 129.11C494.698 129.08 494.468 129.43 494.488 130.48C494.558 133.24 494.538 136 494.498 138.75C494.488 139.6 494.658 139.94 495.618 139.95C507.728 140.09 519.838 140.37 531.928 140.45C537.158 140.49 542.378 140.06 547.368 138.43C553.008 136.59 557.938 133.71 561.808 129.06C564.698 125.6 566.878 121.88 567.648 117.42C568.668 111.57 568.188 105.86 565.228 100.46C562.798 96.01 559.508 92.33 555.348 89.5C550.488 86.2 544.958 84.7 539.258 83.76C535.368 83.11 531.448 83.05 527.548 82.72C521.808 82.23 516.168 81.22 511.398 77.47C507.308 74.26 505.198 70.06 504.908 64.98C504.578 59.27 506.658 54.54 511.018 50.95C513.628 48.8 516.798 47.62 520.068 46.8C522.498 46.19 524.998 45.94 527.488 45.97C540.048 46.13 552.588 46.36 565.128 46.69C566.578 46.73 566.878 46.32 566.818 44.97C566.708 42.26 566.758 39.55 566.808 36.83C566.828 35.99 566.608 35.74 565.738 35.72C553.388 35.5 541.018 35.09 528.658 35.12C522.778 35.13 516.908 35.82 511.348 38.06C505.218 40.53 500.428 44.5 496.968 50.12C494.838 53.59 493.888 57.37 493.388 61.37C492.768 66.36 493.848 71.06 495.828 75.56C497.118 78.48 499.158 80.99 501.378 83.36C506.608 88.94 513.378 91.24 520.508 92.74C522.728 93.21 525.018 93.34 527.298 93.49C532.918 93.87 538.618 93.78 544.058 95.7C548.868 97.4 553.008 100.02 554.978 105C557.298 110.85 557.028 116.58 553.548 121.81C551.518 124.86 548.438 126.67 544.938 127.79C540.868 129.09 536.708 129.79 532.408 129.71C526.678 129.6 520.928 129.51 515.168 129.42Z" fill="#E9662D"/>
<path d="M480.787 139.49C479.067 137.14 477.527 135.05 476.007 132.95C472.767 128.48 469.537 124 466.297 119.54C460.587 111.68 454.887 103.81 449.127 95.99C448.407 95.01 448.727 94.78 449.647 94.67C457.257 93.71 463.887 90.64 469.277 85.27C473.277 81.28 475.537 76.31 476.567 70.71C477.727 64.39 476.767 58.33 474.447 52.42C473.507 50.04 471.997 47.93 470.377 45.93C465.377 39.73 458.647 36.62 451.037 35.16C447.767 34.53 444.457 34.17 441.107 34.15C428.937 34.1 416.747 33.99 404.567 33.89C403.527 33.88 403.137 34.08 403.177 35.22C403.267 37.88 403.267 40.55 403.177 43.21C403.137 44.32 403.487 44.58 404.567 44.58C416.937 44.61 429.297 44.66 441.657 44.85C447.057 44.93 452.287 46.09 456.877 49.09C461.577 52.16 464.447 56.47 465.107 62.19C465.637 66.77 465.167 71.1 462.947 75.13C459.807 80.84 454.687 83.84 448.487 85.3C444.737 86.19 440.917 86.48 437.067 86.25C435.887 86.18 435.587 86.57 435.647 87.7C435.737 89.53 435.827 91.39 435.637 93.21C435.377 95.59 436.167 97.48 437.577 99.36C442.017 105.27 446.347 111.26 450.707 117.23C455.347 123.57 460.127 129.81 464.517 136.31C466.157 138.73 467.837 139.61 470.647 139.42C473.887 139.21 477.177 139.45 480.787 139.49Z" fill="#E9662D"/>
<path d="M629.498 95.1499C629.508 79.9799 629.508 64.8199 629.468 49.6499C629.468 48.4899 629.678 48.1199 630.938 48.1599C641.638 48.5099 652.318 48.7599 662.988 49.1399C664.268 49.1899 664.598 48.8199 664.558 47.5699C664.468 45.0399 664.458 42.5099 664.558 39.9899C664.608 38.7699 664.278 38.4699 663.068 38.4299C643.418 37.8799 623.768 37.3499 604.118 36.8499C597.658 36.6899 591.198 36.5799 584.738 36.3699C583.568 36.3299 583.288 36.6599 583.328 37.7899C583.418 40.3599 583.418 42.9399 583.328 45.5099C583.288 46.6999 583.568 47.0599 584.818 47.0799C595.498 47.2599 606.178 47.5699 616.838 47.7799C618.158 47.8099 618.498 48.1399 618.498 49.4799C618.468 79.7699 618.458 110.05 618.468 140.34C618.468 142.3 618.158 142.08 620.208 142.15C622.818 142.23 625.428 142.22 628.028 142.39C629.228 142.47 629.538 142.16 629.538 140.93C629.488 125.66 629.498 110.41 629.498 95.1499Z" fill="#E9662D"/>
<path d="M266.657 86.4C266.657 103.4 266.657 120.41 266.627 137.41C266.627 138.6 266.877 138.99 268.127 138.94C270.987 138.82 273.847 138.8 276.707 138.89C277.947 138.93 278.227 138.56 278.217 137.35C278.177 116.76 278.187 96.18 278.187 75.59C278.187 65.89 278.187 56.2 278.187 46.5C278.187 44.57 278.187 44.57 280.057 44.56C300.457 44.44 320.857 44.38 341.267 44.43C342.727 44.43 343.047 44.02 342.987 42.66C342.877 40.18 342.887 37.69 342.987 35.22C343.037 33.99 342.667 33.71 341.457 33.71C320.967 33.75 300.467 33.8 279.977 33.91C276.057 33.93 272.127 34 268.217 33.95C266.987 33.93 266.607 34.23 266.617 35.52C266.657 52.49 266.657 69.44 266.657 86.4Z" fill="#EB6730"/>
<path d="M378.217 67.2201C378.217 67.7801 378.217 68.2601 378.217 68.7501C378.217 91.6301 378.217 114.52 378.187 137.4C378.187 138.7 378.567 139 379.797 138.96C382.657 138.88 385.517 138.92 388.377 138.98C389.287 139 389.647 138.84 389.647 137.81C389.617 110.56 389.617 83.3101 389.647 56.0701C389.647 55.1401 389.447 54.8001 388.437 54.8201C385.577 54.8801 382.707 54.9201 379.857 54.7701C378.517 54.7001 377.577 55.3201 376.587 55.9101C368.867 60.4701 361.167 65.0501 353.457 69.6401C351.897 70.5701 350.327 71.5001 348.757 72.4201C348.177 72.7601 347.807 73.1201 348.227 73.8301C349.677 76.3001 351.127 78.7701 352.557 81.2501C352.897 81.8401 353.297 81.6501 353.717 81.4001C359.117 78.1901 364.507 74.9601 369.907 71.7701C372.447 70.2701 375.017 68.8001 377.577 67.3301C377.727 67.2501 377.927 67.2701 378.217 67.2201Z" fill="#E9662D"/>
<path d="M313.288 92.22C321.178 92.2 329.078 92.17 336.968 92.21C338.068 92.22 338.378 91.91 338.348 90.83C338.268 88.08 338.288 85.32 338.338 82.56C338.348 81.71 338.108 81.47 337.248 81.47C321.328 81.5 305.398 81.54 289.478 81.59C288.558 81.59 288.298 81.86 288.308 82.76C288.358 85.52 288.368 88.28 288.308 91.03C288.288 92.05 288.548 92.35 289.608 92.34C297.498 92.25 305.388 92.24 313.288 92.22Z" fill="#EB6730"/>
<path d="M383.887 33.8201C379.317 33.6801 376.787 37.0801 376.647 40.8001C376.497 44.6301 380.117 48.1701 383.947 48.1401C387.727 48.1101 391.337 44.6001 391.227 40.9301C391.107 37.2001 388.527 33.6901 383.887 33.8201Z" fill="#EB6730"/>
<path opacity="0.35" d="M697.829 39.12C697.759 40.78 697.759 42.54 697.829 44.32C698.319 56.55 692.489 64.36 688.999 67.89C688.889 67.99 688.779 68.11 688.669 68.2C687.829 69.31 687.019 70.2 686.289 70.94C680.269 77.05 671.999 80.28 663.029 79.99C662.979 80 662.949 80 662.889 79.98C662.889 81.36 662.889 82.05 662.889 83.43C661.989 83.39 661.069 83.4 660.179 83.38C649.919 83.21 639.609 82.89 629.509 82.66C625.819 82.57 622.149 82.48 618.489 82.39C584.189 81.61 549.789 80.76 515.469 79.93C509.679 79.79 503.889 79.66 498.179 79.52C489.999 79.32 481.869 79.13 473.839 78.95C469.349 78.85 464.899 78.75 460.469 78.65C436.869 78.13 413.239 77.62 389.629 77.13C385.819 77.05 381.999 76.99 378.239 76.92C372.709 76.82 367.209 76.71 361.809 76.61C357.759 76.53 353.709 76.45 349.739 76.4C325.939 76.05 302.069 75.67 278.229 75.39C274.329 75.35 270.489 75.3 266.679 75.26C259.709 75.2 252.859 75.13 246.169 75.09C236.529 75.04 227.119 75 217.979 74.97C212.809 74.95 207.709 74.94 202.729 74.94C192.619 74.94 182.799 74.96 173.359 75.01C165.309 75.05 157.519 75.12 149.959 75.2C140.109 75.31 130.619 75.48 121.619 75.63C117.689 75.7 113.829 75.76 110.069 75.86C98.3493 76.15 87.2794 76.43 77.0893 76.76C70.7493 76.97 64.6893 77.2 58.9493 77.45C48.6393 77.89 39.2093 78.33 30.8093 78.82C19.8693 79.45 10.5593 80.12 2.93932 80.75C2.01932 80.82 1.0993 80.9 0.229303 80.98C0.229303 67.44 0.229335 53.9 0.199335 40.37C0.169335 28.51 5.9693 20.66 9.4093 17.06C10.2493 16.18 11.3293 15.15 12.6893 14.09C12.7193 14.07 12.7393 14.04 12.7693 14.02C16.4593 10.36 23.8493 4.91998 34.9493 4.60998C43.2593 4.37998 51.4993 4.14 59.7193 3.91C66.7493 3.72 70.2793 3.60998 77.3093 3.42998C83.0893 3.28998 89.1293 3.20999 95.8393 4.11999C100.539 4.75999 104.919 5.78 109.049 7.2C114.019 4.12 119.759 2.37 125.819 2.26C134.929 2.09 143.939 1.91999 152.929 1.74999C161.219 1.58999 165.369 1.53001 173.639 1.39001C178.339 1.31001 183.109 1.61998 188.259 2.32998C193.779 3.08998 198.989 4.45999 203.829 6.36999C208.979 2.82999 215.279 0.739984 222.049 0.679984C226.399 0.639984 230.599 0.619978 234.709 0.579978C238.909 0.529978 243.159 0.440006 247.379 0.390006C252.109 0.330006 256.149 1.23998 259.559 2.51998C263.099 1.21998 266.919 0.489993 270.839 0.469993C271.139 0.479993 271.279 0.459983 271.579 0.459983C273.119 0.489983 274.659 0.490002 276.179 0.480002C278.819 0.450002 280.129 0.449984 282.749 0.429984C291.759 0.359984 296.309 0.339989 305.339 0.309989C318.269 0.259989 331.239 0.179995 344.179 0.159995C353.629 0.139995 360.399 3.73999 364.619 7.05999C370.809 2.74999 378.269 0.219993 386.399 0.219993C386.399 0.219993 386.839 0.239982 386.949 0.239982C390.569 0.219982 394.119 0.789982 397.439 1.73998C400.329 0.869982 403.599 0.269979 407.299 0.299979C414.189 0.349979 420.969 0.420004 427.739 0.450004C433.069 0.480004 438.389 0.50998 443.729 0.51998C443.869 0.51998 443.939 0.510001 444.079 0.510001C449.069 0.560001 454.189 1.08 459.359 2.07C470.419 4.19 479.919 8.47999 487.849 14.78C492.149 11.46 496.919 8.70998 502.169 6.57998C510.709 3.10998 520.089 1.43999 530.829 1.39999C536.209 1.37999 541.629 1.40998 547.019 1.51998C550.109 1.57998 568.419 1.95 568.419 1.95C571.869 2.03 575.219 2.63 578.369 3.67C581.249 2.91 584.299 2.54998 587.419 2.60998C587.559 2.59998 587.609 2.61998 587.749 2.60998C590.879 2.71998 593.989 2.79 597.069 2.85C610.039 3.11 616.589 3.27998 629.559 3.60998C641.629 3.91998 653.719 4.23998 665.729 4.57998C677.959 4.91998 685.599 11.33 689.069 15.08C692.529 18.81 698.359 27.01 697.829 39.12Z" fill="white"/>
<defs>
<linearGradient id="paint0_linear_130_1015" x1="347.658" y1="226.22" x2="347.658" y2="87.8957" gradientUnits="userSpaceOnUse">
<stop offset="0.0112" stop-color="#D5D1E9"/>
<stop offset="1" stop-color="#35A8E0"/>
</linearGradient>
</defs>
</svg>
