<svg width="297" height="284" viewBox="0 0 297 284" fill="none" xmlns="http://www.w3.org/2000/svg">
<path d="M141.225 2.26122L4.9455 101.261C2.89649 102.75 1.3712 104.849 0.588029 107.258C-0.195143 109.667 -0.19603 112.262 0.585496 114.671L52.6355 274.901C53.4205 277.309 54.9469 279.406 56.9964 280.893C59.0459 282.381 61.5133 283.181 64.0455 283.181H232.495C235.028 283.181 237.495 282.381 239.545 280.893C241.594 279.406 243.121 277.309 243.906 274.901L295.906 114.691C296.688 112.283 296.689 109.689 295.907 107.28C295.126 104.871 293.603 102.772 291.556 101.281L155.275 2.28122C153.233 0.801797 150.776 0.00360243 148.254 1.21649e-05C145.732 -0.0035781 143.272 0.787618 141.225 2.26122Z" fill="url(#paint0_linear_442_2)"/>
<path d="M143.476 27.2715L28.0256 111.152C26.6258 112.159 25.5814 113.585 25.0424 115.224C24.5034 116.862 24.4975 118.629 25.0256 120.272L69.1656 255.992C69.6978 257.631 70.7352 259.059 72.1292 260.072C73.5233 261.085 75.2023 261.631 76.9256 261.632H219.626C221.355 261.637 223.042 261.094 224.443 260.08C225.844 259.067 226.889 257.635 227.426 255.992L271.516 120.272C272.047 118.63 272.042 116.861 271.503 115.222C270.964 113.583 269.918 112.157 268.516 111.152L153.066 27.2715C151.671 26.2621 149.993 25.7188 148.271 25.7188C146.549 25.7188 144.871 26.2621 143.476 27.2715V27.2715Z" fill="url(#paint1_linear_442_2)"/>
<path d="M144.226 32.1209L32.4258 113.361C31.2498 114.216 30.3747 115.422 29.9256 116.805C29.4766 118.188 29.4766 119.678 29.9258 121.061L72.6158 252.511C73.0672 253.892 73.9437 255.096 75.1201 255.949C76.2965 256.802 77.7126 257.261 79.1658 257.261H217.426C218.879 257.263 220.296 256.804 221.473 255.951C222.65 255.097 223.526 253.893 223.976 252.511L266.686 121.061C267.135 119.678 267.135 118.188 266.686 116.805C266.237 115.422 265.362 114.216 264.186 113.361L152.316 32.1209C151.14 31.2679 149.724 30.8086 148.271 30.8086C146.818 30.8086 145.402 31.2679 144.226 32.1209V32.1209Z" fill="url(#paint2_linear_442_2)"/>
<path d="M62.9394 131V115.6H69.9794C71.3874 115.6 72.5974 115.827 73.6094 116.282C74.6361 116.737 75.4281 117.397 75.9854 118.262C76.5427 119.113 76.8214 120.125 76.8214 121.298C76.8214 122.457 76.5427 123.461 75.9854 124.312C75.4281 125.163 74.6361 125.823 73.6094 126.292C72.5974 126.747 71.3874 126.974 69.9794 126.974H65.3594L67.2954 125.082V131H62.9394ZM67.2954 125.544L65.3594 123.542H69.7154C70.6247 123.542 71.2994 123.344 71.7394 122.948C72.1941 122.552 72.4214 122.002 72.4214 121.298C72.4214 120.579 72.1941 120.022 71.7394 119.626C71.2994 119.23 70.6247 119.032 69.7154 119.032H65.3594L67.2954 117.03V125.544ZM78.9453 131V115.6H85.9853C87.3933 115.6 88.6033 115.827 89.6153 116.282C90.6419 116.737 91.4339 117.397 91.9913 118.262C92.5486 119.113 92.8273 120.125 92.8273 121.298C92.8273 122.457 92.5486 123.461 91.9913 124.312C91.4339 125.148 90.6419 125.793 89.6153 126.248C88.6033 126.688 87.3933 126.908 85.9853 126.908H81.3653L83.3013 125.082V131H78.9453ZM88.4713 131L84.6433 125.39H89.2853L93.1353 131H88.4713ZM83.3013 125.544L81.3653 123.542H85.7213C86.6306 123.542 87.3053 123.344 87.7453 122.948C88.1999 122.552 88.4273 122.002 88.4273 121.298C88.4273 120.579 88.1999 120.022 87.7453 119.626C87.3053 119.23 86.6306 119.032 85.7213 119.032H81.3653L83.3013 117.03V125.544ZM102.996 131.308C101.764 131.308 100.628 131.11 99.5864 130.714C98.5451 130.318 97.6358 129.761 96.8584 129.042C96.0958 128.309 95.5018 127.458 95.0764 126.49C94.6511 125.522 94.4384 124.459 94.4384 123.3C94.4384 122.141 94.6511 121.078 95.0764 120.11C95.5018 119.142 96.0958 118.299 96.8584 117.58C97.6358 116.847 98.5451 116.282 99.5864 115.886C100.628 115.49 101.764 115.292 102.996 115.292C104.243 115.292 105.38 115.49 106.406 115.886C107.448 116.282 108.35 116.847 109.112 117.58C109.875 118.299 110.469 119.142 110.894 120.11C111.334 121.078 111.554 122.141 111.554 123.3C111.554 124.459 111.334 125.529 110.894 126.512C110.469 127.48 109.875 128.323 109.112 129.042C108.35 129.761 107.448 130.318 106.406 130.714C105.38 131.11 104.243 131.308 102.996 131.308ZM102.996 127.7C103.583 127.7 104.126 127.597 104.624 127.392C105.138 127.187 105.578 126.893 105.944 126.512C106.326 126.116 106.619 125.647 106.824 125.104C107.044 124.561 107.154 123.96 107.154 123.3C107.154 122.625 107.044 122.024 106.824 121.496C106.619 120.953 106.326 120.491 105.944 120.11C105.578 119.714 105.138 119.413 104.624 119.208C104.126 119.003 103.583 118.9 102.996 118.9C102.41 118.9 101.86 119.003 101.346 119.208C100.848 119.413 100.408 119.714 100.026 120.11C99.6598 120.491 99.3664 120.953 99.1464 121.496C98.9411 122.024 98.8384 122.625 98.8384 123.3C98.8384 123.96 98.9411 124.561 99.1464 125.104C99.3664 125.647 99.6598 126.116 100.026 126.512C100.408 126.893 100.848 127.187 101.346 127.392C101.86 127.597 102.41 127.7 102.996 127.7ZM117.884 122.354H124.99V125.72H117.884V122.354ZM118.192 131H113.836V115.6H125.914V118.966H118.192V131ZM127.951 131V115.6H132.307V131H127.951ZM138.684 131V119.054H133.954V115.6H147.748V119.054H143.04V131H138.684ZM146.75 131L153.548 115.6H157.838L164.658 131H160.126L154.802 117.734H156.518L151.194 131H146.75ZM150.468 128.008L151.59 124.796H159.114L160.236 128.008H150.468ZM165.893 131V115.6H173.769C175.793 115.6 177.303 115.974 178.301 116.722C179.298 117.455 179.797 118.423 179.797 119.626C179.797 120.418 179.584 121.115 179.159 121.716C178.748 122.303 178.161 122.772 177.399 123.124C176.651 123.461 175.756 123.63 174.715 123.63L175.155 122.574C176.24 122.574 177.186 122.743 177.993 123.08C178.799 123.403 179.423 123.879 179.863 124.51C180.317 125.126 180.545 125.881 180.545 126.776C180.545 128.111 180.002 129.152 178.917 129.9C177.846 130.633 176.277 131 174.209 131H165.893ZM170.205 127.854H173.857C174.605 127.854 175.169 127.729 175.551 127.48C175.947 127.216 176.145 126.82 176.145 126.292C176.145 125.764 175.947 125.375 175.551 125.126C175.169 124.862 174.605 124.73 173.857 124.73H169.897V121.716H173.197C173.93 121.716 174.48 121.591 174.847 121.342C175.213 121.093 175.397 120.719 175.397 120.22C175.397 119.721 175.213 119.355 174.847 119.12C174.48 118.871 173.93 118.746 173.197 118.746H170.205V127.854ZM182.801 131V115.6H187.157V131H182.801ZM190.256 131V115.6H194.612V127.546H201.96V131H190.256ZM203.684 131V115.6H208.04V131H203.684ZM214.417 131V119.054H209.687V115.6H223.481V119.054H218.773V131H214.417ZM228.632 131V124.488L229.644 127.106L222.758 115.6H227.356L232.328 123.938H229.666L234.66 115.6H238.884L232.02 127.106L232.988 124.488V131H228.632ZM145.273 159.308C144.1 159.308 143.051 159.125 142.127 158.758C141.203 158.377 140.47 157.856 139.927 157.196C139.399 156.536 139.135 155.795 139.135 154.974C139.135 154.167 139.311 153.449 139.663 152.818C140.03 152.187 140.587 151.608 141.335 151.08C142.098 150.552 143.066 150.046 144.239 149.562C145.016 149.225 145.625 148.924 146.065 148.66C146.505 148.396 146.813 148.147 146.989 147.912C147.18 147.663 147.275 147.413 147.275 147.164C147.275 146.856 147.172 146.607 146.967 146.416C146.762 146.225 146.454 146.13 146.043 146.13C145.618 146.13 145.28 146.24 145.031 146.46C144.796 146.68 144.679 146.951 144.679 147.274C144.679 147.465 144.716 147.655 144.789 147.846C144.877 148.037 145.038 148.257 145.273 148.506C145.522 148.755 145.867 149.078 146.307 149.474L154.425 156.69L152.181 159.264L143.029 151.102C142.53 150.662 142.12 150.237 141.797 149.826C141.489 149.415 141.254 149.005 141.093 148.594C140.946 148.183 140.873 147.765 140.873 147.34C140.873 146.548 141.086 145.859 141.511 145.272C141.936 144.671 142.538 144.209 143.315 143.886C144.092 143.549 145.002 143.38 146.043 143.38C146.996 143.38 147.825 143.527 148.529 143.82C149.248 144.113 149.805 144.539 150.201 145.096C150.597 145.653 150.795 146.313 150.795 147.076C150.795 147.751 150.619 148.367 150.267 148.924C149.93 149.481 149.402 149.995 148.683 150.464C147.979 150.933 147.077 151.395 145.977 151.85C145.302 152.129 144.76 152.407 144.349 152.686C143.953 152.965 143.667 153.251 143.491 153.544C143.315 153.823 143.227 154.145 143.227 154.512C143.227 154.805 143.322 155.077 143.513 155.326C143.704 155.575 143.975 155.773 144.327 155.92C144.679 156.052 145.097 156.118 145.581 156.118C146.432 156.118 147.216 155.913 147.935 155.502C148.654 155.077 149.27 154.461 149.783 153.654C150.311 152.847 150.67 151.872 150.861 150.728L154.227 151.74C153.904 153.251 153.318 154.571 152.467 155.7C151.631 156.829 150.597 157.717 149.365 158.362C148.148 158.993 146.784 159.308 145.273 159.308ZM59.9746 187V171.6H67.0146C68.4226 171.6 69.6326 171.827 70.6446 172.282C71.6712 172.737 72.4632 173.397 73.0206 174.262C73.5779 175.113 73.8566 176.125 73.8566 177.298C73.8566 178.457 73.5779 179.461 73.0206 180.312C72.4632 181.163 71.6712 181.823 70.6446 182.292C69.6326 182.747 68.4226 182.974 67.0146 182.974H62.3946L64.3306 181.082V187H59.9746ZM64.3306 181.544L62.3946 179.542H66.7506C67.6599 179.542 68.3346 179.344 68.7746 178.948C69.2292 178.552 69.4566 178.002 69.4566 177.298C69.4566 176.579 69.2292 176.022 68.7746 175.626C68.3346 175.23 67.6599 175.032 66.7506 175.032H62.3946L64.3306 173.03V181.544ZM79.9844 177.562H87.1344V180.818H79.9844V177.562ZM80.2924 183.634H88.3444V187H75.9804V171.6H88.0584V174.966H80.2924V183.634ZM90.7617 187V171.6H97.8017C99.2097 171.6 100.42 171.827 101.432 172.282C102.458 172.737 103.25 173.397 103.808 174.262C104.365 175.113 104.644 176.125 104.644 177.298C104.644 178.457 104.365 179.461 103.808 180.312C103.25 181.148 102.458 181.793 101.432 182.248C100.42 182.688 99.2097 182.908 97.8017 182.908H93.1817L95.1177 181.082V187H90.7617ZM100.288 187L96.4597 181.39H101.102L104.952 187H100.288ZM95.1177 181.544L93.1817 179.542H97.5377C98.447 179.542 99.1217 179.344 99.5617 178.948C100.016 178.552 100.244 178.002 100.244 177.298C100.244 176.579 100.016 176.022 99.5617 175.626C99.1217 175.23 98.447 175.032 97.5377 175.032H93.1817L95.1177 173.03V181.544ZM111.095 178.354H118.201V181.72H111.095V178.354ZM111.403 187H107.047V171.6H119.125V174.966H111.403V187ZM128.799 187.308C127.567 187.308 126.43 187.11 125.389 186.714C124.348 186.318 123.438 185.761 122.661 185.042C121.898 184.309 121.304 183.458 120.879 182.49C120.454 181.522 120.241 180.459 120.241 179.3C120.241 178.141 120.454 177.078 120.879 176.11C121.304 175.142 121.898 174.299 122.661 173.58C123.438 172.847 124.348 172.282 125.389 171.886C126.43 171.49 127.567 171.292 128.799 171.292C130.046 171.292 131.182 171.49 132.209 171.886C133.25 172.282 134.152 172.847 134.915 173.58C135.678 174.299 136.272 175.142 136.697 176.11C137.137 177.078 137.357 178.141 137.357 179.3C137.357 180.459 137.137 181.529 136.697 182.512C136.272 183.48 135.678 184.323 134.915 185.042C134.152 185.761 133.25 186.318 132.209 186.714C131.182 187.11 130.046 187.308 128.799 187.308ZM128.799 183.7C129.386 183.7 129.928 183.597 130.427 183.392C130.94 183.187 131.38 182.893 131.747 182.512C132.128 182.116 132.422 181.647 132.627 181.104C132.847 180.561 132.957 179.96 132.957 179.3C132.957 178.625 132.847 178.024 132.627 177.496C132.422 176.953 132.128 176.491 131.747 176.11C131.38 175.714 130.94 175.413 130.427 175.208C129.928 175.003 129.386 174.9 128.799 174.9C128.212 174.9 127.662 175.003 127.149 175.208C126.65 175.413 126.21 175.714 125.829 176.11C125.462 176.491 125.169 176.953 124.949 177.496C124.744 178.024 124.641 178.625 124.641 179.3C124.641 179.96 124.744 180.561 124.949 181.104C125.169 181.647 125.462 182.116 125.829 182.512C126.21 182.893 126.65 183.187 127.149 183.392C127.662 183.597 128.212 183.7 128.799 183.7ZM139.639 187V171.6H146.679C148.087 171.6 149.297 171.827 150.309 172.282C151.335 172.737 152.127 173.397 152.685 174.262C153.242 175.113 153.521 176.125 153.521 177.298C153.521 178.457 153.242 179.461 152.685 180.312C152.127 181.148 151.335 181.793 150.309 182.248C149.297 182.688 148.087 182.908 146.679 182.908H142.059L143.995 181.082V187H139.639ZM149.165 187L145.337 181.39H149.979L153.829 187H149.165ZM143.995 181.544L142.059 179.542H146.415C147.324 179.542 147.999 179.344 148.439 178.948C148.893 178.552 149.121 178.002 149.121 177.298C149.121 176.579 148.893 176.022 148.439 175.626C147.999 175.23 147.324 175.032 146.415 175.032H142.059L143.995 173.03V181.544ZM155.924 187V171.6H159.51L165.89 182.072H163.998L170.202 171.6H173.788L173.832 187H169.828L169.784 177.694H170.466L165.824 185.482H163.888L159.114 177.694H159.95V187H155.924ZM175.066 187L181.864 171.6H186.154L192.974 187H188.442L183.118 173.734H184.834L179.51 187H175.066ZM178.784 184.008L179.906 180.796H187.43L188.552 184.008H178.784ZM194.209 187V171.6H197.795L206.287 181.852H204.593V171.6H208.861V187H205.275L196.783 176.748H198.477V187H194.209ZM219.612 187.308C218.394 187.308 217.265 187.117 216.224 186.736C215.197 186.34 214.302 185.783 213.54 185.064C212.792 184.345 212.205 183.502 211.78 182.534C211.354 181.551 211.142 180.473 211.142 179.3C211.142 178.127 211.354 177.056 211.78 176.088C212.205 175.105 212.792 174.255 213.54 173.536C214.302 172.817 215.197 172.267 216.224 171.886C217.265 171.49 218.394 171.292 219.612 171.292C221.034 171.292 222.303 171.541 223.418 172.04C224.547 172.539 225.486 173.257 226.234 174.196L223.462 176.704C222.963 176.117 222.413 175.67 221.812 175.362C221.225 175.054 220.565 174.9 219.832 174.9C219.201 174.9 218.622 175.003 218.094 175.208C217.566 175.413 217.111 175.714 216.73 176.11C216.363 176.491 216.07 176.953 215.85 177.496C215.644 178.039 215.542 178.64 215.542 179.3C215.542 179.96 215.644 180.561 215.85 181.104C216.07 181.647 216.363 182.116 216.73 182.512C217.111 182.893 217.566 183.187 218.094 183.392C218.622 183.597 219.201 183.7 219.832 183.7C220.565 183.7 221.225 183.546 221.812 183.238C222.413 182.93 222.963 182.483 223.462 181.896L226.234 184.404C225.486 185.328 224.547 186.047 223.418 186.56C222.303 187.059 221.034 187.308 219.612 187.308ZM232.18 177.562H239.33V180.818H232.18V177.562ZM232.488 183.634H240.54V187H228.176V171.6H240.254V174.966H232.488V183.634ZM65.3349 215V199.6H68.9209L75.3009 210.072H73.4089L79.6129 199.6H83.1989L83.2429 215H79.2389L79.1949 205.694H79.8769L75.2349 213.482H73.2989L68.5249 205.694H69.3609V215H65.3349ZM84.4772 215L91.2752 199.6H95.5652L102.385 215H97.8532L92.5292 201.734H94.2452L88.9212 215H84.4772ZM88.1952 212.008L89.3172 208.796H96.8412L97.9632 212.008H88.1952ZM103.62 215V199.6H107.206L115.698 209.852H114.004V199.6H118.272V215H114.686L106.194 204.748H107.888V215H103.62ZM119.497 215L126.295 199.6H130.585L137.405 215H132.873L127.549 201.734H129.265L123.941 215H119.497ZM123.215 212.008L124.337 208.796H131.861L132.983 212.008H123.215ZM146.125 215.308C144.907 215.308 143.778 215.117 142.737 214.736C141.695 214.34 140.793 213.783 140.031 213.064C139.283 212.345 138.696 211.502 138.271 210.534C137.845 209.551 137.633 208.473 137.633 207.3C137.633 206.127 137.845 205.056 138.271 204.088C138.696 203.105 139.29 202.255 140.053 201.536C140.815 200.817 141.717 200.267 142.759 199.886C143.815 199.49 144.966 199.292 146.213 199.292C147.665 199.292 148.963 199.534 150.107 200.018C151.251 200.502 152.197 201.199 152.945 202.108L150.173 204.616C149.645 204.044 149.073 203.619 148.457 203.34C147.855 203.047 147.181 202.9 146.433 202.9C145.773 202.9 145.171 203.003 144.629 203.208C144.086 203.413 143.624 203.714 143.243 204.11C142.861 204.491 142.561 204.953 142.341 205.496C142.135 206.024 142.033 206.625 142.033 207.3C142.033 207.945 142.135 208.539 142.341 209.082C142.561 209.625 142.861 210.094 143.243 210.49C143.624 210.871 144.079 211.172 144.607 211.392C145.149 211.597 145.743 211.7 146.389 211.7C147.034 211.7 147.665 211.597 148.281 211.392C148.897 211.172 149.52 210.805 150.151 210.292L152.593 213.35C151.713 213.981 150.693 214.465 149.535 214.802C148.376 215.139 147.239 215.308 146.125 215.308ZM148.743 212.778V206.97H152.593V213.35L148.743 212.778ZM159.358 205.562H166.508V208.818H159.358V205.562ZM159.666 211.634H167.718V215H155.354V199.6H167.432V202.966H159.666V211.634ZM170.136 215V199.6H173.722L180.102 210.072H178.21L184.414 199.6H188L188.044 215H184.04L183.996 205.694H184.678L180.036 213.482H178.1L173.326 205.694H174.162V215H170.136ZM195.13 205.562H202.28V208.818H195.13V205.562ZM195.438 211.634H203.49V215H191.126V199.6H203.204V202.966H195.438V211.634ZM205.907 215V199.6H209.493L217.985 209.852H216.291V199.6H220.559V215H216.973L208.481 204.748H210.175V215H205.907ZM226.91 215V203.054H222.18V199.6H235.974V203.054H231.266V215H226.91Z" fill="#4C4C4C"/>
<defs>
<linearGradient id="paint0_linear_442_2" x1="148.276" y1="4.27122" x2="148.276" y2="282.771" gradientUnits="userSpaceOnUse">
<stop offset="0.03" stop-color="#5193BB"/>
<stop offset="0.1" stop-color="#6794AB"/>
<stop offset="0.31" stop-color="#AA987B"/>
<stop offset="0.46" stop-color="#D49A5D"/>
<stop offset="0.54" stop-color="#E49B52"/>
<stop offset="0.6" stop-color="#DF9B55"/>
<stop offset="0.67" stop-color="#D29A5F"/>
<stop offset="0.74" stop-color="#BC996F"/>
<stop offset="0.81" stop-color="#9C9785"/>
<stop offset="0.89" stop-color="#7495A2"/>
<stop offset="0.97" stop-color="#4492C5"/>
<stop offset="0.98" stop-color="#3F92C8"/>
</linearGradient>
<linearGradient id="paint1_linear_442_2" x1="196.236" y1="298.692" x2="130.046" y2="48.9815" gradientUnits="userSpaceOnUse">
<stop stop-color="white"/>
<stop offset="0.45" stop-color="#FCFDFD"/>
<stop offset="0.81" stop-color="#F2F5F6"/>
<stop offset="1" stop-color="#E9EEF0"/>
</linearGradient>
<linearGradient id="paint2_linear_442_2" x1="84.1958" y1="117.141" x2="282.606" y2="273.941" gradientUnits="userSpaceOnUse">
<stop stop-color="white"/>
<stop offset="0.45" stop-color="#FCFDFD"/>
<stop offset="0.81" stop-color="#F2F5F6"/>
<stop offset="1" stop-color="#E9EEF0"/>
</linearGradient>
</defs>
</svg>
