<svg width="297" height="284" viewBox="0 0 297 284" fill="none" xmlns="http://www.w3.org/2000/svg">
<path d="M141.225 2.26122L4.9455 101.261C2.89649 102.75 1.3712 104.849 0.588029 107.258C-0.195143 109.667 -0.19603 112.262 0.585496 114.671L52.6355 274.901C53.4205 277.309 54.9469 279.406 56.9964 280.893C59.0459 282.381 61.5133 283.181 64.0455 283.181H232.495C235.028 283.181 237.495 282.381 239.545 280.893C241.594 279.406 243.121 277.309 243.906 274.901L295.906 114.691C296.688 112.283 296.689 109.689 295.907 107.28C295.126 104.871 293.603 102.772 291.556 101.281L155.275 2.28122C153.233 0.801797 150.776 0.00360243 148.254 1.21649e-05C145.732 -0.0035781 143.272 0.787618 141.225 2.26122Z" fill="url(#paint0_linear_442_12)"/>
<path d="M143.476 27.2715L28.0256 111.152C26.6258 112.159 25.5814 113.585 25.0424 115.224C24.5034 116.862 24.4975 118.629 25.0256 120.272L69.1656 255.992C69.6978 257.631 70.7352 259.059 72.1292 260.072C73.5233 261.085 75.2023 261.631 76.9256 261.632H219.626C221.355 261.637 223.042 261.094 224.443 260.08C225.844 259.067 226.889 257.635 227.426 255.992L271.516 120.272C272.047 118.63 272.042 116.861 271.503 115.222C270.964 113.583 269.918 112.157 268.516 111.152L153.066 27.2715C151.671 26.2621 149.993 25.7188 148.271 25.7188C146.549 25.7188 144.871 26.2621 143.476 27.2715V27.2715Z" fill="url(#paint1_linear_442_12)"/>
<path d="M144.226 32.1209L32.4258 113.361C31.2498 114.216 30.3747 115.422 29.9256 116.805C29.4766 118.188 29.4766 119.678 29.9258 121.061L72.6158 252.511C73.0672 253.892 73.9437 255.096 75.1201 255.949C76.2965 256.802 77.7126 257.261 79.1658 257.261H217.426C218.879 257.263 220.296 256.804 221.473 255.951C222.65 255.097 223.526 253.893 223.976 252.511L266.686 121.061C267.135 119.678 267.135 118.188 266.686 116.805C266.237 115.422 265.362 114.216 264.186 113.361L152.316 32.1209C151.14 31.2679 149.724 30.8086 148.271 30.8086C146.818 30.8086 145.402 31.2679 144.226 32.1209V32.1209Z" fill="url(#paint2_linear_442_12)"/>
<path d="M81.2638 141V127.968H76.1038V124.2H91.1518V127.968H86.0158V141H81.2638ZM97.2902 130.704H105.09V134.256H97.2902V130.704ZM97.6262 137.328H106.41V141H92.9222V124.2H106.098V127.872H97.6262V137.328ZM117.423 141.336C116.095 141.336 114.863 141.128 113.727 140.712C112.607 140.28 111.631 139.672 110.799 138.888C109.983 138.104 109.343 137.184 108.879 136.128C108.415 135.056 108.183 133.88 108.183 132.6C108.183 131.32 108.415 130.152 108.879 129.096C109.343 128.024 109.983 127.096 110.799 126.312C111.631 125.528 112.607 124.928 113.727 124.512C114.863 124.08 116.095 123.864 117.423 123.864C118.975 123.864 120.359 124.136 121.575 124.68C122.807 125.224 123.831 126.008 124.647 127.032L121.623 129.768C121.079 129.128 120.479 128.64 119.823 128.304C119.183 127.968 118.463 127.8 117.663 127.8C116.975 127.8 116.343 127.912 115.767 128.136C115.191 128.36 114.695 128.688 114.279 129.12C113.879 129.536 113.559 130.04 113.319 130.632C113.095 131.224 112.983 131.88 112.983 132.6C112.983 133.32 113.095 133.976 113.319 134.568C113.559 135.16 113.879 135.672 114.279 136.104C114.695 136.52 115.191 136.84 115.767 137.064C116.343 137.288 116.975 137.4 117.663 137.4C118.463 137.4 119.183 137.232 119.823 136.896C120.479 136.56 121.079 136.072 121.623 135.432L124.647 138.168C123.831 139.176 122.807 139.96 121.575 140.52C120.359 141.064 118.975 141.336 117.423 141.336ZM137.998 124.2H142.75V141H137.998V124.2ZM131.518 141H126.766V124.2H131.518V141ZM138.334 134.448H131.182V130.512H138.334V134.448ZM146.102 141V124.2H150.014L159.278 135.384H157.43V124.2H162.086V141H158.174L148.91 129.816H150.758V141H146.102ZM165.438 141V124.2H170.19V141H165.438ZM181.947 141.336C180.619 141.336 179.387 141.128 178.251 140.712C177.131 140.28 176.155 139.672 175.323 138.888C174.507 138.104 173.867 137.184 173.403 136.128C172.939 135.056 172.707 133.88 172.707 132.6C172.707 131.32 172.939 130.152 173.403 129.096C173.867 128.024 174.507 127.096 175.323 126.312C176.155 125.528 177.131 124.928 178.251 124.512C179.387 124.08 180.619 123.864 181.947 123.864C183.499 123.864 184.883 124.136 186.099 124.68C187.331 125.224 188.355 126.008 189.171 127.032L186.147 129.768C185.603 129.128 185.003 128.64 184.347 128.304C183.707 127.968 182.987 127.8 182.187 127.8C181.499 127.8 180.867 127.912 180.291 128.136C179.715 128.36 179.219 128.688 178.803 129.12C178.403 129.536 178.083 130.04 177.843 130.632C177.619 131.224 177.507 131.88 177.507 132.6C177.507 133.32 177.619 133.976 177.843 134.568C178.083 135.16 178.403 135.672 178.803 136.104C179.219 136.52 179.715 136.84 180.291 137.064C180.867 137.288 181.499 137.4 182.187 137.4C182.987 137.4 183.707 137.232 184.347 136.896C185.003 136.56 185.603 136.072 186.147 135.432L189.171 138.168C188.355 139.176 187.331 139.96 186.099 140.52C184.883 141.064 183.499 141.336 181.947 141.336ZM188.992 141L196.408 124.2H201.088L208.528 141H203.584L197.776 126.528H199.648L193.84 141H188.992ZM193.048 137.736L194.272 134.232H202.48L203.704 137.736H193.048ZM209.875 141V124.2H214.627V137.232H222.643V141H209.875ZM147.842 171.336C146.562 171.336 145.418 171.136 144.41 170.736C143.402 170.32 142.602 169.752 142.01 169.032C141.434 168.312 141.146 167.504 141.146 166.608C141.146 165.728 141.338 164.944 141.722 164.256C142.122 163.568 142.73 162.936 143.546 162.36C144.378 161.784 145.434 161.232 146.714 160.704C147.562 160.336 148.226 160.008 148.706 159.72C149.186 159.432 149.522 159.16 149.714 158.904C149.922 158.632 150.026 158.36 150.026 158.088C150.026 157.752 149.914 157.48 149.69 157.272C149.466 157.064 149.13 156.96 148.682 156.96C148.218 156.96 147.85 157.08 147.578 157.32C147.322 157.56 147.194 157.856 147.194 158.208C147.194 158.416 147.234 158.624 147.314 158.832C147.41 159.04 147.586 159.28 147.842 159.552C148.114 159.824 148.49 160.176 148.97 160.608L157.826 168.48L155.378 171.288L145.394 162.384C144.85 161.904 144.402 161.44 144.05 160.992C143.714 160.544 143.458 160.096 143.282 159.648C143.122 159.2 143.042 158.744 143.042 158.28C143.042 157.416 143.274 156.664 143.738 156.024C144.202 155.368 144.858 154.864 145.706 154.512C146.554 154.144 147.546 153.96 148.682 153.96C149.722 153.96 150.626 154.12 151.394 154.44C152.178 154.76 152.786 155.224 153.218 155.832C153.65 156.44 153.866 157.16 153.866 157.992C153.866 158.728 153.674 159.4 153.29 160.008C152.922 160.616 152.346 161.176 151.562 161.688C150.794 162.2 149.81 162.704 148.61 163.2C147.874 163.504 147.282 163.808 146.834 164.112C146.402 164.416 146.09 164.728 145.898 165.048C145.706 165.352 145.61 165.704 145.61 166.104C145.61 166.424 145.714 166.72 145.922 166.992C146.13 167.264 146.426 167.48 146.81 167.64C147.194 167.784 147.65 167.856 148.178 167.856C149.106 167.856 149.962 167.632 150.746 167.184C151.53 166.72 152.202 166.048 152.762 165.168C153.338 164.288 153.73 163.224 153.938 161.976L157.61 163.08C157.258 164.728 156.618 166.168 155.69 167.4C154.778 168.632 153.65 169.6 152.306 170.304C150.978 170.992 149.49 171.336 147.842 171.336ZM62.3836 199.308C61.1223 199.308 59.905 199.154 58.7316 198.846C57.573 198.523 56.627 198.113 55.8936 197.614L57.3236 194.402C58.013 194.842 58.805 195.209 59.6996 195.502C60.609 195.781 61.511 195.92 62.4056 195.92C63.007 195.92 63.491 195.869 63.8576 195.766C64.2243 195.649 64.4883 195.502 64.6496 195.326C64.8256 195.135 64.9136 194.915 64.9136 194.666C64.9136 194.314 64.7523 194.035 64.4296 193.83C64.107 193.625 63.689 193.456 63.1756 193.324C62.6623 193.192 62.0903 193.06 61.4596 192.928C60.8436 192.796 60.2203 192.627 59.5896 192.422C58.9736 192.217 58.409 191.953 57.8956 191.63C57.3823 191.293 56.9643 190.86 56.6416 190.332C56.319 189.789 56.1576 189.107 56.1576 188.286C56.1576 187.362 56.407 186.526 56.9056 185.778C57.419 185.03 58.1816 184.429 59.1936 183.974C60.2056 183.519 61.467 183.292 62.9776 183.292C63.9896 183.292 64.9796 183.409 65.9476 183.644C66.9303 183.864 67.803 184.194 68.5656 184.634L67.2236 187.868C66.4903 187.472 65.7643 187.179 65.0456 186.988C64.327 186.783 63.6303 186.68 62.9556 186.68C62.3543 186.68 61.8703 186.746 61.5036 186.878C61.137 186.995 60.873 187.157 60.7116 187.362C60.5503 187.567 60.4696 187.802 60.4696 188.066C60.4696 188.403 60.6236 188.675 60.9316 188.88C61.2543 189.071 61.6723 189.232 62.1856 189.364C62.7136 189.481 63.2856 189.606 63.9016 189.738C64.5323 189.87 65.1556 190.039 65.7716 190.244C66.4023 190.435 66.9743 190.699 67.4876 191.036C68.001 191.359 68.4116 191.791 68.7196 192.334C69.0423 192.862 69.2036 193.529 69.2036 194.336C69.2036 195.231 68.947 196.059 68.4336 196.822C67.935 197.57 67.1796 198.171 66.1676 198.626C65.1703 199.081 63.909 199.308 62.3836 199.308ZM69.3678 199L76.1658 183.6H80.4558L87.2758 199H82.7438L77.4198 185.734H79.1358L73.8118 199H69.3678ZM73.0858 196.008L74.2078 192.796H81.7318L82.8538 196.008H73.0858ZM88.5107 199V183.6H95.5507C96.9587 183.6 98.1687 183.827 99.1807 184.282C100.207 184.737 100.999 185.397 101.557 186.262C102.114 187.113 102.393 188.125 102.393 189.298C102.393 190.457 102.114 191.461 101.557 192.312C100.999 193.163 100.207 193.823 99.1807 194.292C98.1687 194.747 96.9587 194.974 95.5507 194.974H90.9307L92.8667 193.082V199H88.5107ZM92.8667 193.544L90.9307 191.542H95.2867C96.196 191.542 96.8707 191.344 97.3107 190.948C97.7654 190.552 97.9927 190.002 97.9927 189.298C97.9927 188.579 97.7654 188.022 97.3107 187.626C96.8707 187.23 96.196 187.032 95.2867 187.032H90.9307L92.8667 185.03V193.544ZM109.286 199L116.084 183.6H120.374L127.194 199H122.662L117.338 185.734H119.054L113.73 199H109.286ZM113.004 196.008L114.126 192.796H121.65L122.772 196.008H113.004ZM128.429 199V183.6H135.469C136.877 183.6 138.087 183.827 139.099 184.282C140.125 184.737 140.917 185.397 141.475 186.262C142.032 187.113 142.311 188.125 142.311 189.298C142.311 190.457 142.032 191.461 141.475 192.312C140.917 193.148 140.125 193.793 139.099 194.248C138.087 194.688 136.877 194.908 135.469 194.908H130.849L132.785 193.082V199H128.429ZM137.955 199L134.127 193.39H138.769L142.619 199H137.955ZM132.785 193.544L130.849 191.542H135.205C136.114 191.542 136.789 191.344 137.229 190.948C137.683 190.552 137.911 190.002 137.911 189.298C137.911 188.579 137.683 188.022 137.229 187.626C136.789 187.23 136.114 187.032 135.205 187.032H130.849L132.785 185.03V193.544ZM152.392 199.308C151.174 199.308 150.045 199.117 149.004 198.736C147.977 198.34 147.082 197.783 146.32 197.064C145.572 196.345 144.985 195.502 144.56 194.534C144.134 193.551 143.922 192.473 143.922 191.3C143.922 190.127 144.134 189.056 144.56 188.088C144.985 187.105 145.572 186.255 146.32 185.536C147.082 184.817 147.977 184.267 149.004 183.886C150.045 183.49 151.174 183.292 152.392 183.292C153.814 183.292 155.083 183.541 156.198 184.04C157.327 184.539 158.266 185.257 159.014 186.196L156.242 188.704C155.743 188.117 155.193 187.67 154.592 187.362C154.005 187.054 153.345 186.9 152.612 186.9C151.981 186.9 151.402 187.003 150.874 187.208C150.346 187.413 149.891 187.714 149.51 188.11C149.143 188.491 148.85 188.953 148.63 189.496C148.424 190.039 148.322 190.64 148.322 191.3C148.322 191.96 148.424 192.561 148.63 193.104C148.85 193.647 149.143 194.116 149.51 194.512C149.891 194.893 150.346 195.187 150.874 195.392C151.402 195.597 151.981 195.7 152.612 195.7C153.345 195.7 154.005 195.546 154.592 195.238C155.193 194.93 155.743 194.483 156.242 193.896L159.014 196.404C158.266 197.328 157.327 198.047 156.198 198.56C155.083 199.059 153.814 199.308 152.392 199.308ZM171.252 183.6H175.608V199H171.252V183.6ZM165.312 199H160.956V183.6H165.312V199ZM171.56 192.994H165.004V189.386H171.56V192.994ZM178.681 199V183.6H183.037V199H178.681ZM189.414 199V187.054H184.684V183.6H198.478V187.054H193.77V199H189.414ZM204.105 189.562H211.255V192.818H204.105V189.562ZM204.413 195.634H212.465V199H200.101V183.6H212.179V186.966H204.413V195.634ZM222.56 199.308C221.342 199.308 220.213 199.117 219.172 198.736C218.145 198.34 217.25 197.783 216.488 197.064C215.74 196.345 215.153 195.502 214.728 194.534C214.302 193.551 214.09 192.473 214.09 191.3C214.09 190.127 214.302 189.056 214.728 188.088C215.153 187.105 215.74 186.255 216.488 185.536C217.25 184.817 218.145 184.267 219.172 183.886C220.213 183.49 221.342 183.292 222.56 183.292C223.982 183.292 225.251 183.541 226.366 184.04C227.495 184.539 228.434 185.257 229.182 186.196L226.41 188.704C225.911 188.117 225.361 187.67 224.76 187.362C224.173 187.054 223.513 186.9 222.78 186.9C222.149 186.9 221.57 187.003 221.042 187.208C220.514 187.413 220.059 187.714 219.678 188.11C219.311 188.491 219.018 188.953 218.798 189.496C218.592 190.039 218.49 190.64 218.49 191.3C218.49 191.96 218.592 192.561 218.798 193.104C219.018 193.647 219.311 194.116 219.678 194.512C220.059 194.893 220.514 195.187 221.042 195.392C221.57 195.597 222.149 195.7 222.78 195.7C223.513 195.7 224.173 195.546 224.76 195.238C225.361 194.93 225.911 194.483 226.41 193.896L229.182 196.404C228.434 197.328 227.495 198.047 226.366 198.56C225.251 199.059 223.982 199.308 222.56 199.308ZM234.273 199V187.054H229.543V183.6H243.337V187.054H238.629V199H234.273Z" fill="#4C4C4C"/>
<defs>
<linearGradient id="paint0_linear_442_12" x1="148.276" y1="4.27122" x2="148.276" y2="282.771" gradientUnits="userSpaceOnUse">
<stop offset="0.03" stop-color="#5193BB"/>
<stop offset="0.1" stop-color="#6794AB"/>
<stop offset="0.31" stop-color="#AA987B"/>
<stop offset="0.46" stop-color="#D49A5D"/>
<stop offset="0.54" stop-color="#E49B52"/>
<stop offset="0.6" stop-color="#DF9B55"/>
<stop offset="0.67" stop-color="#D29A5F"/>
<stop offset="0.74" stop-color="#BC996F"/>
<stop offset="0.81" stop-color="#9C9785"/>
<stop offset="0.89" stop-color="#7495A2"/>
<stop offset="0.97" stop-color="#4492C5"/>
<stop offset="0.98" stop-color="#3F92C8"/>
</linearGradient>
<linearGradient id="paint1_linear_442_12" x1="196.236" y1="298.692" x2="130.046" y2="48.9815" gradientUnits="userSpaceOnUse">
<stop stop-color="white"/>
<stop offset="0.45" stop-color="#FCFDFD"/>
<stop offset="0.81" stop-color="#F2F5F6"/>
<stop offset="1" stop-color="#E9EEF0"/>
</linearGradient>
<linearGradient id="paint2_linear_442_12" x1="84.1958" y1="117.141" x2="282.606" y2="273.941" gradientUnits="userSpaceOnUse">
<stop stop-color="white"/>
<stop offset="0.45" stop-color="#FCFDFD"/>
<stop offset="0.81" stop-color="#F2F5F6"/>
<stop offset="1" stop-color="#E9EEF0"/>
</linearGradient>
</defs>
</svg>
