<svg width="297" height="284" viewBox="0 0 297 284" fill="none" xmlns="http://www.w3.org/2000/svg">
<path d="M141.225 2.26122L4.9455 101.261C2.89649 102.75 1.3712 104.849 0.588029 107.258C-0.195143 109.667 -0.19603 112.262 0.585496 114.671L52.6355 274.901C53.4205 277.309 54.9469 279.406 56.9964 280.893C59.0459 282.381 61.5133 283.181 64.0455 283.181H232.495C235.028 283.181 237.495 282.381 239.545 280.893C241.594 279.406 243.121 277.309 243.906 274.901L295.906 114.691C296.688 112.283 296.689 109.689 295.907 107.28C295.126 104.871 293.603 102.772 291.556 101.281L155.275 2.28122C153.233 0.801797 150.776 0.00360243 148.254 1.21649e-05C145.732 -0.0035781 143.272 0.787618 141.225 2.26122Z" fill="url(#paint0_linear_442_27)"/>
<path d="M143.476 27.2715L28.0256 111.152C26.6258 112.159 25.5814 113.585 25.0424 115.224C24.5034 116.862 24.4975 118.629 25.0256 120.272L69.1656 255.992C69.6978 257.631 70.7352 259.059 72.1292 260.072C73.5233 261.085 75.2023 261.631 76.9256 261.632H219.626C221.355 261.637 223.042 261.094 224.443 260.08C225.844 259.067 226.889 257.635 227.426 255.992L271.516 120.272C272.047 118.63 272.042 116.861 271.503 115.222C270.964 113.583 269.918 112.157 268.516 111.152L153.066 27.2715C151.671 26.2621 149.993 25.7188 148.271 25.7188C146.549 25.7188 144.871 26.2621 143.476 27.2715V27.2715Z" fill="url(#paint1_linear_442_27)"/>
<path d="M144.226 32.1209L32.4258 113.361C31.2498 114.216 30.3747 115.422 29.9256 116.805C29.4766 118.188 29.4766 119.678 29.9258 121.061L72.6158 252.511C73.0672 253.892 73.9437 255.096 75.1201 255.949C76.2965 256.802 77.7126 257.261 79.1658 257.261H217.426C218.879 257.263 220.296 256.804 221.473 255.951C222.65 255.097 223.526 253.893 223.976 252.511L266.686 121.061C267.135 119.678 267.135 118.188 266.686 116.805C266.237 115.422 265.362 114.216 264.186 113.361L152.316 32.1209C151.14 31.2679 149.724 30.8086 148.271 30.8086C146.818 30.8086 145.402 31.2679 144.226 32.1209V32.1209Z" fill="url(#paint2_linear_442_27)"/>
<path d="M102.409 143.392C100.803 143.392 99.2539 143.196 97.7605 142.804C96.2859 142.393 95.0819 141.871 94.1485 141.236L95.9685 137.148C96.8459 137.708 97.8539 138.175 98.9925 138.548C100.15 138.903 101.298 139.08 102.437 139.08C103.202 139.08 103.818 139.015 104.285 138.884C104.751 138.735 105.087 138.548 105.293 138.324C105.517 138.081 105.629 137.801 105.629 137.484C105.629 137.036 105.423 136.681 105.013 136.42C104.602 136.159 104.07 135.944 103.417 135.776C102.763 135.608 102.035 135.44 101.233 135.272C100.449 135.104 99.6552 134.889 98.8525 134.628C98.0685 134.367 97.3499 134.031 96.6965 133.62C96.0432 133.191 95.5112 132.64 95.1005 131.968C94.6899 131.277 94.4845 130.409 94.4845 129.364C94.4845 128.188 94.8019 127.124 95.4365 126.172C96.0899 125.22 97.0605 124.455 98.3485 123.876C99.6365 123.297 101.242 123.008 103.165 123.008C104.453 123.008 105.713 123.157 106.945 123.456C108.195 123.736 109.306 124.156 110.277 124.716L108.569 128.832C107.635 128.328 106.711 127.955 105.797 127.712C104.882 127.451 103.995 127.32 103.137 127.32C102.371 127.32 101.755 127.404 101.289 127.572C100.822 127.721 100.486 127.927 100.281 128.188C100.075 128.449 99.9725 128.748 99.9725 129.084C99.9725 129.513 100.169 129.859 100.561 130.12C100.971 130.363 101.503 130.568 102.157 130.736C102.829 130.885 103.557 131.044 104.341 131.212C105.143 131.38 105.937 131.595 106.721 131.856C107.523 132.099 108.251 132.435 108.905 132.864C109.558 133.275 110.081 133.825 110.473 134.516C110.883 135.188 111.089 136.037 111.089 137.064C111.089 138.203 110.762 139.257 110.109 140.228C109.474 141.18 108.513 141.945 107.225 142.524C105.955 143.103 104.35 143.392 102.409 143.392ZM118.195 143V134.712L119.483 138.044L110.719 123.4H116.571L122.899 134.012H119.511L125.867 123.4H131.243L122.507 138.044L123.739 134.712V143H118.195ZM139.131 143.392C137.526 143.392 135.977 143.196 134.483 142.804C133.009 142.393 131.805 141.871 130.871 141.236L132.691 137.148C133.569 137.708 134.577 138.175 135.715 138.548C136.873 138.903 138.021 139.08 139.159 139.08C139.925 139.08 140.541 139.015 141.007 138.884C141.474 138.735 141.81 138.548 142.015 138.324C142.239 138.081 142.351 137.801 142.351 137.484C142.351 137.036 142.146 136.681 141.735 136.42C141.325 136.159 140.793 135.944 140.139 135.776C139.486 135.608 138.758 135.44 137.955 135.272C137.171 135.104 136.378 134.889 135.575 134.628C134.791 134.367 134.073 134.031 133.419 133.62C132.766 133.191 132.234 132.64 131.823 131.968C131.413 131.277 131.207 130.409 131.207 129.364C131.207 128.188 131.525 127.124 132.159 126.172C132.813 125.22 133.783 124.455 135.071 123.876C136.359 123.297 137.965 123.008 139.887 123.008C141.175 123.008 142.435 123.157 143.667 123.456C144.918 123.736 146.029 124.156 146.999 124.716L145.291 128.832C144.358 128.328 143.434 127.955 142.519 127.712C141.605 127.451 140.718 127.32 139.859 127.32C139.094 127.32 138.478 127.404 138.011 127.572C137.545 127.721 137.209 127.927 137.003 128.188C136.798 128.449 136.695 128.748 136.695 129.084C136.695 129.513 136.891 129.859 137.283 130.12C137.694 130.363 138.226 130.568 138.879 130.736C139.551 130.885 140.279 131.044 141.063 131.212C141.866 131.38 142.659 131.595 143.443 131.856C144.246 132.099 144.974 132.435 145.627 132.864C146.281 133.275 146.803 133.825 147.195 134.516C147.606 135.188 147.811 136.037 147.811 137.064C147.811 138.203 147.485 139.257 146.831 140.228C146.197 141.18 145.235 141.945 143.947 142.524C142.678 143.103 141.073 143.392 139.131 143.392ZM154.271 143V127.796H148.251V123.4H165.807V127.796H159.815V143H154.271ZM172.968 130.988H182.068V135.132H172.968V130.988ZM173.36 138.716H183.608V143H167.872V123.4H183.244V127.684H173.36V138.716ZM186.685 143V123.4H191.249L199.369 136.728H196.961L204.857 123.4H209.421L209.477 143H204.381L204.325 131.156H205.193L199.285 141.068H196.821L190.745 131.156H191.809V143H186.685ZM57.7816 173V156.2H62.5336V173H57.7816ZM65.9144 173V156.2H69.8264L79.0904 167.384H77.2424V156.2H81.8984V173H77.9864L68.7224 161.816H70.5704V173H65.9144ZM88.8263 173V159.968H83.6663V156.2H98.7143V159.968H93.5783V173H88.8263ZM104.853 162.704H112.653V166.256H104.853V162.704ZM105.189 169.328H113.973V173H100.485V156.2H113.661V159.872H105.189V169.328ZM125.01 173.336C123.682 173.336 122.45 173.128 121.314 172.712C120.178 172.28 119.194 171.672 118.362 170.888C117.546 170.104 116.906 169.184 116.442 168.128C115.978 167.056 115.746 165.88 115.746 164.6C115.746 163.32 115.978 162.152 116.442 161.096C116.906 160.024 117.554 159.096 118.386 158.312C119.218 157.528 120.202 156.928 121.338 156.512C122.49 156.08 123.746 155.864 125.106 155.864C126.69 155.864 128.106 156.128 129.354 156.656C130.602 157.184 131.634 157.944 132.45 158.936L129.426 161.672C128.85 161.048 128.226 160.584 127.554 160.28C126.898 159.96 126.162 159.8 125.346 159.8C124.626 159.8 123.97 159.912 123.378 160.136C122.786 160.36 122.282 160.688 121.866 161.12C121.45 161.536 121.122 162.04 120.882 162.632C120.658 163.208 120.546 163.864 120.546 164.6C120.546 165.304 120.658 165.952 120.882 166.544C121.122 167.136 121.45 167.648 121.866 168.08C122.282 168.496 122.778 168.824 123.354 169.064C123.946 169.288 124.594 169.4 125.298 169.4C126.002 169.4 126.69 169.288 127.362 169.064C128.034 168.824 128.714 168.424 129.402 167.864L132.066 171.2C131.106 171.888 129.994 172.416 128.73 172.784C127.466 173.152 126.226 173.336 125.01 173.336ZM127.866 170.576V164.24H132.066V171.2L127.866 170.576ZM135.078 173V156.2H142.758C144.294 156.2 145.614 156.448 146.718 156.944C147.838 157.44 148.702 158.16 149.31 159.104C149.918 160.032 150.222 161.136 150.222 162.416C150.222 163.68 149.918 164.776 149.31 165.704C148.702 166.616 147.838 167.32 146.718 167.816C145.614 168.296 144.294 168.536 142.758 168.536H137.718L139.83 166.544V173H135.078ZM145.47 173L141.294 166.88H146.358L150.558 173H145.47ZM139.83 167.048L137.718 164.864H142.47C143.462 164.864 144.198 164.648 144.678 164.216C145.174 163.784 145.422 163.184 145.422 162.416C145.422 161.632 145.174 161.024 144.678 160.592C144.198 160.16 143.462 159.944 142.47 159.944H137.718L139.83 157.76V167.048ZM150.828 173L158.244 156.2H162.924L170.364 173H165.42L159.612 158.528H161.484L155.676 173H150.828ZM154.884 169.736L156.108 166.232H164.316L165.54 169.736H154.884ZM174.444 173V159.968H169.284V156.2H184.332V159.968H179.196V173H174.444ZM186.102 173V156.2H190.854V173H186.102ZM202.707 173.336C201.363 173.336 200.123 173.12 198.987 172.688C197.851 172.256 196.859 171.648 196.011 170.864C195.179 170.064 194.531 169.136 194.067 168.08C193.603 167.024 193.371 165.864 193.371 164.6C193.371 163.336 193.603 162.176 194.067 161.12C194.531 160.064 195.179 159.144 196.011 158.36C196.859 157.56 197.851 156.944 198.987 156.512C200.123 156.08 201.363 155.864 202.707 155.864C204.067 155.864 205.307 156.08 206.427 156.512C207.563 156.944 208.547 157.56 209.379 158.36C210.211 159.144 210.859 160.064 211.323 161.12C211.803 162.176 212.043 163.336 212.043 164.6C212.043 165.864 211.803 167.032 211.323 168.104C210.859 169.16 210.211 170.08 209.379 170.864C208.547 171.648 207.563 172.256 206.427 172.688C205.307 173.12 204.067 173.336 202.707 173.336ZM202.707 169.4C203.347 169.4 203.939 169.288 204.483 169.064C205.043 168.84 205.523 168.52 205.923 168.104C206.339 167.672 206.659 167.16 206.883 166.568C207.123 165.976 207.243 165.32 207.243 164.6C207.243 163.864 207.123 163.208 206.883 162.632C206.659 162.04 206.339 161.536 205.923 161.12C205.523 160.688 205.043 160.36 204.483 160.136C203.939 159.912 203.347 159.8 202.707 159.8C202.067 159.8 201.467 159.912 200.907 160.136C200.363 160.36 199.883 160.688 199.467 161.12C199.067 161.536 198.747 162.04 198.507 162.632C198.283 163.208 198.171 163.864 198.171 164.6C198.171 165.32 198.283 165.976 198.507 166.568C198.747 167.16 199.067 167.672 199.467 168.104C199.883 168.52 200.363 168.84 200.907 169.064C201.467 169.288 202.067 169.4 202.707 169.4ZM214.532 173V156.2H218.444L227.708 167.384H225.86V156.2H230.516V173H226.604L217.34 161.816H219.188V173H214.532ZM242.436 173V157.904L244.476 159.872H239.316V156.2H247.188V173H242.436Z" fill="#4C4C4C"/>
<defs>
<linearGradient id="paint0_linear_442_27" x1="148.276" y1="4.27122" x2="148.276" y2="282.771" gradientUnits="userSpaceOnUse">
<stop offset="0.03" stop-color="#5193BB"/>
<stop offset="0.1" stop-color="#6794AB"/>
<stop offset="0.31" stop-color="#AA987B"/>
<stop offset="0.46" stop-color="#D49A5D"/>
<stop offset="0.54" stop-color="#E49B52"/>
<stop offset="0.6" stop-color="#DF9B55"/>
<stop offset="0.67" stop-color="#D29A5F"/>
<stop offset="0.74" stop-color="#BC996F"/>
<stop offset="0.81" stop-color="#9C9785"/>
<stop offset="0.89" stop-color="#7495A2"/>
<stop offset="0.97" stop-color="#4492C5"/>
<stop offset="0.98" stop-color="#3F92C8"/>
</linearGradient>
<linearGradient id="paint1_linear_442_27" x1="196.236" y1="298.692" x2="130.046" y2="48.9815" gradientUnits="userSpaceOnUse">
<stop stop-color="white"/>
<stop offset="0.45" stop-color="#FCFDFD"/>
<stop offset="0.81" stop-color="#F2F5F6"/>
<stop offset="1" stop-color="#E9EEF0"/>
</linearGradient>
<linearGradient id="paint2_linear_442_27" x1="84.1958" y1="117.141" x2="282.606" y2="273.941" gradientUnits="userSpaceOnUse">
<stop stop-color="white"/>
<stop offset="0.45" stop-color="#FCFDFD"/>
<stop offset="0.81" stop-color="#F2F5F6"/>
<stop offset="1" stop-color="#E9EEF0"/>
</linearGradient>
</defs>
</svg>
