<svg width="297" height="284" viewBox="0 0 297 284" fill="none" xmlns="http://www.w3.org/2000/svg">
<path d="M141.225 2.26122L4.9455 101.261C2.89649 102.75 1.3712 104.849 0.588029 107.258C-0.195143 109.667 -0.19603 112.262 0.585496 114.671L52.6355 274.901C53.4205 277.309 54.9469 279.406 56.9964 280.893C59.0459 282.381 61.5133 283.181 64.0455 283.181H232.495C235.028 283.181 237.495 282.381 239.545 280.893C241.594 279.406 243.121 277.309 243.906 274.901L295.906 114.691C296.688 112.283 296.689 109.689 295.907 107.28C295.126 104.871 293.603 102.772 291.556 101.281L155.275 2.28122C153.233 0.801797 150.776 0.00360243 148.254 1.21649e-05C145.732 -0.0035781 143.272 0.787618 141.225 2.26122Z" fill="url(#paint0_linear_425_4)"/>
<path d="M143.476 27.2715L28.0256 111.152C26.6258 112.159 25.5814 113.585 25.0424 115.224C24.5034 116.862 24.4975 118.629 25.0256 120.272L69.1656 255.992C69.6978 257.631 70.7352 259.059 72.1292 260.072C73.5233 261.085 75.2023 261.631 76.9256 261.632H219.626C221.355 261.637 223.042 261.094 224.443 260.08C225.844 259.067 226.889 257.635 227.426 255.992L271.516 120.272C272.047 118.63 272.042 116.861 271.503 115.222C270.964 113.583 269.918 112.157 268.516 111.152L153.066 27.2715C151.671 26.2621 149.993 25.7188 148.271 25.7188C146.549 25.7188 144.871 26.2621 143.476 27.2715Z" fill="url(#paint1_linear_425_4)"/>
<path d="M144.226 32.1209L32.4258 113.361C31.2498 114.216 30.3747 115.422 29.9256 116.805C29.4766 118.188 29.4766 119.678 29.9258 121.061L72.6158 252.511C73.0672 253.892 73.9437 255.096 75.1201 255.949C76.2966 256.802 77.7126 257.261 79.1658 257.261H217.426C218.879 257.263 220.296 256.804 221.473 255.951C222.65 255.097 223.526 253.893 223.976 252.511L266.686 121.061C267.135 119.678 267.135 118.188 266.686 116.805C266.237 115.422 265.362 114.216 264.186 113.361L152.316 32.1209C151.14 31.2679 149.724 30.8086 148.271 30.8086C146.818 30.8086 145.402 31.2679 144.226 32.1209Z" fill="url(#paint2_linear_425_4)"/>
<path d="M108.489 124V99.5H119.689C121.929 99.5 123.854 99.8617 125.464 100.585C127.097 101.308 128.357 102.358 129.244 103.735C130.131 105.088 130.574 106.698 130.574 108.565C130.574 110.408 130.131 112.007 129.244 113.36C128.357 114.713 127.097 115.763 125.464 116.51C123.854 117.233 121.929 117.595 119.689 117.595H112.339L115.419 114.585V124H108.489ZM115.419 115.32L112.339 112.135H119.269C120.716 112.135 121.789 111.82 122.489 111.19C123.212 110.56 123.574 109.685 123.574 108.565C123.574 107.422 123.212 106.535 122.489 105.905C121.789 105.275 120.716 104.96 119.269 104.96H112.339L115.419 101.775V115.32ZM133.953 124V99.5H145.538C148.245 99.5 150.625 100.002 152.678 101.005C154.731 102.008 156.33 103.42 157.473 105.24C158.64 107.06 159.223 109.23 159.223 111.75C159.223 114.247 158.64 116.417 157.473 118.26C156.33 120.08 154.731 121.492 152.678 122.495C150.625 123.498 148.245 124 145.538 124H133.953ZM140.883 118.47H145.258C146.658 118.47 147.871 118.213 148.898 117.7C149.948 117.163 150.765 116.393 151.348 115.39C151.931 114.363 152.223 113.15 152.223 111.75C152.223 110.327 151.931 109.113 151.348 108.11C150.765 107.107 149.948 106.348 148.898 105.835C147.871 105.298 146.658 105.03 145.258 105.03H140.883V118.47ZM162.869 124V99.5H168.574L178.724 116.16H175.714L185.584 99.5H191.289L191.359 124H184.989L184.919 109.195H186.004L178.619 121.585H175.539L167.944 109.195H169.274V124H162.869ZM147.617 160.49C145.75 160.49 144.082 160.198 142.612 159.615C141.142 159.008 139.975 158.18 139.112 157.13C138.272 156.08 137.852 154.902 137.852 153.595C137.852 152.312 138.132 151.168 138.692 150.165C139.275 149.162 140.162 148.24 141.352 147.4C142.565 146.56 144.105 145.755 145.972 144.985C147.208 144.448 148.177 143.97 148.877 143.55C149.577 143.13 150.067 142.733 150.347 142.36C150.65 141.963 150.802 141.567 150.802 141.17C150.802 140.68 150.638 140.283 150.312 139.98C149.985 139.677 149.495 139.525 148.842 139.525C148.165 139.525 147.628 139.7 147.232 140.05C146.858 140.4 146.672 140.832 146.672 141.345C146.672 141.648 146.73 141.952 146.847 142.255C146.987 142.558 147.243 142.908 147.617 143.305C148.013 143.702 148.562 144.215 149.262 144.845L162.177 156.325L158.607 160.42L144.047 147.435C143.253 146.735 142.6 146.058 142.087 145.405C141.597 144.752 141.223 144.098 140.967 143.445C140.733 142.792 140.617 142.127 140.617 141.45C140.617 140.19 140.955 139.093 141.632 138.16C142.308 137.203 143.265 136.468 144.502 135.955C145.738 135.418 147.185 135.15 148.842 135.15C150.358 135.15 151.677 135.383 152.797 135.85C153.94 136.317 154.827 136.993 155.457 137.88C156.087 138.767 156.402 139.817 156.402 141.03C156.402 142.103 156.122 143.083 155.562 143.97C155.025 144.857 154.185 145.673 153.042 146.42C151.922 147.167 150.487 147.902 148.737 148.625C147.663 149.068 146.8 149.512 146.147 149.955C145.517 150.398 145.062 150.853 144.782 151.32C144.502 151.763 144.362 152.277 144.362 152.86C144.362 153.327 144.513 153.758 144.817 154.155C145.12 154.552 145.552 154.867 146.112 155.1C146.672 155.31 147.337 155.415 148.107 155.415C149.46 155.415 150.708 155.088 151.852 154.435C152.995 153.758 153.975 152.778 154.792 151.495C155.632 150.212 156.203 148.66 156.507 146.84L161.862 148.45C161.348 150.853 160.415 152.953 159.062 154.75C157.732 156.547 156.087 157.958 154.127 158.985C152.19 159.988 150.02 160.49 147.617 160.49ZM112.534 185.28C111.428 185.28 110.401 185.107 109.454 184.76C108.521 184.4 107.708 183.893 107.014 183.24C106.334 182.587 105.801 181.82 105.414 180.94C105.028 180.047 104.834 179.067 104.834 178C104.834 176.933 105.028 175.96 105.414 175.08C105.801 174.187 106.334 173.413 107.014 172.76C107.708 172.107 108.521 171.607 109.454 171.26C110.401 170.9 111.428 170.72 112.534 170.72C113.828 170.72 114.981 170.947 115.994 171.4C117.021 171.853 117.874 172.507 118.554 173.36L116.034 175.64C115.581 175.107 115.081 174.7 114.534 174.42C114.001 174.14 113.401 174 112.734 174C112.161 174 111.634 174.093 111.154 174.28C110.674 174.467 110.261 174.74 109.914 175.1C109.581 175.447 109.314 175.867 109.114 176.36C108.928 176.853 108.834 177.4 108.834 178C108.834 178.6 108.928 179.147 109.114 179.64C109.314 180.133 109.581 180.56 109.914 180.92C110.261 181.267 110.674 181.533 111.154 181.72C111.634 181.907 112.161 182 112.734 182C113.401 182 114.001 181.86 114.534 181.58C115.081 181.3 115.581 180.893 116.034 180.36L118.554 182.64C117.874 183.48 117.021 184.133 115.994 184.6C114.981 185.053 113.828 185.28 112.534 185.28ZM129.68 171H133.64V185H129.68V171ZM124.28 185H120.32V171H124.28V185ZM129.96 179.54H124V176.26H129.96V179.54ZM134.753 185L140.933 171H144.833L151.033 185H146.913L142.073 172.94H143.633L138.793 185H134.753ZM138.133 182.28L139.153 179.36H145.993L147.013 182.28H138.133ZM152.156 185V171H155.416L163.136 180.32H161.596V171H165.476V185H162.216L154.496 175.68H156.036V185H152.156ZM175.269 185.28C174.162 185.28 173.136 185.107 172.189 184.76C171.242 184.4 170.422 183.893 169.729 183.24C169.049 182.587 168.516 181.82 168.129 180.94C167.742 180.047 167.549 179.067 167.549 178C167.549 176.933 167.742 175.96 168.129 175.08C168.516 174.187 169.056 173.413 169.749 172.76C170.442 172.107 171.262 171.607 172.209 171.26C173.169 170.9 174.216 170.72 175.349 170.72C176.669 170.72 177.849 170.94 178.889 171.38C179.929 171.82 180.789 172.453 181.469 173.28L178.949 175.56C178.469 175.04 177.949 174.653 177.389 174.4C176.842 174.133 176.229 174 175.549 174C174.949 174 174.402 174.093 173.909 174.28C173.416 174.467 172.996 174.74 172.649 175.1C172.302 175.447 172.029 175.867 171.829 176.36C171.642 176.84 171.549 177.387 171.549 178C171.549 178.587 171.642 179.127 171.829 179.62C172.029 180.113 172.302 180.54 172.649 180.9C172.996 181.247 173.409 181.52 173.889 181.72C174.382 181.907 174.922 182 175.509 182C176.096 182 176.669 181.907 177.229 181.72C177.789 181.52 178.356 181.187 178.929 180.72L181.149 183.5C180.349 184.073 179.422 184.513 178.369 184.82C177.316 185.127 176.282 185.28 175.269 185.28ZM177.649 182.98V177.7H181.149V183.5L177.649 182.98ZM187.3 176.42H193.8V179.38H187.3V176.42ZM187.58 181.94H194.9V185H183.66V171H194.64V174.06H187.58V181.94ZM73.025 210V196H76.285L82.085 205.52H80.365L86.005 196H89.265L89.305 210H85.665L85.625 201.54H86.245L82.025 208.62H80.265L75.925 201.54H76.685V210H73.025ZM90.427 210L96.607 196H100.507L106.707 210H102.587L97.747 197.94H99.307L94.467 210H90.427ZM93.807 207.28L94.827 204.36H101.667L102.687 207.28H93.807ZM107.83 210V196H111.09L118.81 205.32H117.27V196H121.15V210H117.89L110.17 200.68H111.71V210H107.83ZM122.263 210L128.443 196H132.343L138.543 210H134.423L129.583 197.94H131.143L126.303 210H122.263ZM125.643 207.28L126.663 204.36H133.503L134.523 207.28H125.643ZM146.47 210.28C145.364 210.28 144.337 210.107 143.39 209.76C142.444 209.4 141.624 208.893 140.93 208.24C140.25 207.587 139.717 206.82 139.33 205.94C138.944 205.047 138.75 204.067 138.75 203C138.75 201.933 138.944 200.96 139.33 200.08C139.717 199.187 140.257 198.413 140.95 197.76C141.644 197.107 142.464 196.607 143.41 196.26C144.37 195.9 145.417 195.72 146.55 195.72C147.87 195.72 149.05 195.94 150.09 196.38C151.13 196.82 151.99 197.453 152.67 198.28L150.15 200.56C149.67 200.04 149.15 199.653 148.59 199.4C148.044 199.133 147.43 199 146.75 199C146.15 199 145.604 199.093 145.11 199.28C144.617 199.467 144.197 199.74 143.85 200.1C143.504 200.447 143.23 200.867 143.03 201.36C142.844 201.84 142.75 202.387 142.75 203C142.75 203.587 142.844 204.127 143.03 204.62C143.23 205.113 143.504 205.54 143.85 205.9C144.197 206.247 144.61 206.52 145.09 206.72C145.584 206.907 146.124 207 146.71 207C147.297 207 147.87 206.907 148.43 206.72C148.99 206.52 149.557 206.187 150.13 205.72L152.35 208.5C151.55 209.073 150.624 209.513 149.57 209.82C148.517 210.127 147.484 210.28 146.47 210.28ZM148.85 207.98V202.7H152.35V208.5L148.85 207.98ZM158.501 201.42H165.001V204.38H158.501V201.42ZM158.781 206.94H166.101V210H154.861V196H165.841V199.06H158.781V206.94ZM168.298 210V196H171.558L177.358 205.52H175.638L181.278 196H184.538L184.578 210H180.938L180.898 201.54H181.518L177.298 208.62H175.538L171.198 201.54H171.958V210H168.298ZM191.02 201.42H197.52V204.38H191.02V201.42ZM191.3 206.94H198.62V210H187.38V196H198.36V199.06H191.3V206.94ZM200.818 210V196H204.078L211.798 205.32H210.258V196H214.138V210H210.878L203.158 200.68H204.698V210H200.818ZM219.911 210V199.14H215.611V196H228.151V199.14H223.871V210H219.911Z" fill="#4C4C4C"/>
<defs>
<linearGradient id="paint0_linear_425_4" x1="148.276" y1="4.27122" x2="148.276" y2="282.771" gradientUnits="userSpaceOnUse">
<stop offset="0.03" stop-color="#5193BB"/>
<stop offset="0.1" stop-color="#6794AB"/>
<stop offset="0.31" stop-color="#AA987B"/>
<stop offset="0.46" stop-color="#D49A5D"/>
<stop offset="0.54" stop-color="#E49B52"/>
<stop offset="0.6" stop-color="#DF9B55"/>
<stop offset="0.67" stop-color="#D29A5F"/>
<stop offset="0.74" stop-color="#BC996F"/>
<stop offset="0.81" stop-color="#9C9785"/>
<stop offset="0.89" stop-color="#7495A2"/>
<stop offset="0.97" stop-color="#4492C5"/>
<stop offset="0.98" stop-color="#3F92C8"/>
</linearGradient>
<linearGradient id="paint1_linear_425_4" x1="196.236" y1="298.692" x2="130.046" y2="48.9815" gradientUnits="userSpaceOnUse">
<stop stop-color="white"/>
<stop offset="0.45" stop-color="#FCFDFD"/>
<stop offset="0.81" stop-color="#F2F5F6"/>
<stop offset="1" stop-color="#E9EEF0"/>
</linearGradient>
<linearGradient id="paint2_linear_425_4" x1="84.1958" y1="117.141" x2="282.606" y2="273.941" gradientUnits="userSpaceOnUse">
<stop stop-color="white"/>
<stop offset="0.45" stop-color="#FCFDFD"/>
<stop offset="0.81" stop-color="#F2F5F6"/>
<stop offset="1" stop-color="#E9EEF0"/>
</linearGradient>
</defs>
</svg>
