<svg width="297" height="284" viewBox="0 0 297 284" fill="none" xmlns="http://www.w3.org/2000/svg">
<path d="M141.225 2.26122L4.9455 101.261C2.89649 102.75 1.3712 104.849 0.588029 107.258C-0.195143 109.667 -0.19603 112.262 0.585496 114.671L52.6355 274.901C53.4205 277.309 54.9469 279.406 56.9964 280.893C59.0459 282.381 61.5133 283.181 64.0455 283.181H232.495C235.028 283.181 237.495 282.381 239.545 280.893C241.594 279.406 243.121 277.309 243.906 274.901L295.906 114.691C296.688 112.283 296.689 109.689 295.907 107.28C295.126 104.871 293.603 102.772 291.556 101.281L155.275 2.28122C153.233 0.801797 150.776 0.00360243 148.254 1.21649e-05C145.732 -0.0035781 143.272 0.787618 141.225 2.26122Z" fill="url(#paint0_linear_442_17)"/>
<path d="M143.475 27.2715L28.0246 111.152C26.6248 112.159 25.5804 113.585 25.0414 115.224C24.5024 116.862 24.4965 118.629 25.0246 120.272L69.1646 255.992C69.6968 257.631 70.7343 259.059 72.1283 260.072C73.5223 261.085 75.2013 261.631 76.9246 261.632H219.625C221.354 261.637 223.041 261.094 224.442 260.08C225.843 259.067 226.888 257.635 227.425 255.992L271.515 120.272C272.046 118.63 272.042 116.861 271.502 115.222C270.963 113.583 269.917 112.157 268.515 111.152L153.065 27.2715C151.67 26.2621 149.992 25.7188 148.27 25.7188C146.548 25.7188 144.87 26.2621 143.475 27.2715V27.2715Z" fill="url(#paint1_linear_442_17)"/>
<path d="M144.227 32.1209L32.4268 113.361C31.2508 114.216 30.3757 115.422 29.9266 116.805C29.4775 118.188 29.4776 119.678 29.9268 121.061L72.6168 252.511C73.0681 253.892 73.9447 255.096 75.1211 255.949C76.2975 256.802 77.7136 257.261 79.1668 257.261H217.427C218.88 257.263 220.297 256.804 221.474 255.951C222.651 255.097 223.527 253.893 223.977 252.511L266.687 121.061C267.136 119.678 267.136 118.188 266.687 116.805C266.238 115.422 265.363 114.216 264.187 113.361L152.317 32.1209C151.141 31.2679 149.725 30.8086 148.272 30.8086C146.819 30.8086 145.403 31.2679 144.227 32.1209V32.1209Z" fill="url(#paint2_linear_442_17)"/>
<path d="M51.8646 155.336C50.5366 155.336 49.3046 155.128 48.1686 154.712C47.0486 154.28 46.0726 153.672 45.2406 152.888C44.4246 152.104 43.7846 151.184 43.3206 150.128C42.8566 149.056 42.6246 147.88 42.6246 146.6C42.6246 145.32 42.8566 144.152 43.3206 143.096C43.7846 142.024 44.4246 141.096 45.2406 140.312C46.0726 139.528 47.0486 138.928 48.1686 138.512C49.3046 138.08 50.5366 137.864 51.8646 137.864C53.4166 137.864 54.8006 138.136 56.0166 138.68C57.2486 139.224 58.2726 140.008 59.0886 141.032L56.0646 143.768C55.5206 143.128 54.9206 142.64 54.2646 142.304C53.6246 141.968 52.9046 141.8 52.1046 141.8C51.4166 141.8 50.7846 141.912 50.2086 142.136C49.6326 142.36 49.1366 142.688 48.7206 143.12C48.3206 143.536 48.0006 144.04 47.7606 144.632C47.5366 145.224 47.4246 145.88 47.4246 146.6C47.4246 147.32 47.5366 147.976 47.7606 148.568C48.0006 149.16 48.3206 149.672 48.7206 150.104C49.1366 150.52 49.6326 150.84 50.2086 151.064C50.7846 151.288 51.4166 151.4 52.1046 151.4C52.9046 151.4 53.6246 151.232 54.2646 150.896C54.9206 150.56 55.5206 150.072 56.0646 149.432L59.0886 152.168C58.2726 153.176 57.2486 153.96 56.0166 154.52C54.8006 155.064 53.4166 155.336 51.8646 155.336ZM69.3278 155.336C67.9838 155.336 66.7438 155.12 65.6078 154.688C64.4718 154.256 63.4798 153.648 62.6318 152.864C61.7998 152.064 61.1518 151.136 60.6878 150.08C60.2238 149.024 59.9918 147.864 59.9918 146.6C59.9918 145.336 60.2238 144.176 60.6878 143.12C61.1518 142.064 61.7998 141.144 62.6318 140.36C63.4798 139.56 64.4718 138.944 65.6078 138.512C66.7438 138.08 67.9838 137.864 69.3278 137.864C70.6878 137.864 71.9278 138.08 73.0478 138.512C74.1838 138.944 75.1678 139.56 75.9998 140.36C76.8318 141.144 77.4798 142.064 77.9438 143.12C78.4238 144.176 78.6638 145.336 78.6638 146.6C78.6638 147.864 78.4238 149.032 77.9438 150.104C77.4798 151.16 76.8318 152.08 75.9998 152.864C75.1678 153.648 74.1838 154.256 73.0478 154.688C71.9278 155.12 70.6878 155.336 69.3278 155.336ZM69.3278 151.4C69.9678 151.4 70.5598 151.288 71.1038 151.064C71.6638 150.84 72.1438 150.52 72.5438 150.104C72.9598 149.672 73.2798 149.16 73.5038 148.568C73.7438 147.976 73.8638 147.32 73.8638 146.6C73.8638 145.864 73.7438 145.208 73.5038 144.632C73.2798 144.04 72.9598 143.536 72.5438 143.12C72.1438 142.688 71.6638 142.36 71.1038 142.136C70.5598 141.912 69.9678 141.8 69.3278 141.8C68.6878 141.8 68.0878 141.912 67.5278 142.136C66.9838 142.36 66.5038 142.688 66.0878 143.12C65.6878 143.536 65.3678 144.04 65.1278 144.632C64.9038 145.208 64.7918 145.864 64.7918 146.6C64.7918 147.32 64.9038 147.976 65.1278 148.568C65.3678 149.16 65.6878 149.672 66.0878 150.104C66.5038 150.52 66.9838 150.84 67.5278 151.064C68.0878 151.288 68.6878 151.4 69.3278 151.4ZM81.1527 155V138.2H85.0647L94.3287 149.384H92.4807V138.2H97.1367V155H93.2247L83.9607 143.816H85.8087V155H81.1527ZM106.393 155.336C105.017 155.336 103.689 155.168 102.409 154.832C101.145 154.48 100.113 154.032 99.3126 153.488L100.873 149.984C101.625 150.464 102.489 150.864 103.465 151.184C104.457 151.488 105.441 151.64 106.417 151.64C107.073 151.64 107.601 151.584 108.001 151.472C108.401 151.344 108.689 151.184 108.865 150.992C109.057 150.784 109.153 150.544 109.153 150.272C109.153 149.888 108.977 149.584 108.625 149.36C108.273 149.136 107.817 148.952 107.257 148.808C106.697 148.664 106.073 148.52 105.385 148.376C104.713 148.232 104.033 148.048 103.345 147.824C102.673 147.6 102.057 147.312 101.497 146.96C100.937 146.592 100.481 146.12 100.129 145.544C99.7766 144.952 99.6006 144.208 99.6006 143.312C99.6006 142.304 99.8726 141.392 100.417 140.576C100.977 139.76 101.809 139.104 102.913 138.608C104.017 138.112 105.393 137.864 107.041 137.864C108.145 137.864 109.225 137.992 110.281 138.248C111.353 138.488 112.305 138.848 113.137 139.328L111.673 142.856C110.873 142.424 110.081 142.104 109.297 141.896C108.513 141.672 107.753 141.56 107.017 141.56C106.361 141.56 105.833 141.632 105.433 141.776C105.033 141.904 104.745 142.08 104.569 142.304C104.393 142.528 104.305 142.784 104.305 143.072C104.305 143.44 104.473 143.736 104.809 143.96C105.161 144.168 105.617 144.344 106.177 144.488C106.753 144.616 107.377 144.752 108.049 144.896C108.737 145.04 109.417 145.224 110.089 145.448C110.777 145.656 111.401 145.944 111.961 146.312C112.521 146.664 112.969 147.136 113.305 147.728C113.657 148.304 113.833 149.032 113.833 149.912C113.833 150.888 113.553 151.792 112.993 152.624C112.449 153.44 111.625 154.096 110.521 154.592C109.433 155.088 108.057 155.336 106.393 155.336ZM124.5 155.336C123.156 155.336 121.916 155.12 120.78 154.688C119.644 154.256 118.652 153.648 117.804 152.864C116.972 152.064 116.324 151.136 115.86 150.08C115.396 149.024 115.164 147.864 115.164 146.6C115.164 145.336 115.396 144.176 115.86 143.12C116.324 142.064 116.972 141.144 117.804 140.36C118.652 139.56 119.644 138.944 120.78 138.512C121.916 138.08 123.156 137.864 124.5 137.864C125.86 137.864 127.1 138.08 128.22 138.512C129.356 138.944 130.34 139.56 131.172 140.36C132.004 141.144 132.652 142.064 133.116 143.12C133.596 144.176 133.836 145.336 133.836 146.6C133.836 147.864 133.596 149.032 133.116 150.104C132.652 151.16 132.004 152.08 131.172 152.864C130.34 153.648 129.356 154.256 128.22 154.688C127.1 155.12 125.86 155.336 124.5 155.336ZM124.5 151.4C125.14 151.4 125.732 151.288 126.276 151.064C126.836 150.84 127.316 150.52 127.716 150.104C128.132 149.672 128.452 149.16 128.676 148.568C128.916 147.976 129.036 147.32 129.036 146.6C129.036 145.864 128.916 145.208 128.676 144.632C128.452 144.04 128.132 143.536 127.716 143.12C127.316 142.688 126.836 142.36 126.276 142.136C125.732 141.912 125.14 141.8 124.5 141.8C123.86 141.8 123.26 141.912 122.7 142.136C122.156 142.36 121.676 142.688 121.26 143.12C120.86 143.536 120.54 144.04 120.3 144.632C120.076 145.208 119.964 145.864 119.964 146.6C119.964 147.32 120.076 147.976 120.3 148.568C120.54 149.16 120.86 149.672 121.26 150.104C121.676 150.52 122.156 150.84 122.7 151.064C123.26 151.288 123.86 151.4 124.5 151.4ZM136.325 155V138.2H141.077V151.232H149.093V155H136.325ZM150.973 155V138.2H155.725V155H150.973ZM159.106 155V138.2H167.05C168.906 138.2 170.538 138.544 171.946 139.232C173.354 139.92 174.45 140.888 175.234 142.136C176.034 143.384 176.434 144.872 176.434 146.6C176.434 148.312 176.034 149.8 175.234 151.064C174.45 152.312 173.354 153.28 171.946 153.968C170.538 154.656 168.906 155 167.05 155H159.106ZM163.858 151.208H166.858C167.818 151.208 168.65 151.032 169.354 150.68C170.074 150.312 170.634 149.784 171.034 149.096C171.434 148.392 171.634 147.56 171.634 146.6C171.634 145.624 171.434 144.792 171.034 144.104C170.634 143.416 170.074 142.896 169.354 142.544C168.65 142.176 167.818 141.992 166.858 141.992H163.858V151.208ZM176.684 155L184.1 138.2H188.78L196.22 155H191.276L185.468 140.528H187.34L181.532 155H176.684ZM180.74 151.736L181.964 148.232H190.172L191.396 151.736H180.74ZM200.299 155V141.968H195.139V138.2H210.187V141.968H205.051V155H200.299ZM211.957 155V138.2H216.709V155H211.957ZM228.562 155.336C227.218 155.336 225.978 155.12 224.842 154.688C223.706 154.256 222.714 153.648 221.866 152.864C221.034 152.064 220.386 151.136 219.922 150.08C219.458 149.024 219.226 147.864 219.226 146.6C219.226 145.336 219.458 144.176 219.922 143.12C220.386 142.064 221.034 141.144 221.866 140.36C222.714 139.56 223.706 138.944 224.842 138.512C225.978 138.08 227.218 137.864 228.562 137.864C229.922 137.864 231.162 138.08 232.282 138.512C233.418 138.944 234.402 139.56 235.234 140.36C236.066 141.144 236.714 142.064 237.178 143.12C237.658 144.176 237.898 145.336 237.898 146.6C237.898 147.864 237.658 149.032 237.178 150.104C236.714 151.16 236.066 152.08 235.234 152.864C234.402 153.648 233.418 154.256 232.282 154.688C231.162 155.12 229.922 155.336 228.562 155.336ZM228.562 151.4C229.202 151.4 229.794 151.288 230.338 151.064C230.898 150.84 231.378 150.52 231.778 150.104C232.194 149.672 232.514 149.16 232.738 148.568C232.978 147.976 233.098 147.32 233.098 146.6C233.098 145.864 232.978 145.208 232.738 144.632C232.514 144.04 232.194 143.536 231.778 143.12C231.378 142.688 230.898 142.36 230.338 142.136C229.794 141.912 229.202 141.8 228.562 141.8C227.922 141.8 227.322 141.912 226.762 142.136C226.218 142.36 225.738 142.688 225.322 143.12C224.922 143.536 224.602 144.04 224.362 144.632C224.138 145.208 224.026 145.864 224.026 146.6C224.026 147.32 224.138 147.976 224.362 148.568C224.602 149.16 224.922 149.672 225.322 150.104C225.738 150.52 226.218 150.84 226.762 151.064C227.322 151.288 227.922 151.4 228.562 151.4ZM240.387 155V138.2H244.299L253.563 149.384H251.715V138.2H256.371V155H252.459L243.195 143.816H245.043V155H240.387Z" fill="#4C4C4C"/>
<defs>
<linearGradient id="paint0_linear_442_17" x1="148.276" y1="4.27122" x2="148.276" y2="282.771" gradientUnits="userSpaceOnUse">
<stop offset="0.03" stop-color="#5193BB"/>
<stop offset="0.1" stop-color="#6794AB"/>
<stop offset="0.31" stop-color="#AA987B"/>
<stop offset="0.46" stop-color="#D49A5D"/>
<stop offset="0.54" stop-color="#E49B52"/>
<stop offset="0.6" stop-color="#DF9B55"/>
<stop offset="0.67" stop-color="#D29A5F"/>
<stop offset="0.74" stop-color="#BC996F"/>
<stop offset="0.81" stop-color="#9C9785"/>
<stop offset="0.89" stop-color="#7495A2"/>
<stop offset="0.97" stop-color="#4492C5"/>
<stop offset="0.98" stop-color="#3F92C8"/>
</linearGradient>
<linearGradient id="paint1_linear_442_17" x1="196.235" y1="298.692" x2="130.045" y2="48.9815" gradientUnits="userSpaceOnUse">
<stop stop-color="white"/>
<stop offset="0.45" stop-color="#FCFDFD"/>
<stop offset="0.81" stop-color="#F2F5F6"/>
<stop offset="1" stop-color="#E9EEF0"/>
</linearGradient>
<linearGradient id="paint2_linear_442_17" x1="84.1968" y1="117.141" x2="282.607" y2="273.941" gradientUnits="userSpaceOnUse">
<stop stop-color="white"/>
<stop offset="0.45" stop-color="#FCFDFD"/>
<stop offset="0.81" stop-color="#F2F5F6"/>
<stop offset="1" stop-color="#E9EEF0"/>
</linearGradient>
</defs>
</svg>
